nimbus-sans-l_italic.sfdir

StartChar: exclam
Encoding: 33 33 1
Width: 278
Flags: MW
HStem: 0 103<146 208 124 230> 709 20<279 363 363 363>
LayerCount: 2
Fore
SplineSet
363 729 m 1
 289 379 l 1
 222 168 l 1
 182 168 l 1
 205 379 l 1
 279 729 l 1
 363 729 l 1
230 103 m 1
 208 0 l 1
 124 0 l 1
 146 103 l 1
 230 103 l 1
EndSplineSet
EndChar

StartChar: quotedbl
Encoding: 34 34 2
Width: 355
Flags: W
LayerCount: 2
Fore
SplineSet
202 709 m 1
 296 709 l 1
 272 598 l 1
 217 464 l 1
 177 464 l 1
 178 598 l 1
 202 709 l 1
361 709 m 1
 455 709 l 1
 431 598 l 1
 376 464 l 1
 336 464 l 1
 337 598 l 1
 361 709 l 1
EndSplineSet
EndChar

StartChar: numbersign
Encoding: 35 35 3
Width: 556
Flags: MW
HStem: -20 20 191 64<68 155 54 180 256 356 68 231 457 550> 439 64<157 253 144 278 157 330 355 454 555 635>
LayerCount: 2
Fore
SplineSet
632 697 m 1
 555 503 l 1
 649 503 l 1
 635 439 l 1
 530 439 l 1
 457 255 l 1
 564 255 l 1
 550 191 l 1
 432 191 l 1
 349 -20 l 1
 273 -20 l 1
 356 191 l 1
 231 191 l 1
 148 -20 l 1
 72 -20 l 1
 155 191 l 1
 54 191 l 1
 68 255 l 1
 180 255 l 1
 253 439 l 1
 144 439 l 1
 157 503 l 1
 278 503 l 1
 355 697 l 1
 431 697 l 1
 355 503 l 1
 479 503 l 1
 556 697 l 1
 632 697 l 1
454 439 m 1
 330 439 l 1
 256 255 l 1
 381 255 l 1
 454 439 l 1
EndSplineSet
EndChar

StartChar: dollar
Encoding: 36 36 4
Width: 556
Flags: W
VStem: 69 83<122.5 145.5> 152 83<476.5 502> 477 88<205.5 235> 530 83<557 581>
LayerCount: 2
Fore
SplineSet
407 770 m 1xe0
 466 770 l 1
 455 716 l 1
 555 711 613 655 613 565 c 0
 613 549 612 539 607 519 c 1
 528 519 l 1
 529 534 l 2
 530 543 530 551 530 555 c 0x50
 530 607 495 643 440 646 c 1
 387 397 l 1
 469 372 484 365 508 349 c 0
 548 322 565 291 565 243 c 0
 565 168 532 88 481 43 c 0
 437 3 371 -21 298 -23 c 1
 276 -126 l 1
 217 -126 l 1
 239 -23 l 1
 122 -5 69 43 69 134 c 0
 69 157 71 174 77 208 c 1
 156 208 l 1
 155 197 l 2
 153 178 152 159 152 150 c 0
 152 95 180 67 253 46 c 1
 311 318 l 1
 239 343 218 352 197 370 c 0
 167 396 152 429 152 469 c 0
 152 535 182 609 227 650 c 0
 267 687 328 711 396 716 c 1
 407 770 l 1xe0
330 405 m 1
 381 645 l 1
 339 642 305 627 279 602 c 0
 253 577 235 536 235 501 c 0
 235 452 261 426 330 405 c 1
368 309 m 1x20
 312 46 l 1
 417 54 477 114 477 211 c 0
 477 259 449 285 368 309 c 1x20
EndSplineSet
EndChar

StartChar: percent
Encoding: 37 37 5
Width: 889
Flags: W
HStem: -20 20 -16 66<674.5 730.5 674.5 738> 254 66<709 766> 346 66<262.5 318.5 262.5 326> 616 66<297 354>
VStem: 134 70<470.5 525.5 470.5 530.5> 413 70<503 558.5> 546 70<108.5 163.5 108.5 168.5> 825 70<141 196.5>
LayerCount: 2
Fore
SplineSet
759 709 m 1xbf80
 825 709 l 1
 275 -20 l 1
 209 -20 l 1
 759 709 l 1xbf80
345 682 m 0
 423 682 483 625 483 552 c 0
 483 444 382 346 270 346 c 0
 192 346 134 402 134 478 c 0
 134 583 237 682 345 682 c 0
329 616 m 0
 265 616 204 557 204 494 c 0
 204 447 239 412 286 412 c 0
 351 412 413 472 413 534 c 0
 413 583 379 616 329 616 c 0
757 320 m 0
 835 320 895 263 895 190 c 0
 895 82 794 -16 682 -16 c 0x6780
 604 -16 546 40 546 116 c 0
 546 221 649 320 757 320 c 0
741 254 m 0
 677 254 616 195 616 132 c 0
 616 85 651 50 698 50 c 0
 763 50 825 110 825 172 c 0
 825 221 791 254 741 254 c 0
EndSplineSet
EndChar

StartChar: ampersand
Encoding: 38 38 6
Width: 667
Flags: MW
HStem: -23 77<246.5 293> 639 70<406.5 457.5>
VStem: 83 88<126.5 168.5> 247 83<519 562.5 519 571.5> 505 83<546.5 594>
LayerCount: 2
Fore
SplineSet
565 334 m 1
 644 334 l 1
 632 273 593 202 544 151 c 1
 634 0 l 1
 528 0 l 1
 482 78 l 1
 391 3 333 -23 253 -23 c 0
 148 -23 83 35 83 128 c 0
 83 209 120 277 195 332 c 0
 221 350 249 368 288 390 c 1
 284 401 281 409 279 413 c 2
 261 455 l 2
 252 477 247 500 247 523 c 0
 247 620 346 709 455 709 c 0
 536 709 588 662 588 587 c 0
 588 500 531 434 407 378 c 1
 505 215 l 1
 537 252 553 285 565 334 c 1
377 434 m 1
 469 480 505 519 505 574 c 0
 505 614 479 639 436 639 c 0
 377 639 330 592 330 533 c 0
 330 505 336 492 377 434 c 1
448 137 m 1
 329 336 l 1
 217 276 171 224 171 159 c 0
 171 94 213 54 280 54 c 0
 329 54 375 76 448 137 c 1
EndSplineSet
EndChar

StartChar: quotesingle
Encoding: 169 39 103
Width: 191
Flags: W
LayerCount: 2
Fore
SplineSet
198 709 m 1
 292 709 l 1
 268 598 l 1
 213 464 l 1
 173 464 l 1
 174 598 l 1
 198 709 l 1
EndSplineSet
EndChar

StartChar: parenleft
Encoding: 40 40 8
Width: 333
Flags: MW
HStem: -213 20 709 20<391 446 446 446>
VStem: 113 78<56.5 190>
LayerCount: 2
Fore
SplineSet
391 729 m 1
 446 729 l 1
 278 523 191 301 191 79 c 0
 191 -23 209 -117 246 -213 c 1
 191 -213 l 1
 142 -127 113 -3 113 116 c 0
 113 319 217 547 391 729 c 1
EndSplineSet
EndChar

StartChar: parenright
Encoding: 41 41 9
Width: 333
Flags: MW
HStem: -213 20 709 20<193 248 248 248>
VStem: 248 77<341 463.5 341 484.5>
LayerCount: 2
Fore
SplineSet
48 -213 m 1
 -7 -213 l 1
 159 -10 248 215 248 431 c 0
 248 538 231 632 193 729 c 1
 248 729 l 1
 295 646 325 520 325 407 c 0
 325 275 290 148 216 15 c 0
 170 -68 111 -147 48 -213 c 1
EndSplineSet
EndChar

StartChar: asterisk
Encoding: 42 42 10
Width: 389
Flags: MW
HStem: 514 20<309 309> 709 20<319 381 381 381>
LayerCount: 2
Fore
SplineSet
319 729 m 1
 381 729 l 1
 352 617 l 1
 462 655 l 1
 471 593 l 1
 358 566 l 1
 411 475 l 1
 353 438 l 1
 309 534 l 1
 228 439 l 1
 181 479 l 1
 273 567 l 1
 169 598 l 1
 199 657 l 1
 299 617 l 1
 319 729 l 1
EndSplineSet
EndChar

StartChar: plus
Encoding: 43 43 11
Width: 584
Flags: MW
HStem: -11 20 197 72<107 299 92 314 384 576 107 369>
LayerCount: 2
Fore
SplineSet
591 269 m 1
 576 197 l 1
 369 197 l 1
 325 -11 l 1
 255 -11 l 1
 299 197 l 1
 92 197 l 1
 107 269 l 1
 314 269 l 1
 358 473 l 1
 428 473 l 1
 384 269 l 1
 591 269 l 1
EndSplineSet
EndChar

StartChar: comma
Encoding: 44 44 12
Width: 278
Flags: MW
HStem: 0 103<109 146 87 214>
LayerCount: 2
Fore
SplineSet
109 103 m 1
 214 103 l 1
 188 -16 l 1
 171 -101 121 -150 55 -147 c 1
 63 -109 l 1
 111 -109 132 -82 146 0 c 1
 87 0 l 1
 109 103 l 1
EndSplineSet
EndChar

StartChar: hyphen
Encoding: 45 45 13
Width: 333
Flags: MW
HStem: 240 72<112 336 97 351>
LayerCount: 2
Fore
SplineSet
351 312 m 1
 336 240 l 1
 97 240 l 1
 112 312 l 1
 351 312 l 1
EndSplineSet
EndChar

StartChar: period
Encoding: 46 46 14
Width: 278
Flags: MW
HStem: 0 103<109 191 87 213>
LayerCount: 2
Fore
SplineSet
213 103 m 1
 191 0 l 1
 87 0 l 1
 109 103 l 1
 213 103 l 1
EndSplineSet
EndChar

StartChar: slash
Encoding: 47 47 15
Width: 278
Flags: MW
HStem: -20 20 709 20<379 434 434 434>
LayerCount: 2
Fore
SplineSet
379 729 m 1
 434 729 l 1
 43 -20 l 1
 -12 -20 l 1
 379 729 l 1
EndSplineSet
EndChar

StartChar: zero
Encoding: 48 48 16
Width: 556
Flags: MW
HStem: -23 77<255.5 319> 632 77<376.5 438.5>
VStem: 98 88<141.5 228.5 141.5 242.5> 510 88<457 544.5>
LayerCount: 2
Fore
SplineSet
418 709 m 0
 531 709 598 636 598 514 c 0
 598 371 550 191 486 99 c 0
 428 15 362 -23 276 -23 c 0
 228 -23 179 -5 148 25 c 0
 116 56 98 109 98 170 c 0
 98 315 147 495 210 587 c 0
 266 669 335 709 418 709 c 0
406 632 m 0
 343 632 295 592 256 509 c 0
 218 426 186 276 186 181 c 0
 186 102 224 54 287 54 c 0
 352 54 399 92 439 178 c 0
 477 258 510 410 510 504 c 0
 510 585 471 632 406 632 c 0
EndSplineSet
EndChar

StartChar: one
Encoding: 49 49 17
Width: 556
Flags: MW
HStem: 0 20
LayerCount: 2
Fore
SplineSet
367 505 m 1
 208 505 l 1
 221 568 l 1
 365 588 386 601 440 709 c 1
 498 709 l 1
 347 0 l 1
 259 0 l 1
 367 505 l 1
EndSplineSet
EndChar

StartChar: two
Encoding: 50 50 18
Width: 556
Flags: MW
HStem: 0 87<147 505> 632 77<387 451>
VStem: 532 88<493 557>
LayerCount: 2
Fore
SplineSet
524 87 m 1
 505 0 l 1
 34 0 l 1
 78 161 124 215 297 307 c 1
 401 359 l 2
 484 401 532 461 532 525 c 0
 532 589 486 632 416 632 c 0
 358 632 308 607 277 563 c 0
 259 538 247 508 235 463 c 1
 147 463 l 1
 186 632 274 709 428 709 c 0
 496 709 544 691 578 653 c 0
 605 623 620 581 620 537 c 0
 620 437 555 354 422 287 c 2
 310 230 l 1
 219 185 164 136 147 87 c 1
 524 87 l 1
EndSplineSet
EndChar

StartChar: three
Encoding: 51 51 19
Width: 556
Flags: W
HStem: -23 77<241.5 309> 632 77<377 437.5>
VStem: 71 88<123.5 153> 467 88<216.5 264.5> 511 88<526 572>
LayerCount: 2
Fore
SplineSet
290 325 m 1xf0
 306 400 l 1
 318 400 l 1
 324 400 l 2
 397 400 450 416 477 447 c 0
 498 470 511 507 511 545 c 0
 511 599 470 632 405 632 c 0
 349 632 301 609 271 568 c 0
 256 548 247 524 237 480 c 1
 149 480 l 1
 168 552 186 590 215 624 c 0
 264 679 334 709 417 709 c 0
 527 709 599 651 599 563 c 0xc8
 599 474 562 415 477 367 c 1
 533 339 555 306 555 249 c 0
 555 184 527 112 481 63 c 1
 430 7 354 -23 264 -23 c 0
 139 -23 71 36 71 144 c 0
 71 162 72 176 76 206 c 1
 164 206 l 1
 162 193 l 2
 160 177 159 162 159 154 c 0
 159 93 206 54 277 54 c 0
 389 54 467 128 467 236 c 0
 467 293 418 327 335 327 c 0
 321 327 311 327 290 325 c 1xf0
EndSplineSet
EndChar

StartChar: four
Encoding: 52 52 20
Width: 556
Flags: MW
HStem: 0 20 170 78<158 362 158 450 467 556>
LayerCount: 2
Fore
SplineSet
362 170 m 1
 63 170 l 1
 83 262 l 1
 499 709 l 1
 565 709 l 1
 467 248 l 1
 573 248 l 1
 556 170 l 1
 450 170 l 1
 414 0 l 1
 326 0 l 1
 362 170 l 1
379 248 m 1
 444 556 l 1
 158 248 l 1
 379 248 l 1
EndSplineSet
EndChar

StartChar: five
Encoding: 53 53 21
Width: 556
Flags: MW
HStem: -23 77<243.5 317.5> 390 77<357 393> 622 87<311 611 311 311>
VStem: 479 88<259.5 307.5>
LayerCount: 2
Fore
SplineSet
629 709 m 1
 611 622 l 1
 311 622 l 1
 241 424 l 1
 290 454 333 467 381 467 c 0
 494 467 567 399 567 295 c 0
 567 224 542 149 498 93 c 1
 439 15 364 -23 271 -23 c 0
 209 -23 157 -6 119 26 c 0
 84 55 70 93 70 152 c 2
 70 162 l 1
 70 174 l 1
 158 174 l 1
 161 94 204 54 283 54 c 0
 396 54 479 145 479 269 c 0
 479 346 433 390 353 390 c 0
 295 390 265 377 204 323 c 1
 124 323 l 1
 259 709 l 1
 629 709 l 1
EndSplineSet
EndChar

StartChar: six
Encoding: 54 54 22
Width: 556
Flags: W
HStem: -23 77<264.5 328.5> 365 77<355 398> 632 77<388 432.5>
VStem: 93 88<138.5 227 138.5 229.5> 478 88<240.5 288.5> 523 88<528.5 599>
LayerCount: 2
Fore
SplineSet
610 524 m 1xf4
 522 524 l 1
 523 526 523 528 523 529 c 0xe4
 523 530 523 530 518 559 c 0
 512 589 504 601 481 616 c 0
 464 627 444 632 421 632 c 0
 320 632 238 527 209 358 c 1
 266 415 322 442 388 442 c 0
 495 442 566 374 566 271 c 0xf8
 566 210 540 139 499 86 c 0
 444 14 371 -23 286 -23 c 0
 168 -23 93 51 93 167 c 0
 93 292 140 469 198 560 c 0
 261 659 341 709 435 709 c 0
 542 709 611 647 611 551 c 0
 611 545 611 535 610 524 c 1xf4
364 365 m 0xf8
 262 365 181 280 181 174 c 0
 181 103 230 54 299 54 c 0
 398 54 478 144 478 256 c 0
 478 321 432 365 364 365 c 0xf8
EndSplineSet
EndChar

StartChar: seven
Encoding: 55 55 23
Width: 556
Flags: MW
HStem: 0 20 622 87<196 560 177 671>
LayerCount: 2
Fore
SplineSet
671 709 m 1
 654 628 l 1
 483 460 302 189 235 0 c 1
 137 0 l 1
 227 211 335 369 560 622 c 1
 177 622 l 1
 196 709 l 1
 671 709 l 1
EndSplineSet
EndChar

StartChar: eight
Encoding: 56 56 24
Width: 556
Flags: W
HStem: -23 77<250 323> 334 74<330.5 383> 632 77<382.5 441>
VStem: 74 88<128.5 196> 169 88<465 507.5> 472 88<210.5 259> 516 88<539.5 572>
LayerCount: 2
Fore
SplineSet
233 373 m 1xf4
 221 383 l 2
 179 417 169 436 169 480 c 0
 169 535 192 590 234 632 c 1
 285 685 344 709 421 709 c 0
 485 709 533 692 566 657 c 0
 590 631 604 596 604 561 c 0xea
 604 518 587 470 560 436 c 0
 544 416 534 408 493 383 c 0
 490 381 485 378 477 373 c 1
 533 341 560 297 560 239 c 0
 560 182 535 120 492 72 c 0
 436 9 365 -23 281 -23 c 0
 155 -23 74 43 74 145 c 0
 74 247 128 325 233 373 c 1xf4
407 632 m 0
 320 632 257 573 257 491 c 0
 257 439 297 408 364 408 c 0
 416 408 455 424 483 458 c 0
 503 482 516 516 516 545 c 0
 516 599 475 632 407 632 c 0
344 334 m 0xf4
 243 334 162 257 162 160 c 0
 162 97 213 54 287 54 c 0
 392 54 472 129 472 226 c 0
 472 292 422 334 344 334 c 0xf4
EndSplineSet
EndChar

StartChar: nine
Encoding: 57 57 25
Width: 556
Flags: MW
HStem: -23 77<238 288.5> 244 77<291.5 324.5> 632 77<359 426>
VStem: 126 88<400 446.5> 511 88<494.5 547.5>
LayerCount: 2
Fore
SplineSet
84 162 m 1
 171 162 l 1
 171 93 206 54 270 54 c 0
 371 54 441 144 481 324 c 1
 451 299 438 288 425 279 c 0
 393 257 346 244 303 244 c 0
 195 244 126 311 126 417 c 0
 126 476 148 540 190 600 c 0
 240 671 314 709 404 709 c 0
 466 709 517 690 551 654 c 0
 581 621 599 572 599 525 c 0
 599 464 582 359 557 266 c 0
 529 161 493 97 428 43 c 0
 376 -1 319 -23 258 -23 c 0
 152 -23 83 39 83 135 c 0
 83 141 83 151 84 162 c 1
392 632 m 0
 295 632 214 543 214 436 c 0
 214 364 256 321 327 321 c 0
 428 321 511 408 511 514 c 0
 511 581 460 632 392 632 c 0
EndSplineSet
EndChar

StartChar: colon
Encoding: 58 58 26
Width: 278
Flags: MW
HStem: 0 103<132 214 110 236> 421 103<222 304 200 326>
LayerCount: 2
Fore
SplineSet
236 103 m 1
 214 0 l 1
 110 0 l 1
 132 103 l 1
 236 103 l 1
326 524 m 1
 304 421 l 1
 200 421 l 1
 222 524 l 1
 326 524 l 1
EndSplineSet
EndChar

StartChar: semicolon
Encoding: 59 59 27
Width: 278
Flags: MW
HStem: 0 103<132 169 110 237> 421 103<221 303 199 325>
LayerCount: 2
Fore
SplineSet
325 524 m 1
 303 421 l 1
 199 421 l 1
 221 524 l 1
 325 524 l 1
132 103 m 1
 237 103 l 1
 211 -16 l 1
 194 -101 144 -150 78 -147 c 1
 86 -109 l 1
 134 -109 155 -82 169 0 c 1
 110 0 l 1
 132 103 l 1
EndSplineSet
EndChar

StartChar: less
Encoding: 60 60 28
Width: 584
Flags: MW
HStem: -9 20
LayerCount: 2
Fore
SplineSet
87 198 m 1
 102 267 l 1
 635 474 l 1
 618 395 l 1
 196 231 l 1
 549 68 l 1
 532 -9 l 1
 87 198 l 1
EndSplineSet
EndChar

StartChar: equal
Encoding: 61 61 29
Width: 584
Flags: MW
HStem: 111 72<89 558 74 572> 283 72<125 594 111 609>
LayerCount: 2
Fore
SplineSet
609 355 m 1
 594 283 l 1
 111 283 l 1
 125 355 l 1
 609 355 l 1
572 183 m 1
 558 111 l 1
 74 111 l 1
 89 183 l 1
 572 183 l 1
EndSplineSet
EndChar

StartChar: greater
Encoding: 62 62 30
Width: 584
Flags: MW
HStem: -9 20
LayerCount: 2
Fore
SplineSet
596 267 m 1
 581 198 l 1
 48 -9 l 1
 65 70 l 1
 487 234 l 1
 134 397 l 1
 151 474 l 1
 596 267 l 1
EndSplineSet
EndChar

StartChar: question
Encoding: 63 63 31
Width: 556
Flags: MW
HStem: 0 103<261 329 239 351> 664 77<383 458.5>
VStem: 534 96<551.5 603.5>
LayerCount: 2
Fore
SplineSet
371 199 m 1
 281 199 l 1
 293 254 l 2
 307 315 322 333 429 417 c 1
 506 479 534 521 534 578 c 0
 534 629 490 664 427 664 c 0
 339 664 291 616 269 507 c 1
 184 507 l 1
 215 661 305 741 449 741 c 0
 501 741 543 730 572 707 c 0
 608 679 630 635 630 590 c 0
 630 513 588 448 485 370 c 0
 411 315 395 296 381 246 c 1
 371 199 l 1
351 103 m 1
 329 0 l 1
 239 0 l 1
 261 103 l 1
 351 103 l 1
EndSplineSet
EndChar

StartChar: at
Encoding: 64 64 32
Width: 1015
Flags: W
HStem: -142 77<389.5 487.5> 57 70<710 742> 62 62<456 468.5> 455 69<590 636> 664 77<602 744.5>
VStem: 80 88<143 247.5> 310 92<185 235 185 277> 953 83<391 486>
LayerCount: 2
Fore
SplineSet
771 501 m 1x37
 853 501 l 1
 704 221 l 2
 687 189 680 172 680 163 c 0
 680 144 699 127 721 127 c 0
 830 127 953 280 953 414 c 0
 953 558 829 664 660 664 c 0
 413 664 168 431 168 196 c 0
 168 40 292 -65 475 -65 c 0
 536 -65 591 -56 679 -33 c 1
 692 -100 l 1
 618 -127 528 -142 447 -142 c 0
 332 -142 224 -96 153 -17 c 0
 104 38 80 104 80 182 c 0
 80 313 144 454 252 563 c 0
 363 674 523 741 681 741 c 0
 886 741 1036 611 1036 434 c 0
 1036 348 1006 253 959 193 c 0
 898 114 788 57 696 57 c 0xdf
 665 57 638 63 623 73 c 0
 609 82 597 104 597 120 c 2
 597 125 l 1
 597 134 l 1
 590 129 584 124 582 122 c 0
 529 78 492 62 445 62 c 0
 364 62 310 117 310 201 c 0
 310 353 477 524 626 524 c 0
 685 524 723 494 735 435 c 1
 771 501 l 1x37
614 455 m 0
 566 455 516 427 473 376 c 0
 430 326 402 260 402 210 c 0
 402 160 434 124 478 124 c 0x37
 522 124 569 155 608 211 c 0
 651 271 682 346 682 390 c 0
 682 432 658 455 614 455 c 0
EndSplineSet
EndChar

StartChar: A
Encoding: 65 65 33
Width: 667
Flags: MW
HStem: 0 20 219 78<283 514 283 524 239 514> 709 20<432 552 552 552>
LayerCount: 2
Fore
SplineSet
524 219 m 1
 239 219 l 1
 116 0 l 1
 17 0 l 1
 432 729 l 1
 552 729 l 1
 653 0 l 1
 551 0 l 1
 524 219 l 1
514 297 m 1
 474 630 l 1
 283 297 l 1
 514 297 l 1
EndSplineSet
EndChar

StartChar: C
Encoding: 67 67 35
Width: 722
Flags: MW
HStem: -23 81<329 420> 660 81<473.5 565.5>
VStem: 112 96<207 304.5>
LayerCount: 2
Fore
SplineSet
770 503 m 1
 674 503 l 1
 666 611 616 660 515 660 c 0
 423 660 350 617 289 527 c 0
 238 451 208 351 208 260 c 0
 208 139 277 58 381 58 c 0
 460 58 536 95 578 155 c 0
 596 179 612 209 637 266 c 1
 735 266 l 1
 701 185 669 130 630 87 c 0
 565 16 473 -23 367 -23 c 0
 278 -23 215 4 169 62 c 0
 132 109 112 172 112 242 c 0
 112 367 161 505 240 600 c 0
 318 694 415 741 532 741 c 0
 626 741 697 704 738 634 c 0
 757 600 767 562 770 503 c 1
EndSplineSet
EndChar

StartChar: D
Encoding: 68 68 36
Width: 722
Flags: MW
HStem: 0 82<200 371> 647 82<321 492 321 321>
VStem: 663 96<434 524.5 425.5 532>
LayerCount: 2
Fore
SplineSet
89 0 m 1
 244 729 l 1
 526 729 l 2
 591 729 644 711 682 677 c 0
 729 635 759 561 759 488 c 0
 759 363 711 217 643 134 c 0
 570 45 479 0 371 0 c 2
 89 0 l 1
200 82 m 1
 372 82 l 2
 463 82 539 125 591 205 c 0
 631 268 663 388 663 480 c 0
 663 584 599 647 492 647 c 2
 321 647 l 1
 200 82 l 1
EndSplineSet
EndChar

StartChar: F
Encoding: 70 70 38
Width: 611
Flags: MW
HStem: 0 20 332 82<255 619 272 602> 647 82<322 717 322 322>
LayerCount: 2
Fore
SplineSet
255 332 m 1
 184 0 l 1
 90 0 l 1
 245 729 l 1
 734 729 l 1
 717 647 l 1
 322 647 l 1
 272 414 l 1
 619 414 l 1
 602 332 l 1
 255 332 l 1
EndSplineSet
EndChar

StartChar: H
Encoding: 72 72 40
Width: 722
Flags: MW
HStem: 0 20 332 82<265 621 248 638> 709 20<238 332 332 332 705 799 799 799>
LayerCount: 2
Fore
SplineSet
621 332 m 1
 248 332 l 1
 177 0 l 1
 83 0 l 1
 238 729 l 1
 332 729 l 1
 265 414 l 1
 638 414 l 1
 705 729 l 1
 799 729 l 1
 644 0 l 1
 550 0 l 1
 621 332 l 1
EndSplineSet
EndChar

StartChar: I
Encoding: 73 73 41
Width: 278
Flags: MW
HStem: 0 20 709 20<255 349 349 349>
LayerCount: 2
Fore
SplineSet
349 729 m 1
 194 0 l 1
 100 0 l 1
 255 729 l 1
 349 729 l 1
EndSplineSet
EndChar

StartChar: K
Encoding: 75 75 43
Width: 667
Flags: MW
HStem: 0 20 709 20<234 328 328 328 693 813 813 813>
LayerCount: 2
Fore
SplineSet
226 249 m 1
 173 0 l 1
 79 0 l 1
 234 729 l 1
 328 729 l 1
 249 356 l 1
 693 729 l 1
 813 729 l 1
 452 431 l 1
 658 0 l 1
 548 0 l 1
 380 376 l 1
 226 249 l 1
EndSplineSet
EndChar

StartChar: L
Encoding: 76 76 44
Width: 556
Flags: MW
HStem: 0 82<191 534> 709 20<235 329 329 329>
LayerCount: 2
Fore
SplineSet
329 729 m 1
 191 82 l 1
 551 82 l 1
 534 0 l 1
 80 0 l 1
 235 729 l 1
 329 729 l 1
EndSplineSet
EndChar

StartChar: M
Encoding: 77 77 45
Width: 833
Flags: MW
HStem: 0 20 709 20<230 359 359 359 785 916 916 916>
LayerCount: 2
Fore
SplineSet
467 0 m 1
 370 0 l 1
 293 605 l 1
 164 0 l 1
 75 0 l 1
 230 729 l 1
 359 729 l 1
 439 102 l 1
 785 729 l 1
 916 729 l 1
 761 0 l 1
 672 0 l 1
 801 605 l 1
 467 0 l 1
EndSplineSet
EndChar

StartChar: N
Encoding: 78 78 46
Width: 722
Flags: MW
HStem: 0 20 709 20<231 335 335 335 712 801 801 801>
LayerCount: 2
Fore
SplineSet
801 729 m 1
 646 0 l 1
 540 0 l 1
 291 591 l 1
 165 0 l 1
 76 0 l 1
 231 729 l 1
 335 729 l 1
 585 131 l 1
 712 729 l 1
 801 729 l 1
EndSplineSet
EndChar

StartChar: P
Encoding: 80 80 48
Width: 667
Flags: MW
HStem: 0 20 309 82<251 462 268 462 462 479> 647 82<323 517 323 323>
VStem: 637 96<532.5 581.5>
LayerCount: 2
Fore
SplineSet
251 309 m 1
 185 0 l 1
 91 0 l 1
 246 729 l 1
 548 729 l 2
 670 729 733 674 733 568 c 0
 733 487 697 411 634 361 c 0
 589 325 542 309 479 309 c 2
 251 309 l 1
268 391 m 1
 462 391 l 2
 526 391 569 410 602 452 c 0
 625 482 637 515 637 550 c 0
 637 613 595 647 517 647 c 2
 323 647 l 1
 268 391 l 1
EndSplineSet
EndChar

StartChar: Q
Encoding: 81 81 49
Width: 778
Flags: MW
HStem: -23 81<343.5 428.5> 660 81<492.5 559>
VStem: 104 96<205 317.5 205 340.5> 732 96<386.5 475.5>
LayerCount: 2
Fore
SplineSet
733 -1 m 1
 673 -59 l 1
 586 28 l 1
 513 -11 467 -23 390 -23 c 0
 210 -23 104 84 104 264 c 0
 104 417 182 575 301 664 c 0
 370 715 448 741 537 741 c 0
 626 741 707 712 755 664 c 0
 801 617 828 539 828 456 c 0
 828 312 765 175 655 76 c 1
 733 -1 l 1
524 205 m 1
 598 132 l 1
 685 216 732 327 732 446 c 0
 732 505 718 553 691 588 c 0
 656 633 593 660 525 660 c 0
 431 660 342 613 285 533 c 1
 232 461 200 363 200 272 c 0
 200 138 278 58 409 58 c 0
 450 58 479 65 528 87 c 1
 466 149 l 1
 524 205 l 1
EndSplineSet
EndChar

StartChar: R
Encoding: 82 82 50
Width: 722
Flags: W
HStem: 0 20 314 82<254 502 271 493> 647 82<325 555 325 325>
VStem: 562 101<39.5 82> 594 96<255 263.5> 674 96<544 570>
LayerCount: 2
Fore
SplineSet
254 314 m 1xe8
 187 0 l 1
 93 0 l 1
 248 729 l 1
 584 729 l 2
 712 729 770 681 770 575 c 0xe4
 770 513 743 446 703 409 c 0
 685 393 669 382 630 360 c 1
 677 329 690 308 690 264 c 0xe8
 690 246 682 194 669 126 c 0
 665 105 663 88 663 76 c 0
 663 54 671 35 684 23 c 1
 679 0 l 1
 566 0 l 1
 563 21 562 32 562 47 c 0xf0
 562 79 562 79 586 179 c 0
 591 201 594 222 594 239 c 0
 594 288 558 314 493 314 c 2
 254 314 l 1xe8
271 396 m 1
 502 396 l 2
 566 396 608 413 637 449 c 0
 659 477 674 521 674 558 c 0
 674 582 666 605 653 619 c 0
 634 640 608 647 555 647 c 2
 325 647 l 1
 271 396 l 1
EndSplineSet
EndChar

StartChar: T
Encoding: 84 84 52
Width: 611
Flags: MW
HStem: 0 20 647 82<175 399 158 748 493 731 493 493>
LayerCount: 2
Fore
SplineSet
493 647 m 1
 355 0 l 1
 261 0 l 1
 399 647 l 1
 158 647 l 1
 175 729 l 1
 748 729 l 1
 731 647 l 1
 493 647 l 1
EndSplineSet
EndChar

StartChar: U
Encoding: 85 85 53
Width: 722
Flags: MW
HStem: -23 81<333 437.5 333 447> 709 20<240 334 334 334 706 800 800 800>
VStem: 124 96<138.5 162.5>
LayerCount: 2
Fore
SplineSet
706 729 m 1
 800 729 l 1
 691 217 l 2
 660 71 531 -23 363 -23 c 0
 286 -23 220 -2 179 35 c 0
 147 64 124 114 124 155 c 0
 124 170 131 218 138 251 c 2
 240 729 l 1
 334 729 l 1
 225 217 l 2
 222 201 220 187 220 173 c 0
 220 104 285 58 381 58 c 0
 494 58 576 118 597 217 c 2
 706 729 l 1
EndSplineSet
EndChar

StartChar: V
Encoding: 86 86 54
Width: 667
Flags: MW
HStem: 0 20 709 20<185 282 282 282 701 800 800 800>
LayerCount: 2
Fore
SplineSet
392 0 m 1
 292 0 l 1
 185 729 l 1
 282 729 l 1
 365 112 l 1
 701 729 l 1
 800 729 l 1
 392 0 l 1
EndSplineSet
EndChar

StartChar: W
Encoding: 87 87 55
Width: 944
Flags: MW
HStem: 0 20 709 20<177 277 277 277 580 676 676 676 980 1084 1084 1084>
LayerCount: 2
Fore
SplineSet
744 0 m 1
 642 0 l 1
 601 592 l 1
 311 0 l 1
 209 0 l 1
 177 729 l 1
 277 729 l 1
 292 137 l 1
 580 729 l 1
 676 729 l 1
 717 137 l 1
 980 729 l 1
 1084 729 l 1
 744 0 l 1
EndSplineSet
EndChar

StartChar: X
Encoding: 88 88 56
Width: 667
Flags: MW
HStem: 0 20 709 20<194 307 307 307 680 794 794 794>
LayerCount: 2
Fore
SplineSet
471 374 m 1
 650 0 l 1
 535 0 l 1
 401 304 l 1
 137 0 l 1
 22 0 l 1
 361 374 l 1
 194 729 l 1
 307 729 l 1
 432 444 l 1
 680 729 l 1
 794 729 l 1
 471 374 l 1
EndSplineSet
EndChar

StartChar: Y
Encoding: 89 89 57
Width: 667
Flags: MW
HStem: 0 20 709 20<168 280 280 280 705 816 816 816>
LayerCount: 2
Fore
SplineSet
448 286 m 1
 387 0 l 1
 293 0 l 1
 354 286 l 1
 168 729 l 1
 280 729 l 1
 416 372 l 1
 705 729 l 1
 816 729 l 1
 448 286 l 1
EndSplineSet
EndChar

StartChar: bracketleft
Encoding: 91 91 59
Width: 278
Flags: MW
HStem: -213 72<118 205> 657 72<288 390 288 288>
LayerCount: 2
Fore
SplineSet
405 729 m 1
 390 657 l 1
 288 657 l 1
 118 -141 l 1
 220 -141 l 1
 205 -213 l 1
 19 -213 l 1
 219 729 l 1
 405 729 l 1
EndSplineSet
EndChar

StartChar: backslash
Encoding: 92 92 60
Width: 278
Flags: MW
HStem: -20 20 709 20<147 202 202 202>
LayerCount: 2
Fore
SplineSet
147 729 m 1
 202 729 l 1
 280 -20 l 1
 225 -20 l 1
 147 729 l 1
EndSplineSet
EndChar

StartChar: bracketright
Encoding: 93 93 61
Width: 278
Flags: MW
HStem: -213 72<-23 95 -8 95 -8 164> 657 72<177 265 162 364>
LayerCount: 2
Fore
SplineSet
-23 -213 m 1
 -8 -141 l 1
 95 -141 l 1
 265 657 l 1
 162 657 l 1
 177 729 l 1
 364 729 l 1
 164 -213 l 1
 -23 -213 l 1
EndSplineSet
EndChar

StartChar: asciicircum
Encoding: 94 94 62
Width: 469
Flags: W
LayerCount: 2
Fore
SplineSet
349 709 m 1
 422 709 l 1
 496 329 l 1
 427 329 l 1
 369 628 l 1
 187 329 l 1
 115 329 l 1
 349 709 l 1
EndSplineSet
EndChar

StartChar: underscore
Encoding: 95 95 63
Width: 556
Flags: MW
HStem: -176 50<-48 540 -59 551>
LayerCount: 2
Fore
SplineSet
551 -126 m 1
 540 -176 l 1
 -59 -176 l 1
 -48 -126 l 1
 551 -126 l 1
EndSplineSet
EndChar

StartChar: grave
Encoding: 193 96 123
Width: 333
Flags: MW
HStem: 720 20<179 285 285 285>
LayerCount: 2
Fore
SplineSet
285 740 m 1
 357 592 l 1
 304 592 l 1
 179 740 l 1
 285 740 l 1
EndSplineSet
EndChar

StartChar: b
Encoding: 98 98 66
Width: 556
Flags: MW
HStem: -23 77<272 327.5> 462 77<391 419.5> 709 20<209 293 293 293>
VStem: 500 88<295.5 367>
LayerCount: 2
Fore
SplineSet
209 729 m 1
 293 729 l 1
 235 454 l 1
 266 487 279 498 296 509 c 0
 326 527 371 539 411 539 c 0
 512 539 588 455 588 343 c 0
 588 240 544 126 477 55 c 0
 432 8 361 -23 294 -23 c 0
 250 -23 209 -8 183 18 c 0
 168 33 159 47 146 78 c 1
 129 0 l 1
 54 0 l 1
 209 729 l 1
383 462 m 0
 323 462 270 427 231 361 c 0
 203 313 185 245 185 183 c 0
 185 104 228 54 296 54 c 0
 361 54 413 87 454 155 c 0
 483 203 500 267 500 324 c 0
 500 410 456 462 383 462 c 0
EndSplineSet
EndChar

StartChar: d
Encoding: 100 100 68
Width: 556
Flags: MW
HStem: -23 77<241 265.5> 462 77<323 392> 709 20<566 650 650 650>
VStem: 73 88<147 218 147 275.5>
LayerCount: 2
Fore
SplineSet
650 729 m 1
 495 0 l 1
 414 0 l 1
 430 76 l 1
 416 48 403 33 373 15 c 0
 333 -9 287 -23 244 -23 c 0
 140 -23 73 53 73 170 c 0
 73 381 197 539 363 539 c 0
 434 539 474 513 506 448 c 1
 566 729 l 1
 650 729 l 1
355 462 m 0
 291 462 243 430 205 361 c 0
 178 310 161 246 161 190 c 0
 161 104 204 54 278 54 c 0
 339 54 388 88 427 155 c 0
 457 207 473 268 473 327 c 0
 473 412 429 462 355 462 c 0
EndSplineSet
EndChar

StartChar: f
Encoding: 102 102 70
Width: 278
Flags: MW
HStem: 0 20 457 67<130 186 116 200 284 356> 660 72<349.5 374.5>
LayerCount: 2
Fore
SplineSet
370 524 m 1
 356 457 l 1
 270 457 l 1
 173 0 l 1
 89 0 l 1
 186 457 l 1
 116 457 l 1
 130 524 l 1
 200 524 l 1
 219 613 l 2
 235 687 291 732 368 732 c 0
 384 732 395 731 413 727 c 1
 398 658 l 1
 384 660 378 660 371 660 c 0
 328 660 310 643 299 593 c 2
 284 524 l 1
 370 524 l 1
EndSplineSet
EndChar

StartChar: g
Encoding: 103 103 71
Width: 556
Flags: MW
HStem: -218 72<192 248.5> -17 72<237.5 278.5> 462 77<331.5 386 330.5 395>
VStem: 74 88<144.5 214 144.5 214>
LayerCount: 2
Fore
SplineSet
525 524 m 1
 601 524 l 1
 508 85 l 2
 481 -42 454 -103 404 -151 c 0
 359 -194 288 -218 209 -218 c 0
 102 -218 32 -168 32 -91 c 0
 32 -87 32 -81 33 -73 c 2
 34 -60 l 1
 118 -60 l 1
 118 -68 l 1
 118 -74 l 2
 118 -119 158 -146 226 -146 c 0
 332 -146 386 -92 415 44 c 2
 419 63 l 1
 369 10 310 -17 247 -17 c 0
 145 -17 74 59 74 168 c 0
 74 260 112 373 165 439 c 0
 214 501 292 539 369 539 c 0
 403 539 435 528 461 509 c 0
 483 493 493 479 508 446 c 1
 525 524 l 1
363 462 m 0
 300 462 244 425 208 360 c 0
 179 308 162 244 162 184 c 0
 162 105 204 55 271 55 c 0
 331 55 390 93 423 154 c 1
 451 203 469 277 469 339 c 0
 469 414 427 462 363 462 c 0
EndSplineSet
EndChar

StartChar: h
Encoding: 104 104 72
Width: 556
Flags: MW
HStem: 0 20 467 72<401.5 425.5> 709 20<225 309 309 309>
VStem: 485 89<407 407.5>
LayerCount: 2
Fore
SplineSet
225 729 m 1
 309 729 l 1
 252 459 l 1
 315 518 364 539 439 539 c 0
 523 539 574 492 574 413 c 0
 574 401 573 389 570 376 c 2
 490 0 l 1
 406 0 l 1
 479 343 l 2
 485 370 485 370 485 382 c 0
 485 433 451 467 400 467 c 0
 309 467 239 399 215 289 c 2
 154 0 l 1
 70 0 l 1
 225 729 l 1
EndSplineSet
EndChar

StartChar: i
Encoding: 105 105 73
Width: 222
Flags: MW
HStem: 0 20 626 103<221 283 199 305>
LayerCount: 2
Fore
SplineSet
261 524 m 1
 150 0 l 1
 66 0 l 1
 177 524 l 1
 261 524 l 1
305 729 m 1
 283 626 l 1
 199 626 l 1
 221 729 l 1
 305 729 l 1
EndSplineSet
EndChar

StartChar: k
Encoding: 107 107 75
Width: 500
Flags: MW
HStem: 0 20 709 20<213 297 297 297>
LayerCount: 2
Fore
SplineSet
297 729 m 1
 207 306 l 1
 476 524 l 1
 584 524 l 1
 362 343 l 1
 502 0 l 1
 406 0 l 1
 292 291 l 1
 185 203 l 1
 142 0 l 1
 58 0 l 1
 213 729 l 1
 297 729 l 1
EndSplineSet
EndChar

StartChar: l
Encoding: 108 108 76
Width: 222
Flags: MW
HStem: 0 20 709 20<223 307 307 307>
LayerCount: 2
Fore
SplineSet
307 729 m 1
 152 0 l 1
 68 0 l 1
 223 729 l 1
 307 729 l 1
EndSplineSet
EndChar

StartChar: m
Encoding: 109 109 77
Width: 833
Flags: W
HStem: 0 20 467 72<389 400.5 692.5 711.5> 504 20<182 258 258 258>
VStem: 764 88<382.5 441>
LayerCount: 2
Fore
SplineSet
182 524 m 1xb0
 258 524 l 1x30
 245 459 l 1
 309 519 355 539 423 539 c 0
 489 539 528 512 544 456 c 1
 603 513 660 539 725 539 c 0
 771 539 798 529 820 505 c 0
 840 482 852 454 852 428 c 0
 852 417 849 384 846 373 c 2
 767 0 l 1
 683 0 l 1
 755 341 l 1
 764 375 764 375 764 390 c 0
 764 438 735 467 688 467 c 0
 616 467 547 407 531 329 c 2
 461 0 l 1
 377 0 l 1
 454 361 l 2
 457 374 458 387 458 398 c 0
 458 439 425 467 376 467 c 0xd0
 309 467 241 405 225 329 c 2
 155 0 l 1
 71 0 l 1
 182 524 l 1xb0
EndSplineSet
EndChar

StartChar: n
Encoding: 110 110 78
Width: 556
Flags: W
HStem: 0 20 467 72<400 424> 504 20<181 257 257 257>
VStem: 486 88<407.5 409>
LayerCount: 2
Fore
SplineSet
181 524 m 1xb0
 257 524 l 1x30
 244 459 l 1
 296 512 362 539 438 539 c 0
 521 539 574 490 574 414 c 0
 574 401 573 389 570 376 c 2
 490 0 l 1
 406 0 l 1
 480 349 l 2
 484 365 486 380 486 386 c 0
 486 432 449 467 399 467 c 0xd0
 309 467 239 399 215 289 c 2
 154 0 l 1
 70 0 l 1
 181 524 l 1xb0
EndSplineSet
EndChar

StartChar: o
Encoding: 111 111 79
Width: 556
Flags: MW
HStem: -23 77<247.5 317> 462 77<338 408>
VStem: 80 88<144 206.5> 488 88<308.5 373.5>
LayerCount: 2
Fore
SplineSet
384 539 m 0
 442 539 487 523 521 490 c 0
 556 456 576 405 576 352 c 0
 576 265 543 156 497 93 c 0
 441 16 365 -23 269 -23 c 0
 157 -23 80 53 80 164 c 0
 80 249 113 359 158 423 c 0
 209 497 291 539 384 539 c 0
371 462 m 0
 305 462 249 425 212 357 c 0
 185 307 168 241 168 184 c 0
 168 104 212 54 283 54 c 0
 352 54 406 90 444 159 c 0
 471 209 488 274 488 333 c 0
 488 414 445 462 371 462 c 0
EndSplineSet
EndChar

StartChar: q
Encoding: 113 113 81
Width: 556
Flags: MW
HStem: -213 20 -23 77<240.5 268> 462 77<332 397.5>
VStem: 71 88<146 215 146 224.5>
LayerCount: 2
Fore
SplineSet
450 -213 m 1
 366 -213 l 1
 425 62 l 1
 391 28 379 17 363 7 c 0
 334 -11 288 -23 248 -23 c 0
 147 -23 71 61 71 173 c 0
 71 276 115 390 182 461 c 0
 227 509 298 539 366 539 c 0
 439 539 490 503 513 438 c 1
 532 524 l 1
 607 524 l 1
 450 -213 l 1
364 462 m 0
 300 462 244 427 205 361 c 0
 178 316 159 244 159 186 c 0
 159 106 205 54 276 54 c 0
 336 54 388 89 428 155 c 0
 456 203 474 271 474 333 c 0
 474 412 431 462 364 462 c 0
EndSplineSet
EndChar

StartChar: r
Encoding: 114 114 82
Width: 333
Flags: W
HStem: 0 20 504 20<180 256 256 256> 519 20<375 409.5>
LayerCount: 2
Fore
SplineSet
180 524 m 1xc0
 256 524 l 1x40
 239 442 l 1
 301 513 346 539 404 539 c 0x20
 415 539 423 538 436 536 c 1
 418 451 l 1
 308 455 237 394 211 272 c 2
 153 0 l 1
 69 0 l 1
 180 524 l 1xc0
EndSplineSet
EndChar

StartChar: s
Encoding: 115 115 83
Width: 500
Flags: W
HStem: -23 77<227.5 283.5 227.5 321.5> 462 77<320.5 368.5>
VStem: 61 93<106 113> 123 88<354 368.5> 405 88<141 154.5> 431 89<414.5 419.5>
LayerCount: 2
Fore
SplineSet
514 378 m 1xd4
 430 378 l 1
 431 386 431 393 431 400 c 0
 431 439 398 462 339 462 c 0
 295 462 265 452 241 429 c 0
 223 412 211 387 211 367 c 0xd4
 211 341 240 321 296 307 c 2
 372 288 l 2
 460 266 493 234 493 173 c 0
 493 54 396 -23 247 -23 c 0
 131 -23 61 25 61 105 c 0
 61 121 62 133 67 156 c 1
 156 156 l 1
 155 146 154 137 154 131 c 0
 154 81 193 54 262 54 c 0
 305 54 348 67 373 88 c 0
 389 101 405 132 405 150 c 0xe8
 405 159 399 174 392 183 c 0
 383 194 368 200 335 209 c 2
 261 228 l 2
 158 255 123 284 123 345 c 0
 123 392 147 444 183 479 c 0
 224 518 285 539 356 539 c 0
 453 539 520 491 520 421 c 0
 520 408 519 399 514 378 c 1xd4
EndSplineSet
EndChar

StartChar: t
Encoding: 116 116 84
Width: 278
Flags: MW
HStem: -23 72<158.5 225> 457 67<122 179 108 193 277 352>
VStem: 97 86<31.5 77.5>
LayerCount: 2
Fore
SplineSet
366 524 m 1
 352 457 l 1
 263 457 l 1
 185 90 l 2
 184 84 183 79 183 76 c 0
 183 60 197 49 219 49 c 0
 231 49 236 50 267 57 c 1
 251 -16 l 1
 237 -20 206 -23 186 -23 c 0
 131 -23 97 7 97 56 c 0
 97 66 98 77 100 87 c 2
 179 457 l 1
 108 457 l 1
 122 524 l 1
 193 524 l 1
 224 668 l 1
 308 668 l 1
 277 524 l 1
 366 524 l 1
EndSplineSet
EndChar

StartChar: v
Encoding: 118 118 86
Width: 500
Flags: MW
HStem: 0 20 504 20<122 214 214 214 507 598 598 598>
LayerCount: 2
Fore
SplineSet
287 0 m 1
 196 0 l 1
 122 524 l 1
 214 524 l 1
 263 102 l 1
 507 524 l 1
 598 524 l 1
 287 0 l 1
EndSplineSet
EndChar

StartChar: w
Encoding: 119 119 87
Width: 722
Flags: MW
HStem: 0 20 504 20<118 209 209 209 417 522 522 522 729 820 820 820>
LayerCount: 2
Fore
SplineSet
556 0 m 1
 461 0 l 1
 449 418 l 1
 254 0 l 1
 158 0 l 1
 118 524 l 1
 209 524 l 1
 228 116 l 1
 417 524 l 1
 522 524 l 1
 533 116 l 1
 729 524 l 1
 820 524 l 1
 556 0 l 1
EndSplineSet
EndChar

StartChar: x
Encoding: 120 120 88
Width: 500
Flags: MW
HStem: 0 20 504 20<138 231 231 231 486 583 583 583>
LayerCount: 2
Fore
SplineSet
350 267 m 1
 473 0 l 1
 379 0 l 1
 289 200 l 1
 115 0 l 1
 17 0 l 1
 256 267 l 1
 138 524 l 1
 231 524 l 1
 319 332 l 1
 486 524 l 1
 583 524 l 1
 350 267 l 1
EndSplineSet
EndChar

StartChar: y
Encoding: 121 121 89
Width: 500
Flags: MW
HStem: -218 81<63 86.5 63 92.5> 504 20<132 222 222 222 501 590 590 590>
LayerCount: 2
Fore
SplineSet
501 524 m 1
 590 524 l 1
 222 -110 l 2
 179 -184 128 -218 57 -218 c 0
 38 -218 26 -216 8 -208 c 1
 24 -133 l 1
 51 -136 58 -137 68 -137 c 0
 105 -137 121 -127 148 -85 c 2
 200 -4 l 1
 132 524 l 1
 222 524 l 1
 268 117 l 1
 501 524 l 1
EndSplineSet
EndChar

StartChar: z
Encoding: 122 122 90
Width: 500
Flags: MW
HStem: 0 72<147 458> 452 72<165 444 150 557>
LayerCount: 2
Fore
SplineSet
557 524 m 1
 539 449 l 1
 147 72 l 1
 473 72 l 1
 458 0 l 1
 31 0 l 1
 49 74 l 1
 444 452 l 1
 150 452 l 1
 165 524 l 1
 557 524 l 1
EndSplineSet
EndChar

StartChar: braceleft
Encoding: 123 123 91
Width: 334
Flags: W
HStem: -213 20 664 65<384 401 401 417>
VStem: 98 77<-159 -108> 148 76<151 173>
LayerCount: 2
Fore
SplineSet
431 729 m 1xd0
 417 664 l 1
 401 664 l 2
 351 664 334 649 323 597 c 2
 284 416 l 1
 270 345 232 290 176 259 c 1
 213 235 224 213 224 162 c 0xd0
 224 140 222 120 218 101 c 2
 179 -80 l 2
 176 -92 175 -103 175 -113 c 0
 175 -137 191 -147 229 -147 c 2
 245 -147 l 1
 231 -213 l 1
 184 -213 l 2
 130 -213 98 -184 98 -134 c 0xe0
 98 -118 100 -98 104 -80 c 2
 139 86 l 2
 145 113 148 137 148 153 c 0
 148 193 128 218 91 224 c 1
 106 293 l 1
 164 303 194 342 212 431 c 1
 248 597 l 2
 258 641 268 663 290 687 c 0
 316 715 348 729 384 729 c 2
 431 729 l 1xd0
EndSplineSet
EndChar

StartChar: bar
Encoding: 124 124 92
Width: 260
Flags: MW
HStem: 709 20<255 315 315 315>
LayerCount: 2
Fore
SplineSet
255 729 m 1
 315 729 l 1
 114 -212 l 1
 54 -212 l 1
 255 729 l 1
EndSplineSet
EndChar

StartChar: braceright
Encoding: 125 125 93
Width: 334
Flags: W
HStem: -213 65<-16 14 -2 14 14 31> 709 20<184 231 231 256.5>
VStem: 191 76<340.5 369 340.5 370.5> 240 77<640 642>
LayerCount: 2
Fore
SplineSet
-16 -213 m 1xe0
 -2 -148 l 1
 14 -148 l 2
 64 -148 81 -133 92 -81 c 2
 131 100 l 1
 148 190 173 226 239 257 c 1
 206 286 191 319 191 362 c 0xe0
 191 379 193 397 197 416 c 2
 236 597 l 2
 239 609 240 620 240 630 c 0
 240 654 224 664 186 664 c 2
 170 664 l 1
 184 729 l 1
 231 729 l 2
 282 729 317 696 317 647 c 0xd0
 317 633 315 616 311 597 c 2
 276 431 l 2
 270 401 267 379 267 359 c 0
 267 322 287 299 324 293 c 1
 309 223 l 1
 251 214 217 169 203 85 c 1
 167 -81 l 2
 158 -123 147 -148 127 -171 c 0
 100 -203 76 -213 31 -213 c 2
 -16 -213 l 1xe0
EndSplineSet
EndChar

StartChar: asciitilde
Encoding: 126 126 94
Width: 584
Flags: MW
HStem: 268 68<467.5 477> 372 66<244.5 265>
LayerCount: 2
Fore
SplineSet
542 411 m 1
 594 411 l 1
 587 370 578 347 560 323 c 0
 535 289 496 268 458 268 c 0
 434 268 406 278 384 294 c 2
 299 357 l 2
 288 365 270 372 260 372 c 0
 229 372 205 345 189 293 c 1
 137 293 l 1
 162 387 211 438 275 438 c 0
 293 438 311 432 326 422 c 2
 428 353 l 2
 446 341 460 336 475 336 c 0
 510 336 531 360 542 411 c 1
EndSplineSet
EndChar

StartChar: exclamdown
Encoding: 161 161 95
Width: 333
Flags: MW
HStem: 421 103<211 317 233 295>
LayerCount: 2
Fore
SplineSet
76 -205 m 1
 150 145 l 1
 217 356 l 1
 257 356 l 1
 234 145 l 1
 160 -205 l 1
 76 -205 l 1
211 421 m 1
 233 524 l 1
 317 524 l 1
 295 421 l 1
 211 421 l 1
EndSplineSet
EndChar

StartChar: cent
Encoding: 162 162 96
Width: 556
Flags: MW
VStem: 96 88<148 226 148 228.5> 499 86<390.5 396.5>
LayerCount: 2
Fore
SplineSet
407 463 m 1
 320 53 l 1
 391 61 434 98 465 180 c 1
 549 180 l 1
 514 49 438 -15 304 -23 c 1
 283 -120 l 1
 243 -120 l 1
 264 -22 l 1
 161 -11 96 64 96 171 c 0
 96 286 142 402 214 467 c 0
 262 510 312 531 383 538 c 1
 402 628 l 1
 442 628 l 1
 423 538 l 1
 448 538 465 535 485 528 c 0
 542 507 585 448 585 392 c 0
 585 389 584 378 583 363 c 2
 582 348 l 1
 498 348 l 1
 499 357 499 365 499 371 c 0
 499 422 472 452 419 461 c 2
 407 463 l 1
281 56 m 1
 366 460 l 1
 328 453 302 440 276 415 c 0
 221 362 184 269 184 183 c 0
 184 113 221 64 281 56 c 1
EndSplineSet
EndChar

StartChar: sterling
Encoding: 163 163 97
Width: 556
Flags: W
HStem: -23 93<410.5 425> -14 20 321 55<107 190 107 208 95 190 298 435 298 298> 652 77<376.5 459.5>
VStem: 160 96<479 537 479 545> 218 83<273.5 278.5> 540 88<568 584>
LayerCount: 2
Fore
SplineSet
447 376 m 1x7a
 435 321 l 1
 298 321 l 1
 299 310 l 2
 300 297 301 287 301 283 c 0
 301 264 294 234 283 210 c 0
 261 161 242 140 169 86 c 0
 163 81 153 74 136 61 c 1
 192 89 230 100 269 100 c 0
 291 100 299 99 322 91 c 0
 367 76 397 70 424 70 c 0
 455 70 476 77 518 101 c 1
 543 31 l 1
 500 -4 449 -23 401 -23 c 0xa4
 365 -23 329 -14 262 12 c 0
 242 19 222 23 199 23 c 0
 162 23 127 12 81 -14 c 1
 44 52 l 1
 161 129 218 200 218 271 c 0x74
 218 286 217 292 208 321 c 1
 95 321 l 1
 107 376 l 1
 190 376 l 1
 188 382 185 390 181 398 c 0
 164 438 160 455 160 480 c 0
 160 610 295 729 442 729 c 0
 553 729 628 669 628 579 c 0
 628 557 626 539 619 497 c 1
 531 497 l 1
 538 523 540 536 540 554 c 0
 540 614 495 652 424 652 c 0
 329 652 256 582 256 492 c 0
 256 466 256 466 278 404 c 0
 279 403 283 389 287 376 c 1
 447 376 l 1x7a
EndSplineSet
EndChar

StartChar: currency
Encoding: 168 164 102
Width: 556
Flags: MW
HStem: 160 77<299.5 328.5> 448 77<368 394>
VStem: 156 79<298.5 316.5> 458 79<357.5 387.5>
LayerCount: 2
Fore
SplineSet
526 191 m 1
 456 137 l 1
 414 190 l 1
 386 171 348 160 309 160 c 0
 270 160 238 169 219 185 c 1
 154 133 l 1
 110 191 l 1
 170 240 l 1
 161 257 156 281 156 305 c 0
 156 328 161 354 171 378 c 0
 180 400 180 400 211 441 c 2
 214 445 l 1
 172 500 l 1
 238 556 l 1
 283 498 l 1
 310 514 351 525 385 525 c 0
 422 525 458 514 478 496 c 1
 546 552 l 1
 593 494 l 1
 524 438 l 1
 533 422 537 406 537 381 c 0
 537 334 513 274 483 245 c 1
 526 191 l 1
369 448 m 0
 300 448 235 388 235 323 c 0
 235 274 274 237 325 237 c 0
 394 237 458 299 458 364 c 0
 458 411 419 448 369 448 c 0
EndSplineSet
EndChar

StartChar: yen
Encoding: 165 165 99
Width: 556
Flags: MW
HStem: 0 20 175 51<111 274 100 285 373 535> 303 51<138 292 138 302 127 292 419 562>
LayerCount: 2
Fore
SplineSet
573 354 m 1
 562 303 l 1
 390 303 l 1
 373 226 l 1
 545 226 l 1
 535 175 l 1
 362 175 l 1
 325 0 l 1
 237 0 l 1
 274 175 l 1
 100 175 l 1
 111 226 l 1
 285 226 l 1
 302 303 l 1
 127 303 l 1
 138 354 l 1
 292 354 l 1
 162 709 l 1
 247 709 l 1
 363 387 l 1
 611 709 l 1
 696 709 l 1
 419 354 l 1
 573 354 l 1
EndSplineSet
EndChar

StartChar: brokenbar
Encoding: 420 166 313
Width: 260
Flags: MW
HStem: 709 20<255 315 315 315>
LayerCount: 2
Fore
SplineSet
255 729 m 1
 315 729 l 1
 229 328 l 1
 169 328 l 1
 255 729 l 1
140 189 m 1
 200 189 l 1
 114 -212 l 1
 54 -212 l 1
 140 189 l 1
EndSplineSet
EndChar

StartChar: section
Encoding: 167 167 101
Width: 556
Flags: W
HStem: -213 77<213 257> 652 77<390 443>
VStem: 63 88<-81.5 -64.5> 104 88<293 294.5> 221 92<541.5 579 541.5 589> 350 92<-36.5 -19.5> 471 88<245 246> 501 88<583.5 598.5>
LayerCount: 2
Fore
SplineSet
575 524 m 1xdd
 491 524 l 1
 498 544 501 559 501 575 c 0xd1
 501 622 468 652 418 652 c 0
 362 652 313 605 313 553 c 0
 313 530 321 518 355 491 c 2
 482 390 l 2
 516 363 525 354 535 342 c 1
 551 320 559 295 559 267 c 0
 559 223 537 166 507 131 c 0
 484 104 452 84 412 71 c 1
 434 41 442 18 442 -16 c 0
 442 -57 422 -104 387 -142 c 1
 348 -187 289 -213 225 -213 c 0
 127 -213 63 -158 63 -75 c 0
 63 -54 66 -41 74 -14 c 1
 159 -14 l 1
 153 -35 151 -46 151 -59 c 0xee
 151 -104 188 -136 238 -136 c 0
 299 -136 350 -89 350 -34 c 0
 350 -5 340 14 312 38 c 2
 167 162 l 2
 121 201 104 232 104 274 c 0
 104 315 124 365 152 397 c 0
 175 423 187 431 247 463 c 1
 229 486 221 510 221 540 c 0
 221 638 324 729 436 729 c 0
 526 729 589 673 589 594 c 0
 589 573 588 569 577 533 c 0
 577 532 576 529 575 524 c 1xdd
236 229 m 2
 374 108 l 1
 438 141 471 183 471 231 c 0xc2
 471 261 450 296 418 322 c 2
 287 428 l 1
 217 388 192 357 192 309 c 0
 192 277 202 258 236 229 c 2
EndSplineSet
EndChar

StartChar: dieresis
Encoding: 200 168 130
Width: 333
Flags: MW
HStem: 612 103<181 263 159 285 181 320 342 424>
LayerCount: 2
Fore
SplineSet
285 715 m 1
 263 612 l 1
 159 612 l 1
 181 715 l 1
 285 715 l 1
446 715 m 1
 424 612 l 1
 320 612 l 1
 342 715 l 1
 446 715 l 1
EndSplineSet
EndChar

StartChar: copyright
Encoding: 409 169 302
Width: 737
Flags: MW
HStem: -22 62<303 476 303 484> 126 62<387.5 429.5> 530 62<469 514> 680 62<415 588>
VStem: 55 70<220 393 220 400.5> 249 72<267.5 327.5 267.5 329.5> 766 70<327.5 500.5>
LayerCount: 2
Fore
SplineSet
637 437 m 1
 566 437 l 1
 563 503 540 530 488 530 c 0
 440 530 398 504 366 456 c 0
 338 413 321 354 321 301 c 0
 321 234 359 188 416 188 c 0
 471 188 517 231 547 312 c 1
 618 312 l 1
 594 251 578 224 552 196 c 0
 509 149 459 126 400 126 c 0
 306 126 249 189 249 292 c 0
 249 367 278 448 326 506 c 1
 374 562 435 592 503 592 c 0
 593 592 635 543 637 437 c 1
530 742 m 0
 707 742 836 614 836 440 c 0
 836 200 607 -22 361 -22 c 0
 184 -22 55 106 55 281 c 0
 55 520 284 742 530 742 c 0
516 680 m 0
 314 680 125 493 125 293 c 0
 125 147 231 40 375 40 c 0
 577 40 766 227 766 428 c 0
 766 573 660 680 516 680 c 0
EndSplineSet
EndChar

StartChar: ordfeminine
Encoding: 227 170 138
Width: 370
Flags: MW
HStem: 303 51<118 395 107 406> 399 50<231.5 251.5> 691 51<311 331>
VStem: 136 60<473.5 494.5 473.5 497.5>
LayerCount: 2
Fore
SplineSet
406 354 m 1
 395 303 l 1
 107 303 l 1
 118 354 l 1
 406 354 l 1
432 449 m 1
 423 405 l 1
 418 404 414 403 413 403 c 0
 396 399 394 399 387 399 c 0
 359 399 343 414 340 442 c 1
 310 414 272 399 231 399 c 0
 170 399 136 428 136 479 c 0
 136 516 154 548 186 568 c 0
 215 586 241 592 320 600 c 0
 364 605 371 608 378 633 c 2
 380 641 l 2
 381 646 382 651 382 656 c 0
 382 664 381 667 371 679 c 0
 365 685 342 691 320 691 c 0
 296 691 270 682 259 669 c 0
 249 658 245 650 240 634 c 1
 184 634 l 1
 196 677 202 690 218 705 c 0
 243 729 285 742 337 742 c 0
 401 742 441 717 441 676 c 0
 441 669 441 661 440 658 c 2
 399 468 l 2
 398 465 398 463 398 461 c 0
 398 454 406 447 415 447 c 0
 417 447 420 447 424 448 c 2
 432 449 l 1
353 515 m 2
 363 566 l 1
 346 560 336 558 312 555 c 0
 255 547 242 544 224 533 c 0
 208 523 196 503 196 486 c 0
 196 461 214 449 249 449 c 0
 294 449 347 483 353 515 c 2
EndSplineSet
EndChar

StartChar: guillemotleft
Encoding: 171 171 105
Width: 556
Flags: W
LayerCount: 2
Fore
SplineSet
147 227 m 1
 166 316 l 1
 343 438 l 1
 325 355 l 1
 204 271 l 1
 290 188 l 1
 272 106 l 1
 147 227 l 1
352 227 m 1
 371 316 l 1
 548 438 l 1
 530 355 l 1
 409 271 l 1
 495 188 l 1
 477 106 l 1
 352 227 l 1
EndSplineSet
EndChar

StartChar: logicalnot
Encoding: 417 172 310
Width: 584
Flags: MW
HStem: 305 72<114 534 99 619>
LayerCount: 2
Fore
SplineSet
114 377 m 1
 619 377 l 1
 558 86 l 1
 488 86 l 1
 534 305 l 1
 99 305 l 1
 114 377 l 1
EndSplineSet
EndChar

StartChar: registered
Encoding: 410 174 303
Width: 737
Flags: W
HStem: -22 62<303 476 303 484> 325 63<341 484 355 475> 522 63<383 512 383 383> 680 62<415 588>
VStem: 55 70<220 393 220 400.5> 510 75<163 199.5> 529 71<280.5 317.5> 575 76<483 492.5> 766 70<327.5 500.5>
LayerCount: 2
Fore
SplineSet
341 325 m 1xf2
 302 140 l 1
 232 140 l 1
 326 585 l 1
 532 585 l 2
 613 585 651 557 651 496 c 0xf980
 651 470 644 440 633 418 c 0
 621 395 606 381 571 360 c 1
 594 342 600 331 600 304 c 0xf2
 600 294 598 277 592 248 c 1
 587 216 585 205 585 194 c 0
 585 180 588 173 597 165 c 1
 592 140 l 1
 514 140 l 1
 511 152 510 158 510 168 c 0xf4
 510 194 511 197 525 253 c 0
 527 264 529 276 529 285 c 0
 529 312 511 325 475 325 c 2
 341 325 l 1xf2
355 388 m 1
 484 388 l 2
 519 388 540 396 556 416 c 0
 567 431 575 455 575 476 c 0
 575 509 556 522 512 522 c 2
 383 522 l 1
 355 388 l 1
530 742 m 0
 707 742 836 614 836 440 c 0
 836 200 607 -22 361 -22 c 0
 184 -22 55 106 55 281 c 0
 55 520 284 742 530 742 c 0
516 680 m 0
 314 680 125 493 125 293 c 0
 125 147 231 40 375 40 c 0
 577 40 766 227 766 428 c 0
 766 573 660 680 516 680 c 0
EndSplineSet
EndChar

StartChar: macron
Encoding: 197 175 127
Width: 333
Flags: MW
HStem: 627 69<175 435 160 450>
LayerCount: 2
Fore
SplineSet
450 696 m 1
 435 627 l 1
 160 627 l 1
 175 696 l 1
 450 696 l 1
EndSplineSet
EndChar

StartChar: degree
Encoding: 399 176 292
Width: 606
Flags: MW
HStem: 383 43<412.5 471 412.5 483.5> 643 43<413.5 472>
VStem: 291 45<505.5 564.5 505.5 576.5> 549 45<504.5 564.5>
LayerCount: 2
Fore
SplineSet
442 686 m 0
 526 686 594 618 594 535 c 0
 594 450 526 383 441 383 c 0
 359 383 291 452 291 535 c 0
 291 618 359 686 442 686 c 0
443 643 m 0
 384 643 336 594 336 535 c 0
 336 476 384 426 441 426 c 0
 501 426 549 474 549 535 c 0
 549 594 501 643 443 643 c 0
EndSplineSet
EndChar

StartChar: plusminus
Encoding: 404 177 297
Width: 584
Flags: MW
HStem: 0 72<65 534 50 549> 357 72<141 333 126 348 418 610 141 403>
LayerCount: 2
Fore
SplineSet
625 429 m 1
 610 357 l 1
 403 357 l 1
 359 149 l 1
 288 149 l 1
 333 357 l 1
 126 357 l 1
 141 429 l 1
 348 429 l 1
 391 633 l 1
 462 633 l 1
 418 429 l 1
 625 429 l 1
549 72 m 1
 534 0 l 1
 50 0 l 1
 65 72 l 1
 549 72 l 1
EndSplineSet
EndChar

StartChar: twosuperior
Encoding: 397 178 290
Width: 390
Flags: MW
HStem: 284 60<181 400> 654 55<307 355.5>
VStem: 403 65<576.5 612>
LayerCount: 2
Fore
SplineSet
412 344 m 1
 400 284 l 1
 100 284 l 1
 128 385 155 416 265 472 c 1
 328 503 l 1
 375 525 403 559 403 594 c 0
 403 630 376 654 335 654 c 0
 279 654 247 624 230 555 c 1
 167 555 l 1
 191 662 246 709 345 709 c 0
 420 709 468 668 468 603 c 0
 468 543 427 493 344 452 c 2
 276 419 l 2
 222 392 200 375 181 344 c 1
 412 344 l 1
EndSplineSet
EndChar

StartChar: threesuperior
Encoding: 398 179 291
Width: 390
Flags: W
HStem: 270 55<235.5 288.5 235.5 299> 654 55<312 347>
VStem: 123 65<364 378> 365 65<395 441> 390 65<592.5 621>
LayerCount: 2
Fore
SplineSet
256 474 m 1xf0
 267 527 l 1
 279 527 l 1
 283 527 l 2
 356 527 390 552 390 606 c 0
 390 636 366 654 328 654 c 0
 296 654 269 642 252 619 c 0
 243 608 238 596 231 565 c 1
 168 565 l 1
 181 613 191 636 211 657 c 0
 242 691 286 709 338 709 c 0
 409 709 455 673 455 618 c 0xc8
 455 567 436 535 386 504 c 1
 417 489 430 467 430 434 c 0
 430 340 351 270 247 270 c 0
 167 270 123 307 123 373 c 0
 123 383 124 392 126 414 c 1
 190 414 l 1
 189 402 l 2
 188 393 188 387 188 381 c 0
 188 347 215 325 256 325 c 0
 321 325 365 365 365 425 c 0
 365 457 336 475 287 475 c 0
 280 475 272 475 256 474 c 1xf0
EndSplineSet
EndChar

StartChar: acute
Encoding: 194 180 124
Width: 333
Flags: MW
HStem: 720 20<346 458 458 458>
LayerCount: 2
Fore
SplineSet
346 740 m 1
 458 740 l 1
 278 592 l 1
 218 592 l 1
 346 740 l 1
EndSplineSet
EndChar

StartChar: paragraph
Encoding: 182 182 114
Width: 537
Flags: MW
HStem: 665 64<460 543 460 460 607 663 607 607>
LayerCount: 2
Fore
SplineSet
677 729 m 1
 663 665 l 1
 607 665 l 1
 428 -178 l 1
 364 -178 l 1
 543 665 l 1
 460 665 l 1
 281 -178 l 1
 217 -178 l 1
 310 259 l 1
 207 262 145 329 145 436 c 0
 145 588 281 729 427 729 c 2
 677 729 l 1
EndSplineSet
EndChar

StartChar: periodcentered
Encoding: 180 183 113
Width: 278
Flags: MW
HStem: 192 103<188 271 166 293>
LayerCount: 2
Fore
SplineSet
293 295 m 1
 271 192 l 1
 166 192 l 1
 188 295 l 1
 293 295 l 1
EndSplineSet
EndChar

StartChar: cedilla
Encoding: 203 184 132
Width: 333
Flags: MW
HStem: -214 43<109 141.5 109 161>
VStem: 186 78<-132 -110>
LayerCount: 2
Fore
SplineSet
165 0 m 1
 206 0 l 1
 176 -56 l 1
 189 -54 193 -54 197 -54 c 0
 234 -54 264 -77 264 -105 c 0
 264 -168 203 -214 119 -214 c 0
 81 -214 52 -206 1 -180 c 1
 29 -142 l 1
 70 -163 95 -171 123 -171 c 0
 160 -171 186 -148 186 -116 c 0
 186 -104 172 -94 155 -94 c 0
 151 -94 151 -94 135 -97 c 2
 128 -98 l 1
 115 -92 l 1
 165 0 l 1
EndSplineSet
EndChar

StartChar: onesuperior
Encoding: 396 185 289
Width: 390
Flags: W
LayerCount: 2
Fore
SplineSet
302 580 m 1
 205 580 l 1
 215 626 l 1
 306 638 316 644 349 709 c 1
 393 709 l 1
 303 284 l 1
 239 284 l 1
 302 580 l 1
EndSplineSet
EndChar

StartChar: ordmasculine
Encoding: 235 186 142
Width: 365
Flags: MW
HStem: 303 51<125 377 114 388> 399 52<255 291.5> 690 52<308.5 347>
VStem: 149 60<501.5 537> 392 60<601.5 639.5>
LayerCount: 2
Fore
SplineSet
388 354 m 1
 377 303 l 1
 114 303 l 1
 125 354 l 1
 388 354 l 1
336 742 m 0
 369 742 399 732 417 716 c 0
 437 697 452 660 452 627 c 0
 452 576 431 508 404 470 c 0
 370 424 321 399 262 399 c 0
 195 399 149 444 149 509 c 0
 149 565 169 635 197 672 c 0
 229 716 281 742 336 742 c 0
327 690 m 0
 261 690 209 618 209 525 c 0
 209 478 234 451 276 451 c 0
 341 451 392 524 392 617 c 0
 392 662 367 690 327 690 c 0
EndSplineSet
EndChar

StartChar: guillemotright
Encoding: 187 187 119
Width: 556
Flags: W
LayerCount: 2
Fore
SplineSet
319 317 m 1
 300 228 l 1
 121 106 l 1
 139 189 l 1
 262 273 l 1
 174 356 l 1
 192 438 l 1
 319 317 l 1
518 317 m 1
 499 228 l 1
 320 106 l 1
 338 189 l 1
 461 273 l 1
 373 356 l 1
 391 438 l 1
 518 317 l 1
EndSplineSet
EndChar

StartChar: onequarter
Encoding: 406 188 299
Width: 947
Flags: MW
HStem: -20 20 100 55<688 798 688 861 873 926>
LayerCount: 2
Fore
SplineSet
302 580 m 1
 205 580 l 1
 215 626 l 1
 306 638 316 644 349 709 c 1
 393 709 l 1
 303 284 l 1
 239 284 l 1
 302 580 l 1
818 709 m 1
 876 709 l 1
 270 -20 l 1
 212 -20 l 1
 818 709 l 1
798 100 m 1
 614 100 l 1
 627 160 l 1
 883 425 l 1
 930 425 l 1
 873 155 l 1
 938 155 l 1
 926 100 l 1
 861 100 l 1
 840 0 l 1
 777 0 l 1
 798 100 l 1
810 155 m 1
 844 316 l 1
 688 155 l 1
 810 155 l 1
EndSplineSet
EndChar

StartChar: onehalf
Encoding: 405 189 298
Width: 947
Flags: MW
HStem: -20 20 0 60<678 897> 370 55<804 852.5>
VStem: 900 65<292.5 328>
LayerCount: 2
Fore
SplineSet
302 580 m 1xf0
 205 580 l 1
 215 626 l 1
 306 638 316 644 349 709 c 1
 393 709 l 1
 303 284 l 1
 239 284 l 1
 302 580 l 1xf0
808 709 m 1
 866 709 l 1
 260 -20 l 1
 202 -20 l 1
 808 709 l 1
909 60 m 1
 897 0 l 1
 597 0 l 1
 625 101 652 132 762 188 c 1
 825 219 l 1
 872 241 900 275 900 310 c 0
 900 346 873 370 832 370 c 0
 776 370 744 340 727 271 c 1
 664 271 l 1
 688 378 743 425 842 425 c 0
 917 425 965 384 965 319 c 0
 965 259 924 209 841 168 c 2
 773 135 l 2
 719 108 697 91 678 60 c 1
 909 60 l 1
EndSplineSet
EndChar

StartChar: questiondown
Encoding: 191 191 122
Width: 611
Flags: MW
HStem: -217 77<255.5 332 255.5 338> 421 103<364 476 386 454>
VStem: 86 95<-79.5 -49>
LayerCount: 2
Fore
SplineSet
344 325 m 1
 434 325 l 1
 422 270 l 2
 408 209 390 187 285 107 c 1
 213 50 181 1 181 -53 c 0
 181 -106 223 -140 288 -140 c 0
 376 -140 424 -92 446 17 c 1
 531 17 l 1
 500 -138 410 -217 266 -217 c 0
 199 -217 154 -200 121 -162 c 0
 99 -137 86 -104 86 -72 c 0
 86 -26 105 26 137 68 c 0
 157 94 182 117 230 154 c 1
 304 209 320 228 334 278 c 1
 344 325 l 1
364 421 m 1
 386 524 l 1
 476 524 l 1
 454 421 l 1
 364 421 l 1
EndSplineSet
EndChar

StartChar: Agrave
Encoding: 258 192 151
Width: 667
Flags: MW
HStem: 0 20 219 78<283 514 283 524 239 514> 709 20<432 552 552 552>
LayerCount: 2
Fore
SplineSet
524 219 m 1
 239 219 l 1
 116 0 l 1
 17 0 l 1
 432 729 l 1
 552 729 l 1
 653 0 l 1
 551 0 l 1
 524 219 l 1
514 297 m 1
 474 630 l 1
 283 297 l 1
 514 297 l 1
483 939 m 1
 555 791 l 1
 502 791 l 1
 377 939 l 1
 483 939 l 1
EndSplineSet
EndChar

StartChar: Aacute
Encoding: 257 193 150
Width: 667
Flags: MW
HStem: 0 20 219 78<283 514 283 524 239 514> 709 20<432 552 552 552>
LayerCount: 2
Fore
SplineSet
524 219 m 1
 239 219 l 1
 116 0 l 1
 17 0 l 1
 432 729 l 1
 552 729 l 1
 653 0 l 1
 551 0 l 1
 524 219 l 1
514 297 m 1
 474 630 l 1
 283 297 l 1
 514 297 l 1
555 939 m 1
 667 939 l 1
 487 791 l 1
 427 791 l 1
 555 939 l 1
EndSplineSet
EndChar

StartChar: Acircumflex
Encoding: 259 194 152
Width: 667
Flags: MW
HStem: 0 20 219 78<283 514 283 524 239 514> 709 20<432 552 552 552>
LayerCount: 2
Fore
SplineSet
524 219 m 1
 239 219 l 1
 116 0 l 1
 17 0 l 1
 432 729 l 1
 552 729 l 1
 653 0 l 1
 551 0 l 1
 524 219 l 1
514 297 m 1
 474 630 l 1
 283 297 l 1
 514 297 l 1
486 940 m 1
 581 940 l 1
 645 790 l 1
 582 790 l 1
 526 889 l 1
 422 790 l 1
 358 790 l 1
 486 940 l 1
EndSplineSet
EndChar

StartChar: Atilde
Encoding: 261 195 154
Width: 667
Flags: W
HStem: 0 20 219 78<283 514 283 524 239 514> 709 20<432 552 552 552> 811 70<574 589 574 594.5> 843 70<432.5 445>
LayerCount: 2
Fore
SplineSet
524 219 m 1xe0
 239 219 l 1
 116 0 l 1
 17 0 l 1
 432 729 l 1
 552 729 l 1
 653 0 l 1
 551 0 l 1
 524 219 l 1xe0
514 297 m 1
 474 630 l 1
 283 297 l 1
 514 297 l 1
627 918 m 1x10
 680 918 l 1
 659 853 617 811 572 811 c 0x10
 550 811 533 815 469 837 c 0
 458 841 448 843 442 843 c 0
 423 843 411 837 399 819 c 0
 397 817 395 814 392 810 c 1
 339 810 l 1
 351 845 359 862 371 877 c 0
 387 898 418 913 443 913 c 0x08
 460 913 477 909 516 896 c 0
 542 887 569 881 579 881 c 0
 599 881 609 889 627 918 c 1x10
EndSplineSet
EndChar

StartChar: Adieresis
Encoding: 256 196 149
Width: 667
Flags: MW
HStem: 0 20 219 78<283 514 283 524 239 514> 709 20<432 552 552 552> 811 103<397 479 375 501 397 536 558 640>
LayerCount: 2
Fore
SplineSet
524 219 m 1
 239 219 l 1
 116 0 l 1
 17 0 l 1
 432 729 l 1
 552 729 l 1
 653 0 l 1
 551 0 l 1
 524 219 l 1
514 297 m 1
 474 630 l 1
 283 297 l 1
 514 297 l 1
501 914 m 1
 479 811 l 1
 375 811 l 1
 397 914 l 1
 501 914 l 1
662 914 m 1
 640 811 l 1
 536 811 l 1
 558 914 l 1
 662 914 l 1
EndSplineSet
EndChar

StartChar: Aring
Encoding: 262 197 155
Width: 667
Flags: MW
HStem: 0 20 219 78<283 514 283 524 239 514> 709 20<432 552 552 552> 778 44<496 519.5 496 524.5> 909 44<512 535.5>
VStem: 17 46 152 45
LayerCount: 2
Fore
SplineSet
524 219 m 1
 239 219 l 1
 116 0 l 1
 17 0 l 1
 432 729 l 1
 552 729 l 1
 653 0 l 1
 551 0 l 1
 524 219 l 1
514 297 m 1
 474 630 l 1
 283 297 l 1
 514 297 l 1
533 953 m 0
 574 953 605 924 605 886 c 0
 605 830 553 778 496 778 c 0
 456 778 425 809 425 848 c 0
 425 901 479 953 533 953 c 0
526 909 m 0
 498 909 471 883 471 857 c 0
 471 836 486 822 506 822 c 0
 533 822 560 848 560 874 c 0
 560 894 545 909 526 909 c 0
EndSplineSet
EndChar

StartChar: AE
Encoding: 225 198 137
Width: 1000
Flags: MW
HStem: 0 82<579 950> 214 81<293 513 244 531> 332 82<650 983 632 1001> 647 82<505 605 505 505 699 1070 699 699>
LayerCount: 2
Fore
SplineSet
513 214 m 1
 244 214 l 1
 114 0 l 1
 11 0 l 1
 465 729 l 1
 1087 729 l 1
 1070 647 l 1
 699 647 l 1
 650 414 l 1
 1001 414 l 1
 983 332 l 1
 632 332 l 1
 579 82 l 1
 967 82 l 1
 950 0 l 1
 468 0 l 1
 513 214 l 1
531 295 m 1
 605 647 l 1
 505 647 l 1
 293 295 l 1
 531 295 l 1
EndSplineSet
EndChar

StartChar: Ccedilla
Encoding: 264 199 157
Width: 722
Flags: MW
HStem: -214 43<284 316.5 284 336> -94 152<329 338.5> 660 81<473.5 565.5>
VStem: 112 96<199.5 304.5> 361 78<-132 -110>
LayerCount: 2
Fore
SplineSet
368 -23 m 1
 351 -56 l 1
 364 -54 367 -54 372 -54 c 0
 409 -54 439 -77 439 -105 c 0
 439 -168 378 -214 294 -214 c 0
 256 -214 227 -206 176 -180 c 1
 204 -142 l 1
 244 -163 270 -171 298 -171 c 0
 335 -171 361 -148 361 -116 c 0
 361 -104 347 -94 330 -94 c 0
 325 -94 325 -94 310 -97 c 2
 303 -98 l 1
 290 -92 l 1
 328 -21 l 1
 261 -11 232 1 197 32 c 0
 142 81 112 156 112 242 c 0
 112 367 161 505 240 600 c 0
 318 694 415 741 532 741 c 0
 626 741 697 704 738 634 c 0
 757 600 767 562 770 503 c 1
 674 503 l 1
 666 611 616 660 515 660 c 0
 423 660 350 617 289 527 c 0
 238 451 208 351 208 260 c 0
 208 139 277 58 381 58 c 0
 460 58 536 95 578 155 c 0
 596 179 612 209 637 266 c 1
 735 266 l 1
 656 68 542 -21 368 -23 c 1
EndSplineSet
EndChar

StartChar: Egrave
Encoding: 270 200 163
Width: 667
Flags: MW
HStem: 0 82<201 613> 332 82<255 668 272 650> 647 82<322 734 322 322>
LayerCount: 2
Fore
SplineSet
255 332 m 1
 201 82 l 1
 630 82 l 1
 613 0 l 1
 90 0 l 1
 245 729 l 1
 751 729 l 1
 734 647 l 1
 322 647 l 1
 272 414 l 1
 668 414 l 1
 650 332 l 1
 255 332 l 1
495 939 m 1
 567 791 l 1
 514 791 l 1
 389 939 l 1
 495 939 l 1
EndSplineSet
EndChar

StartChar: Ecircumflex
Encoding: 271 202 164
Width: 667
Flags: MW
HStem: 0 82<201 613> 332 82<255 668 272 650> 647 82<322 734 322 322>
LayerCount: 2
Fore
SplineSet
255 332 m 1
 201 82 l 1
 630 82 l 1
 613 0 l 1
 90 0 l 1
 245 729 l 1
 751 729 l 1
 734 647 l 1
 322 647 l 1
 272 414 l 1
 668 414 l 1
 650 332 l 1
 255 332 l 1
495 940 m 1
 590 940 l 1
 654 790 l 1
 591 790 l 1
 535 889 l 1
 431 790 l 1
 367 790 l 1
 495 940 l 1
EndSplineSet
EndChar

StartChar: Edieresis
Encoding: 268 203 161
Width: 667
Flags: MW
HStem: 0 82<201 613> 332 82<255 668 272 650> 647 82<322 734 322 322> 811 103<401 483 379 505 401 540 562 644>
LayerCount: 2
Fore
SplineSet
255 332 m 1
 201 82 l 1
 630 82 l 1
 613 0 l 1
 90 0 l 1
 245 729 l 1
 751 729 l 1
 734 647 l 1
 322 647 l 1
 272 414 l 1
 668 414 l 1
 650 332 l 1
 255 332 l 1
505 914 m 1
 483 811 l 1
 379 811 l 1
 401 914 l 1
 505 914 l 1
666 914 m 1
 644 811 l 1
 540 811 l 1
 562 914 l 1
 666 914 l 1
EndSplineSet
EndChar

StartChar: Igrave
Encoding: 278 204 171
Width: 278
Flags: MW
HStem: 0 20 709 20<255 349 349 349>
LayerCount: 2
Fore
SplineSet
349 729 m 1
 194 0 l 1
 100 0 l 1
 255 729 l 1
 349 729 l 1
306 939 m 1
 378 791 l 1
 325 791 l 1
 200 939 l 1
 306 939 l 1
EndSplineSet
EndChar

StartChar: Iacute
Encoding: 277 205 170
Width: 278
Flags: MW
HStem: 0 20 709 20<255 349 349 349>
LayerCount: 2
Fore
SplineSet
349 729 m 1
 194 0 l 1
 100 0 l 1
 255 729 l 1
 349 729 l 1
367 939 m 1
 479 939 l 1
 299 791 l 1
 239 791 l 1
 367 939 l 1
EndSplineSet
EndChar

StartChar: Icircumflex
Encoding: 279 206 172
Width: 278
Flags: MW
HStem: 0 20 709 20<255 349 349 349>
LayerCount: 2
Fore
SplineSet
349 729 m 1
 194 0 l 1
 100 0 l 1
 255 729 l 1
 349 729 l 1
295 940 m 1
 390 940 l 1
 454 790 l 1
 391 790 l 1
 335 889 l 1
 231 790 l 1
 167 790 l 1
 295 940 l 1
EndSplineSet
EndChar

StartChar: Idieresis
Encoding: 276 207 169
Width: 278
Flags: MW
HStem: 0 20 709 20<255 349 349 349> 811 103
LayerCount: 2
Fore
SplineSet
349 729 m 1
 194 0 l 1
 100 0 l 1
 255 729 l 1
 349 729 l 1
306 907 m 1
 284 804 l 1
 180 804 l 1
 202 907 l 1
 306 907 l 1
467 907 m 1
 445 804 l 1
 341 804 l 1
 363 907 l 1
 467 907 l 1
EndSplineSet
EndChar

StartChar: Ntilde
Encoding: 285 209 178
Width: 722
Flags: W
HStem: 0 20 709 20<231 335 335 335 712 801 801 801> 811 70<616 631 616 636.5> 843 70<474.5 487>
LayerCount: 2
Fore
SplineSet
801 729 m 1xc0
 646 0 l 1
 540 0 l 1
 291 591 l 1
 165 0 l 1
 76 0 l 1
 231 729 l 1
 335 729 l 1
 585 131 l 1
 712 729 l 1
 801 729 l 1xc0
669 918 m 1x20
 722 918 l 1
 701 853 659 811 614 811 c 0x20
 592 811 575 815 511 837 c 0
 500 841 490 843 484 843 c 0
 465 843 453 837 441 819 c 0
 439 817 437 814 434 810 c 1
 381 810 l 1
 393 845 401 862 413 877 c 0
 429 898 460 913 485 913 c 0x10
 502 913 519 909 558 896 c 0
 584 887 611 881 621 881 c 0
 641 881 651 889 669 918 c 1x20
EndSplineSet
EndChar

StartChar: Otilde
Encoding: 290 213 183
Width: 778
Flags: W
HStem: -23 81<371.5 438> 660 81<480.5 559> 811 70<641 656 641 661.5> 843 70<499.5 512>
VStem: 104 96<242 317 242 326.5> 732 96<400.5 475.5>
LayerCount: 2
Fore
SplineSet
537 741 m 0xcc
 628 741 707 713 756 664 c 0
 800 619 828 543 828 464 c 0
 828 306 752 144 635 54 c 0
 570 4 485 -23 391 -23 c 0
 306 -23 225 6 177 54 c 0
 131 100 104 177 104 263 c 0
 104 390 157 522 246 614 c 0
 327 699 424 741 537 741 c 0xcc
525 660 m 0
 431 660 342 613 284 533 c 0
 231 460 200 363 200 271 c 0
 200 213 214 164 241 130 c 0
 276 86 339 58 404 58 c 0
 501 58 589 104 647 185 c 1
 700 257 732 355 732 446 c 0
 732 505 718 553 691 588 c 0
 657 632 593 660 525 660 c 0
694 918 m 1x2c
 747 918 l 1
 726 853 684 811 639 811 c 0x2c
 617 811 600 815 536 837 c 0
 525 841 515 843 509 843 c 0
 490 843 478 837 466 819 c 0
 464 817 462 814 459 810 c 1
 406 810 l 1
 418 845 426 862 438 877 c 0
 454 898 485 913 510 913 c 0x1c
 527 913 544 909 583 896 c 0
 609 887 636 881 646 881 c 0
 666 881 676 889 694 918 c 1x2c
EndSplineSet
EndChar

StartChar: Odieresis
Encoding: 286 214 179
Width: 778
Flags: MW
HStem: -23 81<371.5 438> 660 81<480.5 559> 811 103<446 528 424 550 446 585 607 689>
VStem: 104 96<242 317 242 326.5> 732 96<400.5 475.5>
LayerCount: 2
Fore
SplineSet
537 741 m 0
 628 741 707 713 756 664 c 0
 800 619 828 543 828 464 c 0
 828 306 752 144 635 54 c 0
 570 4 485 -23 391 -23 c 0
 306 -23 225 6 177 54 c 0
 131 100 104 177 104 263 c 0
 104 390 157 522 246 614 c 0
 327 699 424 741 537 741 c 0
525 660 m 0
 431 660 342 613 284 533 c 0
 231 460 200 363 200 271 c 0
 200 213 214 164 241 130 c 0
 276 86 339 58 404 58 c 0
 501 58 589 104 647 185 c 1
 700 257 732 355 732 446 c 0
 732 505 718 553 691 588 c 0
 657 632 593 660 525 660 c 0
550 914 m 1
 528 811 l 1
 424 811 l 1
 446 914 l 1
 550 914 l 1
711 914 m 1
 689 811 l 1
 585 811 l 1
 607 914 l 1
 711 914 l 1
EndSplineSet
EndChar

StartChar: multiply
Encoding: 401 215 294
Width: 584
Flags: W
LayerCount: 2
Fore
SplineSet
529 427 m 1
 568 377 l 1
 390 231 l 1
 507 84 l 1
 446 34 l 1
 330 181 l 1
 152 35 l 1
 113 84 l 1
 291 231 l 1
 176 377 l 1
 236 426 l 1
 351 281 l 1
 529 427 l 1
EndSplineSet
EndChar

StartChar: Oslash
Encoding: 233 216 140
Width: 778
Flags: W
HStem: -23 81<358 422.5> 660 81<463 541.5> 715 20<832 832>
VStem: 88 96<245 329> 716 96<399 464>
LayerCount: 2
Fore
SplineSet
32 15 m 1xb8
 126 100 l 1
 102 141 88 205 88 268 c 0
 88 390 142 522 229 614 c 0
 309 698 407 741 519 741 c 0xd8
 616 741 701 709 745 657 c 1
 832 735 l 1
 867 696 l 1
 775 613 l 1
 800 570 812 519 812 463 c 0
 812 305 734 140 618 54 c 0
 550 4 467 -23 378 -23 c 0
 285 -23 209 5 158 57 c 1
 67 -24 l 1
 32 15 l 1xb8
202 168 m 1
 672 592 l 1
 636 635 575 660 508 660 c 0
 327 660 184 486 184 265 c 0
 184 225 189 198 202 168 c 1
700 546 m 1
 230 123 l 1
 264 83 325 58 391 58 c 0
 484 58 574 106 632 185 c 0
 684 256 716 355 716 443 c 0
 716 485 710 521 700 546 c 1
EndSplineSet
EndChar

StartChar: Ugrave
Encoding: 300 217 193
Width: 722
Flags: MW
HStem: -23 81<333 437.5 333 447>
VStem: 124 96<139 163>
LayerCount: 2
Fore
SplineSet
514 939 m 1
 586 791 l 1
 532 791 l 1
 408 939 l 1
 514 939 l 1
706 729 m 1
 800 729 l 1
 691 217 l 2
 660 71 531 -23 363 -23 c 0
 286 -23 220 -2 179 35 c 0
 147 64 124 114 124 155 c 0
 124 171 131 217 138 251 c 2
 240 729 l 1
 334 729 l 1
 225 217 l 2
 222 202 220 187 220 174 c 0
 220 104 285 58 381 58 c 0
 494 58 576 118 597 217 c 2
 706 729 l 1
EndSplineSet
EndChar

StartChar: Uacute
Encoding: 299 218 192
Width: 722
Flags: MW
HStem: -23 81<333 437.5 333 447>
VStem: 124 96<139 163>
LayerCount: 2
Fore
SplineSet
591 939 m 1
 703 939 l 1
 523 791 l 1
 463 791 l 1
 591 939 l 1
706 729 m 1
 800 729 l 1
 691 217 l 2
 660 71 531 -23 363 -23 c 0
 286 -23 220 -2 179 35 c 0
 147 64 124 114 124 155 c 0
 124 171 131 217 138 251 c 2
 240 729 l 1
 334 729 l 1
 225 217 l 2
 222 202 220 187 220 174 c 0
 220 104 285 58 381 58 c 0
 494 58 576 118 597 217 c 2
 706 729 l 1
EndSplineSet
EndChar

StartChar: Ucircumflex
Encoding: 301 219 194
Width: 722
Flags: MW
HStem: -23 81<333 437.5 333 447>
VStem: 124 96<139 163>
LayerCount: 2
Fore
SplineSet
517 940 m 1
 611 940 l 1
 676 790 l 1
 612 790 l 1
 556 889 l 1
 453 790 l 1
 389 790 l 1
 517 940 l 1
706 729 m 1
 800 729 l 1
 691 217 l 2
 660 71 531 -23 363 -23 c 0
 286 -23 220 -2 179 35 c 0
 147 64 124 114 124 155 c 0
 124 171 131 217 138 251 c 2
 240 729 l 1
 334 729 l 1
 225 217 l 2
 222 202 220 187 220 174 c 0
 220 104 285 58 381 58 c 0
 494 58 576 118 597 217 c 2
 706 729 l 1
EndSplineSet
EndChar

StartChar: Udieresis
Encoding: 298 220 191
Width: 722
Flags: MW
HStem: -23 81<333 437.5 333 447> 811 103<428 509 406 532 428 567 589 670>
VStem: 124 96<139 163>
LayerCount: 2
Fore
SplineSet
532 914 m 1
 509 811 l 1
 406 811 l 1
 428 914 l 1
 532 914 l 1
693 914 m 1
 670 811 l 1
 567 811 l 1
 589 914 l 1
 693 914 l 1
706 729 m 1
 800 729 l 1
 691 217 l 2
 660 71 531 -23 363 -23 c 0
 286 -23 220 -2 179 35 c 0
 147 64 124 114 124 155 c 0
 124 171 131 217 138 251 c 2
 240 729 l 1
 334 729 l 1
 225 217 l 2
 222 202 220 187 220 174 c 0
 220 104 285 58 381 58 c 0
 494 58 576 118 597 217 c 2
 706 729 l 1
EndSplineSet
EndChar

StartChar: Yacute
Encoding: 304 221 197
Width: 667
Flags: MW
HStem: 0 20 709 20<168 280 280 280 705 816 816 816>
LayerCount: 2
Fore
SplineSet
448 286 m 1
 387 0 l 1
 293 0 l 1
 354 286 l 1
 168 729 l 1
 280 729 l 1
 416 372 l 1
 705 729 l 1
 816 729 l 1
 448 286 l 1
564 939 m 1
 676 939 l 1
 496 791 l 1
 436 791 l 1
 564 939 l 1
EndSplineSet
EndChar

StartChar: Thorn
Encoding: 391 222 284
Width: 667
Flags: MW
HStem: 0 20 191 82<226 437 243 437 437 454> 529 82<315 492 297 523> 709 20<246 340 340 340>
VStem: 612 96<414.5 463.5>
LayerCount: 2
Fore
SplineSet
226 191 m 1
 185 0 l 1
 91 0 l 1
 246 729 l 1
 340 729 l 1
 315 611 l 1
 523 611 l 2
 645 611 708 556 708 450 c 0
 708 369 672 293 609 243 c 0
 564 207 517 191 454 191 c 2
 226 191 l 1
243 273 m 1
 437 273 l 2
 501 273 544 292 577 334 c 0
 600 364 612 397 612 432 c 0
 612 495 570 529 492 529 c 2
 297 529 l 1
 243 273 l 1
EndSplineSet
EndChar

StartChar: germandbls
Encoding: 251 223 148
Width: 611
Flags: W
HStem: -23 81<342.5 373> 652 77<443.5 499>
VStem: 531 88<244.5 284> 567 88<542 592>
LayerCount: 2
Fore
SplineSet
376 349 m 1xe0
 394 431 l 1
 492 430 567 488 567 565 c 0
 567 619 530 652 468 652 c 0
 391 652 340 612 324 538 c 2
 210 0 l 1
 126 0 l 1
 240 538 l 2
 254 604 275 639 321 676 c 0
 367 713 414 729 473 729 c 0
 586 729 655 673 655 582 c 0xd0
 655 502 612 437 535 403 c 1
 592 378 619 337 619 278 c 0
 619 211 592 134 552 82 c 0
 497 11 422 -23 324 -23 c 0
 311 -23 306 -22 298 -19 c 1
 315 59 l 1
 325 59 l 1
 334 58 341 58 344 58 c 0
 448 58 531 144 531 251 c 0
 531 317 491 349 407 349 c 2
 397 349 l 1
 376 349 l 1xe0
EndSplineSet
EndChar

StartChar: agrave
Encoding: 324 224 217
Width: 556
Flags: MW
HStem: -23 72<213.5 226.5> 462 77<350.5 402> 720 20<285 391 391 391>
VStem: 65 88<94 131.5 94 134> 478 90<396 460>
LayerCount: 2
Fore
SplineSet
552 51 m 1
 539 -14 l 1
 533 -15 527 -16 525 -17 c 0
 500 -23 497 -23 486 -23 c 0
 438 -23 410 2 410 43 c 2
 410 47 l 1
 410 54 l 1
 369 18 354 8 322 -3 c 0
 286 -16 244 -23 209 -23 c 0
 119 -23 65 25 65 105 c 0
 65 163 95 216 147 249 c 0
 196 280 238 290 372 302 c 0
 445 309 464 320 473 361 c 1
 476 379 l 2
 477 387 478 394 478 398 c 0
 478 435 432 462 372 462 c 0
 329 462 287 447 265 425 c 0
 251 411 244 397 235 369 c 1
 151 369 l 1
 170 480 255 539 394 539 c 0
 499 539 568 494 568 426 c 0
 568 416 568 416 562 389 c 2
 498 88 l 2
 497 85 497 82 497 78 c 0
 497 58 509 49 535 49 c 0
 539 49 543 49 552 51 c 1
431 164 m 2
 451 258 l 1
 407 243 399 242 305 229 c 0
 256 222 226 214 202 199 c 0
 172 181 153 148 153 115 c 0
 153 73 185 49 242 49 c 0
 330 49 418 102 431 164 c 2
391 740 m 1
 463 592 l 1
 410 592 l 1
 285 740 l 1
 391 740 l 1
EndSplineSet
EndChar

StartChar: atilde
Encoding: 327 227 220
Width: 556
Flags: W
HStem: -23 72<213.5 226.5> 462 77<350.5 402> 612 70<477 492 477 497.5> 644 70<335.5 348>
VStem: 65 88<94 131.5 94 134> 478 90<396 460>
LayerCount: 2
Fore
SplineSet
552 51 m 1xcc
 539 -14 l 1
 533 -15 527 -16 525 -17 c 0
 500 -23 497 -23 486 -23 c 0
 438 -23 410 2 410 43 c 2
 410 47 l 1
 410 54 l 1
 369 18 354 8 322 -3 c 0
 286 -16 244 -23 209 -23 c 0
 119 -23 65 25 65 105 c 0
 65 163 95 216 147 249 c 0
 196 280 238 290 372 302 c 0
 445 309 464 320 473 361 c 1
 476 379 l 2
 477 387 478 394 478 398 c 0
 478 435 432 462 372 462 c 0
 329 462 287 447 265 425 c 0
 251 411 244 397 235 369 c 1
 151 369 l 1
 170 480 255 539 394 539 c 0
 499 539 568 494 568 426 c 0
 568 416 568 416 562 389 c 2
 498 88 l 2
 497 85 497 82 497 78 c 0
 497 58 509 49 535 49 c 0
 539 49 543 49 552 51 c 1xcc
431 164 m 2
 451 258 l 1
 407 243 399 242 305 229 c 0
 256 222 226 214 202 199 c 0
 172 181 153 148 153 115 c 0
 153 73 185 49 242 49 c 0
 330 49 418 102 431 164 c 2
530 719 m 1x2c
 583 719 l 1
 562 654 520 612 475 612 c 0x2c
 453 612 436 616 372 638 c 0
 361 642 351 644 345 644 c 0
 326 644 314 638 302 620 c 0
 300 618 298 615 295 611 c 1
 242 611 l 1
 254 646 262 663 274 678 c 0
 290 699 321 714 346 714 c 0x1c
 363 714 380 710 419 697 c 0
 445 688 472 682 482 682 c 0
 502 682 512 690 530 719 c 1x2c
EndSplineSet
EndChar

StartChar: ae
Encoding: 241 230 143
Width: 889
Flags: W
HStem: -23 72<208 244.5> -23 77<614.5 665 614.5 676.5> 234 72<530 824 530 898 512 824> 462 77<345.5 398 694 747.5>
VStem: 59 88<93.5 131.5 93.5 134> 827 88<356 376.5>
LayerCount: 2
Fore
SplineSet
225 369 m 1xbc
 141 369 l 1
 157 427 170 454 194 478 c 0
 235 517 304 539 387 539 c 0
 451 539 486 528 522 499 c 0
 541 483 543 481 546 474 c 1
 591 514 660 539 728 539 c 0
 830 539 915 462 915 370 c 0
 915 342 910 299 901 251 c 2
 898 234 l 1
 512 234 l 1
 508 216 507 204 507 181 c 2
 507 169 l 1
 507 163 l 2
 507 135 524 101 550 79 c 0
 570 62 597 54 632 54 c 0
 698 54 751 90 787 159 c 1
 871 159 l 1
 839 50 737 -23 616 -23 c 0x7c
 536 -23 481 9 442 79 c 1
 375 14 288 -23 201 -23 c 0
 114 -23 59 27 59 105 c 0
 59 163 90 217 141 249 c 1
 191 279 234 289 363 300 c 0
 435 307 453 318 463 361 c 1
 468 386 l 2
 469 393 470 399 470 405 c 0
 470 440 430 462 366 462 c 0
 287 462 246 435 225 369 c 1xbc
421 164 m 2xbc
 441 257 l 1
 404 244 398 243 299 229 c 0
 247 222 220 214 196 199 c 0
 166 180 147 148 147 115 c 0
 147 72 179 49 237 49 c 0
 321 49 408 104 421 164 c 2xbc
530 306 m 1
 824 306 l 1
 826 321 827 328 827 339 c 0
 827 414 783 462 712 462 c 0
 629 462 561 404 530 306 c 1
EndSplineSet
EndChar

StartChar: ccedilla
Encoding: 332 231 225
Width: 500
Flags: MW
HStem: -214 43<186 218.5 186 238> -94 148<229.5 313> 462 77<336 397.5>
VStem: 76 88<142 213 142 216> 263 78<-132 -110> 468 86<391.5 398.5>
LayerCount: 2
Fore
SplineSet
271 -23 m 1
 253 -56 l 1
 266 -54 270 -54 274 -54 c 0
 311 -54 341 -77 341 -105 c 0
 341 -168 280 -214 196 -214 c 0
 158 -214 129 -206 78 -180 c 1
 106 -142 l 1
 147 -163 172 -171 200 -171 c 0
 237 -171 263 -148 263 -116 c 0
 263 -104 248 -94 232 -94 c 0
 227 -94 227 -94 212 -97 c 2
 205 -98 l 1
 192 -92 l 1
 230 -22 l 1
 183 -13 163 -4 139 19 c 0
 100 55 76 112 76 170 c 0
 76 262 110 371 157 432 c 0
 210 501 291 539 381 539 c 0
 438 539 479 524 510 492 c 0
 536 465 554 425 554 393 c 0
 554 390 553 379 552 363 c 2
 551 348 l 1
 467 348 l 1
 468 357 468 364 468 370 c 0
 468 427 429 462 366 462 c 0
 305 462 255 432 218 373 c 0
 185 321 164 245 164 181 c 0
 164 103 208 54 277 54 c 0
 349 54 404 98 434 180 c 1
 518 180 l 1
 486 51 400 -19 271 -23 c 1
EndSplineSet
EndChar

StartChar: ecircumflex
Encoding: 337 234 230
Width: 556
Flags: MW
HStem: -23 77<256.5 329.5 256.5 342> 234 72<195 489 195 563 177 489> 462 77<345.5 411.5> 721 20<389 484 484 484>
VStem: 84 88<146 198.5 145.5 213.5> 492 88<354.5 376.5>
LayerCount: 2
Fore
SplineSet
563 234 m 1
 177 234 l 1
 173 219 172 209 172 188 c 0
 172 103 217 54 296 54 c 0
 363 54 416 90 452 159 c 1
 536 159 l 1
 505 51 402 -23 282 -23 c 0
 225 -23 181 -7 146 27 c 0
 107 64 84 119 84 173 c 0
 84 254 121 368 168 431 c 0
 218 498 302 539 389 539 c 0
 497 539 580 464 580 368 c 0
 580 341 575 299 566 251 c 2
 563 234 l 1
195 306 m 1
 489 306 l 1
 491 322 492 329 492 339 c 0
 492 414 447 462 376 462 c 0
 295 462 221 398 195 306 c 1
389 741 m 1
 484 741 l 1
 548 591 l 1
 485 591 l 1
 429 690 l 1
 325 591 l 1
 261 591 l 1
 389 741 l 1
EndSplineSet
EndChar

StartChar: igrave
Encoding: 344 236 237
Width: 278
Flags: MW
HStem: 0 20 507 20<206 290 290 290> 720 20<152 258 258 258>
LayerCount: 2
Fore
SplineSet
290 527 m 1
 178 0 l 1
 94 0 l 1
 206 527 l 1
 290 527 l 1
258 740 m 1
 330 592 l 1
 277 592 l 1
 152 740 l 1
 258 740 l 1
EndSplineSet
EndChar

StartChar: iacute
Encoding: 343 237 236
Width: 278
Flags: MW
HStem: 0 20 507 20<206 290 290 290> 720 20<319 431 431 431>
LayerCount: 2
Fore
SplineSet
290 527 m 1
 178 0 l 1
 94 0 l 1
 206 527 l 1
 290 527 l 1
319 740 m 1
 431 740 l 1
 251 592 l 1
 191 592 l 1
 319 740 l 1
EndSplineSet
EndChar

StartChar: icircumflex
Encoding: 345 238 238
Width: 278
Flags: MW
HStem: 0 20 507 20<206 290 290 290> 721 20<247 342 342 342>
LayerCount: 2
Fore
SplineSet
290 527 m 1
 178 0 l 1
 94 0 l 1
 206 527 l 1
 290 527 l 1
247 741 m 1
 342 741 l 1
 406 591 l 1
 343 591 l 1
 287 690 l 1
 183 591 l 1
 119 591 l 1
 247 741 l 1
EndSplineSet
EndChar

StartChar: idieresis
Encoding: 342 239 235
Width: 278
Flags: MW
HStem: 0 20 507 20<206 290 290 290> 612 103
LayerCount: 2
Fore
SplineSet
290 527 m 1
 178 0 l 1
 94 0 l 1
 206 527 l 1
 290 527 l 1
258 708 m 1
 236 605 l 1
 132 605 l 1
 154 708 l 1
 258 708 l 1
419 708 m 1
 397 605 l 1
 293 605 l 1
 315 708 l 1
 419 708 l 1
EndSplineSet
EndChar

StartChar: eth
Encoding: 393 240 286
Width: 556
Flags: W
HStem: -23 77<247.5 317.5 247.5 318.5> 462 72<338 382 326.5 408> 709 20<297 297> 723 20<275 275>
VStem: 80 88<144 206> 488 88<306 373.5>
LayerCount: 2
Fore
SplineSet
251 564 m 1xec
 219 603 l 1
 308 644 l 1
 299 652 291 659 288 661 c 0
 286 663 276 669 261 679 c 0
 257 681 245 689 233 698 c 1
 275 743 l 1xdc
 297 729 l 2
 316 718 328 710 332 707 c 0
 345 698 357 690 369 681 c 0
 370 681 373 679 377 676 c 1
 476 719 l 1
 515 681 l 1
 420 640 l 1
 525 550 576 454 576 347 c 0
 576 265 542 155 497 93 c 0
 443 17 364 -23 273 -23 c 0
 215 -23 168 -6 135 26 c 0
 101 60 80 111 80 164 c 0
 80 248 113 358 158 423 c 0
 206 493 284 534 369 534 c 0
 395 534 407 531 435 517 c 1
 403 559 387 576 351 609 c 1
 251 564 l 1xec
371 462 m 0
 305 462 249 425 212 357 c 0
 185 307 168 241 168 184 c 0
 168 104 212 54 283 54 c 0
 352 54 406 90 444 159 c 0
 471 209 488 274 488 333 c 0
 488 414 445 462 371 462 c 0
EndSplineSet
EndChar

StartChar: ntilde
Encoding: 350 241 243
Width: 556
Flags: W
HStem: 0 20 467 72<400 424> 504 20<181 257 257 257> 612 70<483 498 483 503.5> 644 70<341.5 354>
VStem: 486 88<407.5 409>
LayerCount: 2
Fore
SplineSet
181 524 m 1xa4
 257 524 l 1x24
 244 459 l 1
 296 512 362 539 438 539 c 0
 521 539 574 490 574 414 c 0
 574 401 573 389 570 376 c 2
 490 0 l 1
 406 0 l 1
 480 349 l 2
 484 365 486 380 486 386 c 0
 486 432 449 467 399 467 c 0xc4
 309 467 239 399 215 289 c 2
 154 0 l 1
 70 0 l 1
 181 524 l 1xa4
536 719 m 1x14
 589 719 l 1
 568 654 526 612 481 612 c 0x14
 459 612 442 616 378 638 c 0
 367 642 357 644 351 644 c 0
 332 644 320 638 308 620 c 0
 306 618 304 615 301 611 c 1
 248 611 l 1
 260 646 268 663 280 678 c 0
 296 699 327 714 352 714 c 0x0c
 369 714 386 710 425 697 c 0
 451 688 478 682 488 682 c 0
 508 682 518 690 536 719 c 1x14
EndSplineSet
EndChar

StartChar: ocircumflex
Encoding: 354 244 247
Width: 556
Flags: MW
HStem: -23 77<247.5 317> 462 77<338 408> 721 20<383 478 478 478>
VStem: 80 88<144 206.5> 488 88<308.5 373.5>
LayerCount: 2
Fore
SplineSet
384 539 m 0
 442 539 487 523 521 490 c 0
 556 456 576 405 576 352 c 0
 576 265 543 156 497 93 c 0
 441 16 365 -23 269 -23 c 0
 157 -23 80 53 80 164 c 0
 80 249 113 359 158 423 c 0
 209 497 291 539 384 539 c 0
371 462 m 0
 305 462 249 425 212 357 c 0
 185 307 168 241 168 184 c 0
 168 104 212 54 283 54 c 0
 352 54 406 90 444 159 c 0
 471 209 488 274 488 333 c 0
 488 414 445 462 371 462 c 0
383 741 m 1
 478 741 l 1
 542 591 l 1
 479 591 l 1
 423 690 l 1
 319 591 l 1
 255 591 l 1
 383 741 l 1
EndSplineSet
EndChar

StartChar: otilde
Encoding: 355 245 248
Width: 556
Flags: W
HStem: -23 77<247.5 317> 462 77<338 408> 612 70<477 492 477 497.5> 644 70<335.5 348>
VStem: 80 88<144 206.5> 488 88<308.5 373.5>
LayerCount: 2
Fore
SplineSet
384 539 m 0xcc
 442 539 487 523 521 490 c 0
 556 456 576 405 576 352 c 0
 576 265 543 156 497 93 c 0
 441 16 365 -23 269 -23 c 0
 157 -23 80 53 80 164 c 0
 80 249 113 359 158 423 c 0
 209 497 291 539 384 539 c 0xcc
371 462 m 0
 305 462 249 425 212 357 c 0
 185 307 168 241 168 184 c 0
 168 104 212 54 283 54 c 0
 352 54 406 90 444 159 c 0
 471 209 488 274 488 333 c 0
 488 414 445 462 371 462 c 0
530 719 m 1x2c
 583 719 l 1
 562 654 520 612 475 612 c 0x2c
 453 612 436 616 372 638 c 0
 361 642 351 644 345 644 c 0
 326 644 314 638 302 620 c 0
 300 618 298 615 295 611 c 1
 242 611 l 1
 254 646 262 663 274 678 c 0
 290 699 321 714 346 714 c 0x1c
 363 714 380 710 419 697 c 0
 445 688 472 682 482 682 c 0
 502 682 512 690 530 719 c 1x2c
EndSplineSet
EndChar

StartChar: odieresis
Encoding: 351 246 244
Width: 556
Flags: MW
HStem: -23 77<247.5 317> 462 77<338 408> 612 103<291 373 269 395 291 430 452 534>
VStem: 80 88<144 206.5> 488 88<308.5 373.5>
LayerCount: 2
Fore
SplineSet
384 539 m 0
 442 539 487 523 521 490 c 0
 556 456 576 405 576 352 c 0
 576 265 543 156 497 93 c 0
 441 16 365 -23 269 -23 c 0
 157 -23 80 53 80 164 c 0
 80 249 113 359 158 423 c 0
 209 497 291 539 384 539 c 0
371 462 m 0
 305 462 249 425 212 357 c 0
 185 307 168 241 168 184 c 0
 168 104 212 54 283 54 c 0
 352 54 406 90 444 159 c 0
 471 209 488 274 488 333 c 0
 488 414 445 462 371 462 c 0
395 715 m 1
 373 612 l 1
 269 612 l 1
 291 715 l 1
 395 715 l 1
556 715 m 1
 534 612 l 1
 430 612 l 1
 452 715 l 1
 556 715 l 1
EndSplineSet
EndChar

StartChar: divide
Encoding: 402 247 295
Width: 584
Flags: W
HStem: 0 104<291 319> 197 72<107 576 92 591> 358 104<365 393>
VStem: 253 104<38 66> 327 104<396 424 395.5 424.5>
LayerCount: 2
Fore
SplineSet
591 269 m 1xf0
 576 197 l 1
 92 197 l 1
 107 269 l 1
 591 269 l 1xf0
305 104 m 0
 334 104 357 81 357 51 c 0
 357 24 333 0 305 0 c 0
 277 0 253 24 253 52 c 0
 253 80 277 104 305 104 c 0
379 462 m 0xe8
 408 462 431 439 431 409 c 0
 431 382 407 358 379 358 c 0
 351 358 327 382 327 410 c 0
 327 439 350 462 379 462 c 0xe8
EndSplineSet
EndChar

StartChar: oslash
Encoding: 249 248 146
Width: 611
Flags: W
HStem: -23 77<267 319.5> 462 77<337 392> 521 20<613 613>
VStem: 81 88<171.5 206> 489 88<309.5 333.5>
LayerCount: 2
Fore
SplineSet
19 -2 m 1xb8
 102 74 l 1
 87 106 81 133 81 164 c 0
 81 248 114 359 159 423 c 0
 211 498 291 539 383 539 c 0xd8
 454 539 504 517 537 472 c 1
 613 541 l 1
 639 511 l 1
 558 437 l 1
 571 408 577 383 577 354 c 0
 577 265 544 157 498 93 c 0
 443 17 365 -23 274 -23 c 0
 206 -23 153 -1 123 41 c 1
 45 -30 l 1
 19 -2 l 1xb8
175 141 m 1
 470 410 l 1
 451 444 415 462 369 462 c 0
 305 462 249 425 213 357 c 0
 185 306 169 242 169 180 c 0
 169 163 170 156 175 141 c 1
484 370 m 1
 190 102 l 1
 209 71 245 54 289 54 c 0
 353 54 410 93 446 159 c 0
 470 204 489 280 489 328 c 0
 489 339 488 350 484 370 c 1
EndSplineSet
EndChar

StartChar: udieresis
Encoding: 362 252 255
Width: 556
Flags: MW
HStem: -23 72<241 265> 504 20<177 261 261 261 510 594 594 594> 612 103<290 372 268 394 290 429 451 533>
VStem: 88 91<52 130>
LayerCount: 2
Fore
SplineSet
483 0 m 1
 407 0 l 1
 419 57 l 1
 361 1 304 -23 226 -23 c 0
 140 -23 88 18 88 86 c 0
 88 99 89 110 91 120 c 2
 177 524 l 1
 261 524 l 1
 182 153 l 2
 180 143 179 134 179 126 c 0
 179 79 214 49 268 49 c 0
 353 49 424 119 447 227 c 2
 510 524 l 1
 594 524 l 1
 483 0 l 1
394 715 m 1
 372 612 l 1
 268 612 l 1
 290 715 l 1
 394 715 l 1
555 715 m 1
 533 612 l 1
 429 612 l 1
 451 715 l 1
 555 715 l 1
EndSplineSet
EndChar

StartChar: yacute
Encoding: 368 253 261
Width: 500
Flags: MW
HStem: -218 81<63 86.5 63 92.5> 504 20<132 222 222 222 501 590 590 590> 720 20<434 546 546 546>
LayerCount: 2
Fore
SplineSet
501 524 m 1
 590 524 l 1
 222 -110 l 2
 179 -184 128 -218 57 -218 c 0
 38 -218 26 -216 8 -208 c 1
 24 -133 l 1
 51 -136 58 -137 68 -137 c 0
 105 -137 121 -127 148 -85 c 2
 200 -4 l 1
 132 524 l 1
 222 524 l 1
 268 117 l 1
 501 524 l 1
434 740 m 1
 546 740 l 1
 366 592 l 1
 306 592 l 1
 434 740 l 1
EndSplineSet
EndChar

StartChar: thorn
Encoding: 394 254 287
Width: 556
Flags: MW
HStem: -213 20 -23 77<265.5 333> 462 77<374 416.5> 709 20<207 291 291 291>
VStem: 498 88<297 367>
LayerCount: 2
Fore
SplineSet
7 -213 m 1
 207 729 l 1
 291 729 l 1
 230 440 l 1
 260 498 336 539 412 539 c 0
 519 539 586 464 586 344 c 0
 586 246 552 142 498 76 c 0
 447 13 372 -23 294 -23 c 0
 223 -23 182 3 151 68 c 1
 91 -213 l 1
 7 -213 l 1
379 462 m 0
 317 462 267 428 230 361 c 1
 200 309 183 244 183 184 c 0
 183 104 229 54 302 54 c 0
 367 54 417 87 454 155 c 0
 481 205 498 270 498 324 c 0
 498 410 454 462 379 462 c 0
EndSplineSet
EndChar

StartChar: ydieresis
Encoding: 372 255 265
Width: 500
Flags: MW
HStem: -218 81<63 86.5 63 92.5> 504 20<132 222 222 222 501 590 590 590> 612 103<268 350 246 372 268 407 429 511>
LayerCount: 2
Fore
SplineSet
501 524 m 1
 590 524 l 1
 222 -110 l 2
 179 -184 128 -218 57 -218 c 0
 38 -218 26 -216 8 -208 c 1
 24 -133 l 1
 51 -136 58 -137 68 -137 c 0
 105 -137 121 -127 148 -85 c 2
 200 -4 l 1
 132 524 l 1
 222 524 l 1
 268 117 l 1
 501 524 l 1
372 715 m 1
 350 612 l 1
 246 612 l 1
 268 715 l 1
 372 715 l 1
533 715 m 1
 511 612 l 1
 407 612 l 1
 429 715 l 1
 533 715 l 1
EndSplineSet
EndChar

StartChar: Amacron
Encoding: 308 256 201
Width: 667
Flags: MW
HStem: 0 20 219 78<283 514 283 524 239 514> 709 20<432 552 552 552> 826 69<388 648 373 663>
LayerCount: 2
Fore
SplineSet
524 219 m 1
 239 219 l 1
 116 0 l 1
 17 0 l 1
 432 729 l 1
 552 729 l 1
 653 0 l 1
 551 0 l 1
 524 219 l 1
514 297 m 1
 474 630 l 1
 283 297 l 1
 514 297 l 1
663 895 m 1
 648 826 l 1
 373 826 l 1
 388 895 l 1
 663 895 l 1
EndSplineSet
EndChar

StartChar: Abreve
Encoding: 260 258 153
Width: 667
Flags: MW
HStem: 0 20 219 78<283 514 283 524 239 514> 709 20<432 552 552 552> 793 72<492.5 528.5>
LayerCount: 2
Fore
SplineSet
524 219 m 1
 239 219 l 1
 116 0 l 1
 17 0 l 1
 432 729 l 1
 552 729 l 1
 653 0 l 1
 551 0 l 1
 524 219 l 1
514 297 m 1
 474 630 l 1
 283 297 l 1
 514 297 l 1
382 928 m 1
 435 928 l 1
 435 920 l 1
 435 915 l 2
 435 885 468 865 517 865 c 0
 576 865 617 888 627 928 c 1
 683 928 l 1
 672 884 661 863 637 842 c 0
 604 812 553 793 504 793 c 0
 429 793 377 833 377 892 c 0
 377 901 378 909 382 928 c 1
EndSplineSet
EndChar

StartChar: Aogonek
Encoding: 263 260 156
Width: 667
Flags: MW
HStem: -205 45<574.5 593.5> 219 78<283 514 283 524 226 514> 709 20<432 552 552 552>
VStem: 452 75<-129.5 -113>
LayerCount: 2
Fore
SplineSet
524 219 m 1
 226 219 l 1
 116 0 l 1
 17 0 l 1
 432 729 l 1
 552 729 l 1
 653 0 l 1
 564 -39 527 -73 527 -116 c 0
 527 -143 554 -160 595 -160 c 0
 619 -160 643 -157 663 -150 c 1
 654 -195 l 1
 612 -204 605 -205 582 -205 c 0
 502 -205 452 -176 452 -130 c 0
 452 -96 474 -59 509 -35 c 0
 529 -21 545 -13 582 0 c 1
 551 0 l 1
 524 219 l 1
514 297 m 1
 474 630 l 1
 283 297 l 1
 514 297 l 1
EndSplineSet
EndChar

StartChar: aogonek
Encoding: 329 261 222
Width: 556
Flags: MW
HStem: -205 45<482.5 501.5> -23 72<213.5 226.5> 462 77<350.5 402>
VStem: 65 88<94 131.5 94 134> 360 75<-129.5 -105.5> 478 90<396 460>
LayerCount: 2
Fore
SplineSet
552 51 m 1
 539 -14 l 1
 484 -27 435 -75 435 -116 c 0
 435 -143 462 -160 503 -160 c 0
 527 -160 551 -157 571 -150 c 1
 562 -195 l 1
 522 -204 513 -205 490 -205 c 0
 408 -205 360 -177 360 -128 c 0
 360 -83 384 -56 455 -19 c 1
 425 -10 410 11 410 43 c 2
 410 47 l 1
 410 54 l 1
 369 18 354 8 322 -3 c 0
 286 -16 244 -23 209 -23 c 0
 119 -23 65 25 65 105 c 0
 65 163 95 216 147 249 c 0
 196 280 238 290 372 302 c 0
 445 309 464 320 473 361 c 1
 476 379 l 2
 477 387 478 394 478 398 c 0
 478 435 432 462 372 462 c 0
 329 462 287 447 265 425 c 0
 251 411 244 397 235 369 c 1
 151 369 l 1
 170 480 255 539 394 539 c 0
 499 539 568 494 568 426 c 0
 568 416 568 416 562 389 c 2
 498 88 l 2
 497 85 497 82 497 78 c 0
 497 58 509 49 535 49 c 0
 539 49 543 49 552 51 c 1
431 164 m 2
 451 258 l 1
 407 243 399 242 305 229 c 0
 256 222 226 214 202 199 c 0
 172 181 153 148 153 115 c 0
 153 73 185 49 242 49 c 0
 330 49 418 102 431 164 c 2
EndSplineSet
EndChar

StartChar: Ccircumflex
Encoding: 624 264 517
Width: 722
Flags: MW
HStem: -23 81<329 420> 660 81<473.5 565.5>
VStem: 112 96<207 304.5> 674 96<503 503>
LayerCount: 2
Fore
SplineSet
530 979 m 1
 625 979 l 1
 689 829 l 1
 626 829 l 1
 570 928 l 1
 466 829 l 1
 402 829 l 1
 530 979 l 1
770 503 m 1
 674 503 l 1
 666 611 616 660 515 660 c 0
 423 660 350 617 289 527 c 0
 238 451 208 351 208 260 c 0
 208 139 277 58 381 58 c 0
 460 58 536 95 578 155 c 0
 596 179 612 209 637 266 c 1
 735 266 l 1
 701 185 669 130 630 87 c 0
 565 16 473 -23 367 -23 c 0
 278 -23 215 4 169 62 c 0
 132 109 112 172 112 242 c 0
 112 367 161 505 240 600 c 0
 318 694 415 741 532 741 c 0
 626 741 697 704 738 634 c 0
 757 600 767 562 770 503 c 1
EndSplineSet
EndChar

StartChar: Cdotaccent
Encoding: 626 266 519
Width: 722
Flags: MW
HStem: -23 81<329 420> 660 81<473.5 565.5> 829 103<516 598 494 620>
VStem: 112 96<207 304.5> 674 96<503 503>
LayerCount: 2
Fore
SplineSet
620 932 m 1
 598 829 l 1
 494 829 l 1
 516 932 l 1
 620 932 l 1
770 503 m 1
 674 503 l 1
 666 611 616 660 515 660 c 0
 423 660 350 617 289 527 c 0
 238 451 208 351 208 260 c 0
 208 139 277 58 381 58 c 0
 460 58 536 95 578 155 c 0
 596 179 612 209 637 266 c 1
 735 266 l 1
 701 185 669 130 630 87 c 0
 565 16 473 -23 367 -23 c 0
 278 -23 215 4 169 62 c 0
 132 109 112 172 112 242 c 0
 112 367 161 505 240 600 c 0
 318 694 415 741 532 741 c 0
 626 741 697 704 738 634 c 0
 757 600 767 562 770 503 c 1
EndSplineSet
EndChar

StartChar: cdotaccent
Encoding: 627 267 520
Width: 500
Flags: MW
HStem: -23 77<242.5 304> 462 77<336 397.5> 624 103<363 445 341 467>
VStem: 76 88<146.5 213 142 216> 468 86<390.5 398.5>
LayerCount: 2
Fore
SplineSet
467 727 m 1
 445 624 l 1
 341 624 l 1
 363 727 l 1
 467 727 l 1
551 348 m 1
 467 348 l 1
 468 357 468 364 468 370 c 0
 468 427 429 462 366 462 c 0
 305 462 255 432 218 373 c 0
 185 321 164 245 164 181 c 0
 164 103 208 54 277 54 c 0
 349 54 404 98 434 180 c 1
 518 180 l 1
 502 124 486 90 460 60 c 0
 414 6 345 -23 263 -23 c 0
 199 -23 154 -4 120 39 c 0
 92 74 76 123 76 170 c 0
 76 262 110 371 157 432 c 0
 210 501 291 539 381 539 c 0
 438 539 479 524 510 492 c 0
 536 465 554 425 554 392 c 0
 554 389 553 378 552 363 c 2
 551 348 l 1
EndSplineSet
EndChar

StartChar: Ccaron
Encoding: 266 268 159
Width: 722
Flags: MW
HStem: -23 81<329 420> 660 81<473.5 565.5>
VStem: 112 96<207 304.5>
LayerCount: 2
Fore
SplineSet
770 503 m 1
 674 503 l 1
 666 611 616 660 515 660 c 0
 423 660 350 617 289 527 c 0
 238 451 208 351 208 260 c 0
 208 139 277 58 381 58 c 0
 460 58 536 95 578 155 c 0
 596 179 612 209 637 266 c 1
 735 266 l 1
 701 185 669 130 630 87 c 0
 565 16 473 -23 367 -23 c 0
 278 -23 215 4 169 62 c 0
 132 109 112 172 112 242 c 0
 112 367 161 505 240 600 c 0
 318 694 415 741 532 741 c 0
 626 741 697 704 738 634 c 0
 757 600 767 562 770 503 c 1
596 791 m 1
 501 791 l 1
 437 939 l 1
 500 939 l 1
 556 841 l 1
 660 939 l 1
 724 939 l 1
 596 791 l 1
EndSplineSet
EndChar

StartChar: Dcaron
Encoding: 267 270 160
Width: 722
Flags: MW
HStem: 0 82<200 371> 647 82<321 492 321 321>
VStem: 663 96<434 524.5 425.5 532>
LayerCount: 2
Fore
SplineSet
89 0 m 1
 244 729 l 1
 526 729 l 2
 591 729 644 711 682 677 c 0
 729 635 759 561 759 488 c 0
 759 363 711 217 643 134 c 0
 570 45 479 0 371 0 c 2
 89 0 l 1
200 82 m 1
 372 82 l 2
 463 82 539 125 591 205 c 0
 631 268 663 388 663 480 c 0
 663 584 599 647 492 647 c 2
 321 647 l 1
 200 82 l 1
536 791 m 1
 441 791 l 1
 377 939 l 1
 440 939 l 1
 496 841 l 1
 600 939 l 1
 664 939 l 1
 536 791 l 1
EndSplineSet
EndChar

StartChar: dcaron
Encoding: 333 271 226
Width: 650
Flags: W
HStem: -23 77<241 265.5> 462 77<323 392> 631 98<710 744 566 689> 709 20<566 650 650 650 710 810 810 810>
VStem: 73 88<147 218 147 275.5>
LayerCount: 2
Fore
SplineSet
650 729 m 1xd8
 495 0 l 1
 414 0 l 1
 430 76 l 1
 416 48 403 33 373 15 c 0
 333 -9 287 -23 244 -23 c 0
 140 -23 73 53 73 170 c 0
 73 381 197 539 363 539 c 0
 434 539 474 513 506 448 c 1
 566 729 l 1
 650 729 l 1xd8
355 462 m 0
 291 462 243 430 205 361 c 0
 178 310 161 246 161 190 c 0
 161 104 204 54 278 54 c 0
 339 54 388 88 427 155 c 0
 457 207 473 268 473 327 c 0
 473 412 429 462 355 462 c 0
710 729 m 1x28
 810 729 l 1
 791 636 l 1
 773 554 725 505 662 505 c 1
 670 543 l 1
 709 543 733 572 744 631 c 1
 689 631 l 1
 710 729 l 1x28
EndSplineSet
EndChar

StartChar: Dcroat
Encoding: 390 272 283
Width: 722
Flags: MW
HStem: 0 82<200 371> 341 67<106 161 93 176 270 422> 647 82<321 492 321 321>
VStem: 663 96<434.5 524.5 425.5 532.5>
LayerCount: 2
Fore
SplineSet
161 341 m 1
 93 341 l 1
 106 408 l 1
 176 408 l 1
 244 729 l 1
 526 729 l 2
 591 729 644 711 682 677 c 0
 729 635 759 561 759 488 c 0
 759 363 711 217 643 134 c 0
 570 45 479 0 371 0 c 2
 89 0 l 1
 161 341 l 1
255 341 m 1
 200 82 l 1
 372 82 l 2
 463 82 539 125 591 205 c 0
 631 268 663 389 663 480 c 0
 663 585 599 647 492 647 c 2
 321 647 l 1
 270 408 l 1
 436 408 l 1
 422 341 l 1
 255 341 l 1
EndSplineSet
EndChar

StartChar: Emacron
Encoding: 311 274 204
Width: 667
Flags: MW
HStem: 0 82<201 613> 332 82<255 668 272 650> 647 82<322 734 322 322> 826 69<392 652 377 667>
LayerCount: 2
Fore
SplineSet
255 332 m 1
 201 82 l 1
 630 82 l 1
 613 0 l 1
 90 0 l 1
 245 729 l 1
 751 729 l 1
 734 647 l 1
 322 647 l 1
 272 414 l 1
 668 414 l 1
 650 332 l 1
 255 332 l 1
667 895 m 1
 652 826 l 1
 377 826 l 1
 392 895 l 1
 667 895 l 1
EndSplineSet
EndChar

StartChar: Ebreve
Encoding: 628 276 521
Width: 667
Flags: MW
HStem: 0 82<201 613> 332 82<255 668 272 650> 647 82<322 734 322 322> 829 72<516.5 552.5>
VStem: 401 58<898.5 951>
LayerCount: 2
Fore
SplineSet
406 964 m 1
 459 964 l 1
 459 956 l 1
 459 951 l 2
 459 921 492 901 541 901 c 0
 600 901 641 924 651 964 c 1
 707 964 l 1
 696 920 685 899 661 878 c 0
 628 848 577 829 528 829 c 0
 453 829 401 869 401 928 c 0
 401 937 402 945 406 964 c 1
255 332 m 1
 201 82 l 1
 630 82 l 1
 613 0 l 1
 90 0 l 1
 245 729 l 1
 751 729 l 1
 734 647 l 1
 322 647 l 1
 272 414 l 1
 668 414 l 1
 650 332 l 1
 255 332 l 1
EndSplineSet
EndChar

StartChar: ebreve
Encoding: 629 277 522
Width: 556
Flags: MW
HStem: -23 77<256.5 329.5 256.5 342> 234 72<195 489 195 563 177 489> 462 77<345.5 411.5> 624 72<401.5 437.5>
VStem: 84 88<146 198.5 145.5 213.5> 286 58<693.5 746> 492 88<354.5 376.5>
LayerCount: 2
Fore
SplineSet
291 759 m 1
 344 759 l 1
 344 751 l 1
 344 746 l 2
 344 716 377 696 426 696 c 0
 485 696 526 719 536 759 c 1
 592 759 l 1
 581 715 570 694 546 673 c 0
 513 643 462 624 413 624 c 0
 338 624 286 664 286 723 c 0
 286 732 287 740 291 759 c 1
563 234 m 1
 177 234 l 1
 173 219 172 209 172 188 c 0
 172 103 217 54 296 54 c 0
 363 54 416 90 452 159 c 1
 536 159 l 1
 505 51 402 -23 282 -23 c 0
 225 -23 181 -7 146 27 c 0
 107 64 84 119 84 173 c 0
 84 254 121 368 168 431 c 0
 218 498 302 539 389 539 c 0
 497 539 580 464 580 368 c 0
 580 341 575 299 566 251 c 2
 563 234 l 1
195 306 m 1
 489 306 l 1
 491 322 492 329 492 339 c 0
 492 414 447 462 376 462 c 0
 295 462 221 398 195 306 c 1
EndSplineSet
EndChar

StartChar: Edotaccent
Encoding: 273 278 166
Width: 667
Flags: MW
HStem: 0 82<201 613> 332 82<255 668 272 650> 647 82<322 734 322 322> 811 103<481 563 459 585>
LayerCount: 2
Fore
SplineSet
255 332 m 1
 201 82 l 1
 630 82 l 1
 613 0 l 1
 90 0 l 1
 245 729 l 1
 751 729 l 1
 734 647 l 1
 322 647 l 1
 272 414 l 1
 668 414 l 1
 650 332 l 1
 255 332 l 1
585 914 m 1
 563 811 l 1
 459 811 l 1
 481 914 l 1
 585 914 l 1
EndSplineSet
EndChar

StartChar: Eogonek
Encoding: 274 280 167
Width: 667
Flags: MW
HStem: -205 45<534.5 553.5> 0 82<201 542 613 613> 332 82<255 668 272 650> 647 82<322 734 322 322>
VStem: 412 75<-129 -113>
LayerCount: 2
Fore
SplineSet
255 332 m 1
 201 82 l 1
 630 82 l 1
 613 0 l 1
 551 -29 539 -37 522 -52 c 0
 499 -73 487 -94 487 -116 c 0
 487 -142 514 -160 555 -160 c 0
 579 -160 603 -157 623 -150 c 1
 614 -195 l 1
 572 -204 565 -205 542 -205 c 0
 462 -205 412 -176 412 -130 c 0
 412 -96 434 -59 469 -35 c 0
 489 -21 505 -14 542 0 c 1
 90 0 l 1
 245 729 l 1
 751 729 l 1
 734 647 l 1
 322 647 l 1
 272 414 l 1
 668 414 l 1
 650 332 l 1
 255 332 l 1
EndSplineSet
EndChar

StartChar: eogonek
Encoding: 340 281 233
Width: 556
Flags: MW
HStem: -205 45<374.5 401.5> -23 77<256.5 290> 234 72<195 489 195 563 177 489> 462 77<345.5 411.5>
VStem: 84 88<146 198.5 145.5 213.5> 253 74<-127.5 -106.5> 492 88<354.5 376.5>
LayerCount: 2
Fore
SplineSet
464 -150 m 1
 455 -195 l 1
 434 -202 416 -205 387 -205 c 0
 351 -205 310 -197 289 -186 c 0
 265 -174 253 -154 253 -127 c 0
 253 -86 276 -58 346 -16 c 1
 314 -22 300 -23 280 -23 c 0
 225 -23 181 -7 146 27 c 0
 107 64 84 119 84 173 c 0
 84 254 121 368 168 431 c 0
 218 498 302 539 389 539 c 0
 497 539 580 464 580 368 c 0
 580 341 575 299 566 251 c 2
 563 234 l 1
 177 234 l 1
 173 219 172 209 172 188 c 0
 172 103 217 54 296 54 c 0
 363 54 416 90 452 159 c 1
 536 159 l 1
 520 100 479 50 395 -14 c 0
 354 -46 327 -86 327 -114 c 0
 327 -141 355 -160 394 -160 c 0
 421 -160 446 -156 464 -150 c 1
195 306 m 1
 489 306 l 1
 491 322 492 329 492 339 c 0
 492 414 447 462 376 462 c 0
 295 462 221 398 195 306 c 1
EndSplineSet
EndChar

StartChar: Ecaron
Encoding: 272 282 165
Width: 667
Flags: MW
HStem: 0 82<201 613> 332 82<255 668 272 650> 647 82<322 734 322 322>
LayerCount: 2
Fore
SplineSet
255 332 m 1
 201 82 l 1
 630 82 l 1
 613 0 l 1
 90 0 l 1
 245 729 l 1
 751 729 l 1
 734 647 l 1
 322 647 l 1
 272 414 l 1
 668 414 l 1
 650 332 l 1
 255 332 l 1
555 791 m 1
 460 791 l 1
 396 939 l 1
 459 939 l 1
 515 841 l 1
 619 939 l 1
 683 939 l 1
 555 791 l 1
EndSplineSet
EndChar

StartChar: Gcircumflex
Encoding: 630 284 523
Width: 778
Flags: MW
HStem: -23 81<374 410.5> 303 82<489 693 471 793> 660 81<497 567.5>
VStem: 109 96<248.5 321 248.5 326> 718 91<508 515>
LayerCount: 2
Fore
SplineSet
543 979 m 1
 638 979 l 1
 702 829 l 1
 639 829 l 1
 583 928 l 1
 479 829 l 1
 415 829 l 1
 543 979 l 1
793 385 m 1
 710 -4 l 1
 651 -4 l 1
 647 86 l 1
 609 54 590 40 566 26 c 0
 512 -5 443 -23 378 -23 c 0
 310 -23 245 -2 199 36 c 0
 143 81 109 167 109 261 c 0
 109 391 167 527 263 623 c 0
 341 701 439 741 555 741 c 0
 712 741 809 658 809 525 c 2
 809 519 l 1
 809 515 l 1
 809 508 l 1
 718 508 l 1
 717 554 707 581 681 607 c 1
 648 642 598 660 537 660 c 0
 440 660 354 617 293 538 c 0
 240 468 205 365 205 277 c 0
 205 220 219 167 242 132 c 0
 273 86 337 58 411 58 c 0
 480 58 538 79 592 123 c 0
 643 165 672 211 687 277 c 2
 693 303 l 1
 471 303 l 1
 489 385 l 1
 793 385 l 1
EndSplineSet
EndChar

StartChar: Gbreve
Encoding: 275 286 168
Width: 778
Flags: MW
HStem: -23 81<374 410.5> 303 82<489 693 471 793> 660 81<497 567.5> 793 72<553.5 589.5>
VStem: 109 96<248.5 321 248.5 326>
LayerCount: 2
Fore
SplineSet
793 385 m 1
 710 -4 l 1
 651 -4 l 1
 647 86 l 1
 609 54 590 40 566 26 c 0
 512 -5 443 -23 378 -23 c 0
 310 -23 245 -2 199 36 c 0
 143 81 109 167 109 261 c 0
 109 391 167 527 263 623 c 0
 341 701 439 741 555 741 c 0
 712 741 809 658 809 525 c 2
 809 519 l 1
 809 515 l 1
 809 508 l 1
 718 508 l 1
 717 554 707 581 681 607 c 1
 648 642 598 660 537 660 c 0
 440 660 354 617 293 538 c 0
 240 468 205 365 205 277 c 0
 205 220 219 167 242 132 c 0
 273 86 337 58 411 58 c 0
 480 58 538 79 592 123 c 0
 643 165 672 211 687 277 c 2
 693 303 l 1
 471 303 l 1
 489 385 l 1
 793 385 l 1
443 928 m 1
 496 928 l 1
 496 920 l 1
 496 915 l 2
 496 885 529 865 578 865 c 0
 637 865 678 888 688 928 c 1
 744 928 l 1
 733 884 722 863 698 842 c 0
 665 812 614 793 565 793 c 0
 490 793 438 833 438 892 c 0
 438 901 439 909 443 928 c 1
EndSplineSet
EndChar

StartChar: gbreve
Encoding: 341 287 234
Width: 556
Flags: MW
HStem: -218 72<192 248.5> -17 72<237.5 278.5> 462 77<331.5 386 330.5 395> 594 72<398.5 434.5> 709 20<288 341 341 341 533 589 589 589>
VStem: 74 88<144.5 214 144.5 214>
LayerCount: 2
Fore
SplineSet
525 524 m 1
 601 524 l 1
 508 85 l 2
 481 -42 454 -103 404 -151 c 0
 359 -194 288 -218 209 -218 c 0
 102 -218 32 -168 32 -91 c 0
 32 -87 32 -81 33 -73 c 2
 34 -60 l 1
 118 -60 l 1
 118 -68 l 1
 118 -74 l 2
 118 -119 158 -146 226 -146 c 0
 332 -146 386 -92 415 44 c 2
 419 63 l 1
 369 10 310 -17 247 -17 c 0
 145 -17 74 59 74 168 c 0
 74 260 112 373 165 439 c 0
 214 501 292 539 369 539 c 0
 403 539 435 528 461 509 c 0
 483 493 493 479 508 446 c 1
 525 524 l 1
363 462 m 0
 300 462 244 425 208 360 c 0
 179 308 162 244 162 184 c 0
 162 105 204 55 271 55 c 0
 331 55 390 93 423 154 c 1
 451 203 469 277 469 339 c 0
 469 414 427 462 363 462 c 0
288 729 m 1
 341 729 l 1
 341 721 l 1
 341 716 l 2
 341 686 374 666 423 666 c 0
 482 666 523 689 533 729 c 1
 589 729 l 1
 578 685 567 664 543 643 c 0
 510 613 459 594 410 594 c 0
 335 594 283 634 283 693 c 0
 283 702 284 710 288 729 c 1
EndSplineSet
EndChar

StartChar: Gdotaccent
Encoding: 632 288 525
Width: 778
Flags: MW
HStem: -23 81<374 410.5> 303 82<489 693 471 793> 660 81<497 567.5> 829 103<529 611 507 633>
VStem: 109 96<248.5 321 248.5 326> 718 91<508 515>
LayerCount: 2
Fore
SplineSet
633 932 m 1
 611 829 l 1
 507 829 l 1
 529 932 l 1
 633 932 l 1
793 385 m 1
 710 -4 l 1
 651 -4 l 1
 647 86 l 1
 609 54 590 40 566 26 c 0
 512 -5 443 -23 378 -23 c 0
 310 -23 245 -2 199 36 c 0
 143 81 109 167 109 261 c 0
 109 391 167 527 263 623 c 0
 341 701 439 741 555 741 c 0
 712 741 809 658 809 525 c 2
 809 519 l 1
 809 515 l 1
 809 508 l 1
 718 508 l 1
 717 554 707 581 681 607 c 1
 648 642 598 660 537 660 c 0
 440 660 354 617 293 538 c 0
 240 468 205 365 205 277 c 0
 205 220 219 167 242 132 c 0
 273 86 337 58 411 58 c 0
 480 58 538 79 592 123 c 0
 643 165 672 211 687 277 c 2
 693 303 l 1
 471 303 l 1
 489 385 l 1
 793 385 l 1
EndSplineSet
EndChar

StartChar: gdotaccent
Encoding: 633 289 526
Width: 556
Flags: W
HStem: -218 72<192 248.5> -17 72<237.5 278.5> 462 77<331.5 386 330.5 395> 624 103<367 449 345 471>
VStem: 32 86<-96.5 -89> 74 88<144.5 214 144.5 214>
LayerCount: 2
Fore
SplineSet
471 727 m 1xf0
 449 624 l 1
 345 624 l 1
 367 727 l 1
 471 727 l 1xf0
525 524 m 1
 601 524 l 1
 508 85 l 2
 481 -42 454 -103 404 -151 c 0
 359 -194 288 -218 209 -218 c 0
 102 -218 32 -168 32 -91 c 0
 32 -87 32 -81 33 -73 c 2
 34 -60 l 1
 118 -60 l 1
 118 -68 l 1
 118 -74 l 2xf8
 118 -119 158 -146 226 -146 c 0
 332 -146 386 -92 415 44 c 2
 419 63 l 1
 369 10 310 -17 247 -17 c 0
 145 -17 74 59 74 168 c 0xf4
 74 260 112 373 165 439 c 0
 214 501 292 539 369 539 c 0
 403 539 435 528 461 509 c 0
 483 493 493 479 508 446 c 1
 525 524 l 1
363 462 m 0
 300 462 244 425 208 360 c 0
 179 308 162 244 162 184 c 0xf4
 162 105 204 55 271 55 c 0
 331 55 390 93 423 154 c 1
 451 203 469 277 469 339 c 0
 469 414 427 462 363 462 c 0
EndSplineSet
EndChar

StartChar: Gcommaaccent
Encoding: 319 290 212
Width: 778
Flags: MW
HStem: -158 98<331 365 310 431> -23 81<374 410.5> 303 82<489 693 471 793> 660 81<497 567.5>
VStem: 109 96<248.5 321 248.5 326>
LayerCount: 2
Fore
SplineSet
793 385 m 1
 710 -4 l 1
 651 -4 l 1
 647 86 l 1
 609 54 590 40 566 26 c 0
 512 -5 443 -23 378 -23 c 0
 310 -23 245 -2 199 36 c 0
 143 81 109 167 109 261 c 0
 109 391 167 527 263 623 c 0
 341 701 439 741 555 741 c 0
 712 741 809 658 809 525 c 2
 809 519 l 1
 809 515 l 1
 809 508 l 1
 718 508 l 1
 717 554 707 581 681 607 c 1
 648 642 598 660 537 660 c 0
 440 660 354 617 293 538 c 0
 240 468 205 365 205 277 c 0
 205 220 219 167 242 132 c 0
 273 86 337 58 411 58 c 0
 480 58 538 79 592 123 c 0
 643 165 672 211 687 277 c 2
 693 303 l 1
 471 303 l 1
 489 385 l 1
 793 385 l 1
331 -60 m 1
 431 -60 l 1
 412 -153 l 1
 394 -235 346 -284 283 -284 c 1
 291 -246 l 1
 330 -246 354 -217 365 -158 c 1
 310 -158 l 1
 331 -60 l 1
EndSplineSet
EndChar

StartChar: gcommaaccent
Encoding: 386 291 279
Width: 527
Flags: MW
HStem: -218 72<163 219.5> -17 72<208.5 249.5> 462 77<302.5 357 301.5 366> 609 98
VStem: 45 88<144.5 214 144.5 214>
LayerCount: 2
Fore
SplineSet
496 524 m 1
 572 524 l 1
 479 85 l 2
 452 -42 425 -103 375 -151 c 0
 330 -194 259 -218 180 -218 c 0
 73 -218 3 -168 3 -91 c 0
 3 -87 3 -81 4 -73 c 2
 5 -60 l 1
 89 -60 l 1
 89 -68 l 1
 89 -74 l 2
 89 -119 129 -146 197 -146 c 0
 303 -146 357 -92 386 44 c 2
 390 63 l 1
 340 10 281 -17 218 -17 c 0
 116 -17 45 59 45 168 c 0
 45 260 83 373 136 439 c 0
 185 501 263 539 340 539 c 0
 374 539 406 528 432 509 c 0
 454 493 464 479 479 446 c 1
 496 524 l 1
334 462 m 0
 271 462 215 425 179 360 c 0
 150 308 133 244 133 184 c 0
 133 105 175 55 242 55 c 0
 302 55 361 93 394 154 c 1
 422 203 440 277 440 339 c 0
 440 414 398 462 334 462 c 0
430 589 m 1
 330 589 l 1
 350 682 l 2
 368 764 415 813 478 813 c 1
 470 775 l 1
 431 775 407 746 396 687 c 1
 451 687 l 1
 430 589 l 1
EndSplineSet
EndChar

StartChar: Hcircumflex
Encoding: 634 292 527
Width: 722
Flags: MW
HStem: 0 21G<83 177 83 83 550 550 550 644> 332 82<265 621 248 638> 709 20G<238 332 332 332 705 799 799 799>
LayerCount: 2
Fore
SplineSet
524 979 m 1
 619 979 l 1
 683 829 l 1
 620 829 l 1
 564 928 l 1
 460 829 l 1
 396 829 l 1
 524 979 l 1
621 332 m 1
 248 332 l 1
 177 0 l 1
 83 0 l 1
 238 729 l 1
 332 729 l 1
 265 414 l 1
 638 414 l 1
 705 729 l 1
 799 729 l 1
 644 0 l 1
 550 0 l 1
 621 332 l 1
EndSplineSet
EndChar

StartChar: hcircumflex
Encoding: 635 293 528
Width: 556
Flags: MW
HStem: 0 21G<70 154 70 70 406 490 406 406> 467 72<401.5 425.5> 709 20G<225 309 309 309>
VStem: 485 89<407 407.5>
LayerCount: 2
Fore
SplineSet
441 979 m 1
 536 979 l 1
 600 829 l 1
 537 829 l 1
 481 928 l 1
 377 829 l 1
 313 829 l 1
 441 979 l 1
225 729 m 1
 309 729 l 1
 252 459 l 1
 315 518 364 539 439 539 c 0
 523 539 574 492 574 413 c 0
 574 401 573 389 570 376 c 2
 490 0 l 1
 406 0 l 1
 479 343 l 2
 485 370 485 370 485 382 c 0
 485 433 451 467 400 467 c 0
 309 467 239 399 215 289 c 2
 154 0 l 1
 70 0 l 1
 225 729 l 1
EndSplineSet
EndChar

StartChar: Hbar
Encoding: 636 294 529
Width: 772
Flags: MW
HStem: 0 21G<103 197 103 103 570 664 570 570> 332 82<285 641 268 658> 557 69<162 221 150 236 330 688 797 852> 709 20G<258 352 352 352 725 819 819 819>
LayerCount: 2
Fore
SplineSet
797 626 m 1
 864 626 l 1
 852 557 l 1
 782 557 l 1
 664 0 l 1
 570 0 l 1
 641 332 l 1
 268 332 l 1
 197 0 l 1
 103 0 l 1
 221 557 l 1
 150 557 l 1
 162 626 l 1
 236 626 l 1
 258 729 l 1
 352 729 l 1
 330 626 l 1
 703 626 l 1
 725 729 l 1
 819 729 l 1
 797 626 l 1
688 557 m 1
 315 557 l 1
 285 414 l 1
 658 414 l 1
 688 557 l 1
EndSplineSet
EndChar

StartChar: hbar
Encoding: 637 295 530
Width: 575
Flags: MW
HStem: 0 21G<89 173 89 89 425 509 425 425> 467 72<420.5 444.5> 597 69<164 216 149 231 315 424> 709 20G<244 328 328 328>
VStem: 504 89<407 407.5>
LayerCount: 2
Fore
SplineSet
231 666 m 1
 244 729 l 1
 328 729 l 1
 315 666 l 1
 439 666 l 1
 424 597 l 1
 300 597 l 1
 271 459 l 1
 334 518 383 539 458 539 c 0
 542 539 593 492 593 413 c 0
 593 401 592 389 589 376 c 2
 509 0 l 1
 425 0 l 1
 498 343 l 2
 504 370 504 370 504 382 c 0
 504 433 470 467 419 467 c 0
 328 467 258 399 234 289 c 2
 173 0 l 1
 89 0 l 1
 216 597 l 1
 149 597 l 1
 164 666 l 1
 231 666 l 1
EndSplineSet
EndChar

StartChar: Itilde
Encoding: 638 296 531
Width: 278
Flags: W
HStem: 0 21G<100 194 100 100> 709 20G<255 349 349 349> 830 70<399 414 399 419.5> 862 70<257.5 270>
VStem: 100 405
LayerCount: 2
Fore
SplineSet
452 937 m 1xe8
 505 937 l 1
 484 872 442 830 397 830 c 0xe8
 375 830 358 834 294 856 c 0
 283 860 273 862 267 862 c 0
 248 862 236 856 224 838 c 0
 222 836 220 833 217 829 c 1
 164 829 l 1
 176 864 184 881 196 896 c 0
 212 917 243 932 268 932 c 0xd8
 285 932 302 928 341 915 c 0
 367 906 394 900 404 900 c 0
 424 900 434 908 452 937 c 1xe8
349 729 m 1
 194 0 l 1
 100 0 l 1
 255 729 l 1
 349 729 l 1
EndSplineSet
EndChar

StartChar: itilde
Encoding: 639 297 532
Width: 278
Flags: W
HStem: 0 21G<94 178 94 94> 507 20G<206 290 290 290> 625 70<345 360 345 365.5> 657 70<203.5 216>
VStem: 94 357
LayerCount: 2
Fore
SplineSet
398 732 m 1xe8
 451 732 l 1
 430 667 388 625 343 625 c 0xe8
 321 625 304 629 240 651 c 0
 229 655 219 657 213 657 c 0
 194 657 182 651 170 633 c 0
 168 631 166 628 163 624 c 1
 110 624 l 1
 122 659 130 676 142 691 c 0
 158 712 189 727 214 727 c 0xd8
 231 727 248 723 287 710 c 0
 313 701 340 695 350 695 c 0
 370 695 380 703 398 732 c 1xe8
290 527 m 1
 178 0 l 1
 94 0 l 1
 206 527 l 1
 290 527 l 1
EndSplineSet
EndChar

StartChar: Imacron
Encoding: 312 298 205
Width: 278
Flags: MW
HStem: 0 20 709 20<255 349 349 349> 826 69<211 443 195 458>
LayerCount: 2
Fore
SplineSet
349 729 m 1
 194 0 l 1
 100 0 l 1
 255 729 l 1
 349 729 l 1
458 895 m 1
 443 826 l 1
 195 826 l 1
 211 895 l 1
 458 895 l 1
EndSplineSet
EndChar

StartChar: imacron
Encoding: 376 299 269
Width: 222
Flags: MW
HStem: 0 20 504 20<177 261 261 261> 627 69<139 358 124 373>
LayerCount: 2
Fore
SplineSet
261 524 m 1
 150 0 l 1
 66 0 l 1
 177 524 l 1
 261 524 l 1
373 696 m 1
 358 627 l 1
 124 627 l 1
 139 696 l 1
 373 696 l 1
EndSplineSet
EndChar

StartChar: Ibreve
Encoding: 640 300 533
Width: 278
Flags: MW
HStem: 0 21G<100 194 100 100> 709 20G<255 349 349 349> 829 72<312.5 348.5>
VStem: 197 58
LayerCount: 2
Fore
SplineSet
202 964 m 1
 255 964 l 1
 255 956 l 1
 255 951 l 2
 255 921 288 901 337 901 c 0
 396 901 437 924 447 964 c 1
 503 964 l 1
 492 920 481 899 457 878 c 0
 424 848 373 829 324 829 c 0
 249 829 197 869 197 928 c 0
 197 937 198 945 202 964 c 1
349 729 m 1
 194 0 l 1
 100 0 l 1
 255 729 l 1
 349 729 l 1
EndSplineSet
EndChar

StartChar: ibreve
Encoding: 641 301 534
Width: 278
Flags: MW
HStem: 0 21G<94 178 94 94> 507 20G<206 290 290 290> 624 72<257.5 293.5>
VStem: 142 58<693.5 746>
LayerCount: 2
Fore
SplineSet
147 759 m 1
 200 759 l 1
 200 751 l 1
 200 746 l 2
 200 716 233 696 282 696 c 0
 341 696 382 719 392 759 c 1
 448 759 l 1
 437 715 426 694 402 673 c 0
 369 643 318 624 269 624 c 0
 194 624 142 664 142 723 c 0
 142 732 143 740 147 759 c 1
290 527 m 1
 178 0 l 1
 94 0 l 1
 206 527 l 1
 290 527 l 1
EndSplineSet
EndChar

StartChar: Iogonek
Encoding: 313 302 206
Width: 278
Flags: MW
HStem: -205 46<145 153.5> 709 20<255 349 349 349>
VStem: 28 75<-128.5 -112.5>
LayerCount: 2
Fore
SplineSet
349 729 m 1
 194 0 l 1
 189 -4 184 -8 178 -12 c 0
 128 -51 103 -86 103 -115 c 0
 103 -142 127 -159 163 -159 c 0
 178 -159 184 -158 209 -150 c 1
 200 -195 l 1
 176 -203 164 -205 143 -205 c 0
 76 -205 28 -174 28 -129 c 0
 28 -96 43 -71 85 -35 c 0
 103 -20 112 -13 135 0 c 1
 100 0 l 1
 255 729 l 1
 349 729 l 1
EndSplineSet
EndChar

StartChar: iogonek
Encoding: 387 303 280
Width: 222
Flags: MW
HStem: -205 46<72 134> 626 103<221 282 198 305>
VStem: 0 73<-129 -108>
LayerCount: 2
Fore
SplineSet
261 524 m 1
 150 0 l 1
 105 -35 73 -84 73 -116 c 0
 73 -142 94 -159 128 -159 c 0
 140 -159 142 -158 164 -150 c 1
 155 -195 l 1
 133 -202 120 -205 102 -205 c 0
 42 -205 0 -173 0 -128 c 0
 0 -88 36 -42 100 0 c 1
 66 0 l 1
 177 524 l 1
 261 524 l 1
305 729 m 1
 282 626 l 1
 198 626 l 1
 221 729 l 1
 305 729 l 1
EndSplineSet
EndChar

StartChar: Idotaccent
Encoding: 280 304 173
Width: 278
Flags: MW
HStem: 0 20 709 20<255 349 349 349> 811 103<285 367 263 389>
LayerCount: 2
Fore
SplineSet
349 729 m 1
 194 0 l 1
 100 0 l 1
 255 729 l 1
 349 729 l 1
389 914 m 1
 367 811 l 1
 263 811 l 1
 285 914 l 1
 389 914 l 1
EndSplineSet
EndChar

StartChar: dotlessi
Encoding: 245 305 144
Width: 278
Flags: MW
HStem: 0 20 507 20<206 290 290 290>
LayerCount: 2
Fore
SplineSet
290 527 m 1
 178 0 l 1
 94 0 l 1
 206 527 l 1
 290 527 l 1
EndSplineSet
EndChar

StartChar: IJ
Encoding: 642 306 535
Width: 742
Flags: MW
HStem: -23 81<437 482.5 437 510> 709 20G<255 349 349 349 718 812 812 812>
VStem: 278 96<111.5 129>
LayerCount: 2
Fore
SplineSet
718 729 m 1
 812 729 l 1
 696 182 l 2
 668 51 576 -23 444 -23 c 0
 395 -23 361 -13 333 9 c 0
 299 37 278 79 278 122 c 0
 278 136 280 153 284 170 c 2
 298 234 l 1
 392 234 l 1
 378 168 l 2
 375 156 374 145 374 134 c 0
 374 89 410 58 464 58 c 0
 501 58 538 75 562 102 c 0
 584 127 597 160 609 216 c 2
 718 729 l 1
349 729 m 1
 194 0 l 1
 100 0 l 1
 255 729 l 1
 349 729 l 1
EndSplineSet
Ligature2: "'liga' Standard Ligatures in Latin lookup 0 subtable" I J
EndChar

StartChar: ij
Encoding: 643 307 536
Width: 362
Flags: MW
HStem: -218 72<107.5 135.5 107.5 146.5> 0 21G<66 150 66 66> 504 20G<177 261 261 261 315 399 399 399> 626 103<221 283 199 305 359 421 221 337>
VStem: 66 377
LayerCount: 2
Fore
SplineSet
315 524 m 1
 399 524 l 1
 265 -109 l 2
 247 -191 204 -218 89 -218 c 0
 80 -218 77 -217 70 -215 c 1
 85 -144 l 1
 103 -146 105 -146 110 -146 c 0
 161 -146 176 -132 188 -76 c 2
 315 524 l 1
443 729 m 1
 421 626 l 1
 337 626 l 1
 359 729 l 1
 443 729 l 1
261 524 m 1
 150 0 l 1
 66 0 l 1
 177 524 l 1
 261 524 l 1
305 729 m 1
 283 626 l 1
 199 626 l 1
 221 729 l 1
 305 729 l 1
EndSplineSet
Ligature2: "'liga' Standard Ligatures in Latin lookup 0 subtable" i j
EndChar

StartChar: jcircumflex
Encoding: 645 309 538
Width: 222
Flags: MW
HStem: -218 72<-27.5 0.5 -27.5 11.5> 504 20G<180 264 264 264>
VStem: -65 452
LayerCount: 2
Fore
SplineSet
180 524 m 1
 264 524 l 1
 130 -109 l 2
 112 -191 69 -218 -46 -218 c 0
 -55 -218 -58 -217 -65 -215 c 1
 -50 -144 l 1
 -32 -146 -30 -146 -25 -146 c 0
 26 -146 41 -132 53 -76 c 2
 180 524 l 1
228 828 m 1
 323 828 l 1
 387 678 l 1
 324 678 l 1
 268 777 l 1
 164 678 l 1
 100 678 l 1
 228 828 l 1
EndSplineSet
EndChar

StartChar: Kcommaaccent
Encoding: 314 310 207
Width: 667
Flags: MW
HStem: -158 98<286 320 265 386> 0 20 709 20<234 328 328 328 693 813 813 813>
LayerCount: 2
Fore
SplineSet
226 249 m 1
 173 0 l 1
 79 0 l 1
 234 729 l 1
 328 729 l 1
 249 356 l 1
 693 729 l 1
 813 729 l 1
 452 431 l 1
 658 0 l 1
 548 0 l 1
 380 376 l 1
 226 249 l 1
286 -60 m 1
 386 -60 l 1
 367 -153 l 1
 349 -235 301 -284 238 -284 c 1
 246 -246 l 1
 285 -246 309 -217 320 -158 c 1
 265 -158 l 1
 286 -60 l 1
EndSplineSet
EndChar

StartChar: kcommaaccent
Encoding: 377 311 270
Width: 500
Flags: MW
HStem: -158 98<207 241 186 307> 0 20 709 20<213 297 297 297>
LayerCount: 2
Fore
SplineSet
297 729 m 1
 207 306 l 1
 476 524 l 1
 584 524 l 1
 362 343 l 1
 502 0 l 1
 406 0 l 1
 292 291 l 1
 185 203 l 1
 142 0 l 1
 58 0 l 1
 213 729 l 1
 297 729 l 1
207 -60 m 1
 307 -60 l 1
 288 -153 l 1
 270 -235 222 -284 159 -284 c 1
 167 -246 l 1
 206 -246 230 -217 241 -158 c 1
 186 -158 l 1
 207 -60 l 1
EndSplineSet
EndChar

StartChar: Lacute
Encoding: 281 313 174
Width: 556
Flags: MW
HStem: 0 82<191 534> 709 20<235 329 329 329>
LayerCount: 2
Fore
SplineSet
329 729 m 1
 191 82 l 1
 551 82 l 1
 534 0 l 1
 80 0 l 1
 235 729 l 1
 329 729 l 1
368 939 m 1
 480 939 l 1
 300 791 l 1
 240 791 l 1
 368 939 l 1
EndSplineSet
EndChar

StartChar: lacute
Encoding: 346 314 239
Width: 222
Flags: W
HStem: 0 20 709 20<223 307 307 307> 720 20
LayerCount: 2
Fore
SplineSet
307 729 m 1xc0
 152 0 l 1
 68 0 l 1
 223 729 l 1
 307 729 l 1xc0
351 939 m 1x20
 463 939 l 1
 283 791 l 1
 223 791 l 1
 351 939 l 1x20
EndSplineSet
EndChar

StartChar: Lcommaaccent
Encoding: 315 315 208
Width: 556
Flags: MW
HStem: -158 98<244 278 223 344> 0 82<191 534> 709 20<235 329 329 329>
LayerCount: 2
Fore
SplineSet
329 729 m 1
 191 82 l 1
 551 82 l 1
 534 0 l 1
 80 0 l 1
 235 729 l 1
 329 729 l 1
244 -60 m 1
 344 -60 l 1
 325 -153 l 1
 307 -235 259 -284 196 -284 c 1
 204 -246 l 1
 243 -246 267 -217 278 -158 c 1
 223 -158 l 1
 244 -60 l 1
EndSplineSet
EndChar

StartChar: lcommaaccent
Encoding: 378 316 271
Width: 222
Flags: MW
HStem: -158 98<47 81 26 147> 709 20<223 307 307 307>
LayerCount: 2
Fore
SplineSet
307 729 m 1
 152 0 l 1
 68 0 l 1
 223 729 l 1
 307 729 l 1
47 -60 m 1
 147 -60 l 1
 128 -153 l 1
 110 -235 62 -284 -1 -284 c 1
 7 -246 l 1
 46 -246 70 -217 81 -158 c 1
 26 -158 l 1
 47 -60 l 1
EndSplineSet
EndChar

StartChar: Lcaron
Encoding: 282 317 175
Width: 556
Flags: W
HStem: 0 82<191 534> 631 98<429 463 235 408> 709 20<235 329 329 329 429 529 529 529>
LayerCount: 2
Fore
SplineSet
329 729 m 1xa0
 191 82 l 1
 551 82 l 1
 534 0 l 1
 80 0 l 1
 235 729 l 1
 329 729 l 1xa0
429 729 m 1x40
 529 729 l 1
 510 636 l 1
 492 554 444 505 381 505 c 1
 389 543 l 1
 428 543 452 572 463 631 c 1
 408 631 l 1
 429 729 l 1x40
EndSplineSet
EndChar

StartChar: lcaron
Encoding: 347 318 240
Width: 307
Flags: W
HStem: 0 20 631 98<367 401 223 346> 709 20<223 307 307 307 367 467 467 467>
LayerCount: 2
Fore
SplineSet
307 729 m 1xa0
 152 0 l 1
 68 0 l 1
 223 729 l 1
 307 729 l 1xa0
367 729 m 1x40
 467 729 l 1
 448 636 l 1
 430 554 382 505 319 505 c 1
 327 543 l 1
 366 543 390 572 401 631 c 1
 346 631 l 1
 367 729 l 1x40
EndSplineSet
EndChar

StartChar: Ldot
Encoding: 647 319 540
Width: 556
Flags: MW
HStem: 0 82<191 534> 313 103<375 458 353 480> 709 20G<235 329 329 329>
VStem: 80 471<0 82>
LayerCount: 2
Fore
SplineSet
480 416 m 1
 458 313 l 1
 353 313 l 1
 375 416 l 1
 480 416 l 1
329 729 m 1
 191 82 l 1
 551 82 l 1
 534 0 l 1
 80 0 l 1
 235 729 l 1
 329 729 l 1
EndSplineSet
Ligature2: "'liga' Standard Ligatures in Latin lookup 0 subtable" L periodcentered
EndChar

StartChar: ldot
Encoding: 648 320 541
Width: 500
Flags: MW
HStem: 0 21G<68 152 68 68> 290 103<340 423 318 445> 709 20G<223 307 307 307>
VStem: 68 377
LayerCount: 2
Fore
SplineSet
445 393 m 1
 423 290 l 1
 318 290 l 1
 340 393 l 1
 445 393 l 1
307 729 m 1
 152 0 l 1
 68 0 l 1
 223 729 l 1
 307 729 l 1
EndSplineSet
Ligature2: "'liga' Standard Ligatures in Latin lookup 0 subtable" l periodcentered
EndChar

StartChar: Lslash
Encoding: 232 321 139
Width: 556
Flags: MW
HStem: 0 82<211 552> 709 20<255 349 349 349>
LayerCount: 2
Fore
SplineSet
261 315 m 1
 211 82 l 1
 570 82 l 1
 552 0 l 1
 100 0 l 1
 158 276 l 1
 75 225 l 1
 92 304 l 1
 175 355 l 1
 255 729 l 1
 349 729 l 1
 278 394 l 1
 474 512 l 1
 457 433 l 1
 261 315 l 1
EndSplineSet
EndChar

StartChar: lslash
Encoding: 248 322 145
Width: 222
Flags: MW
HStem: 0 20 709 20<222 306 306 306>
LayerCount: 2
Fore
SplineSet
239 414 m 1
 312 456 l 1
 298 389 l 1
 225 347 l 1
 151 0 l 1
 67 0 l 1
 134 314 l 1
 62 270 l 1
 76 337 l 1
 149 382 l 1
 222 729 l 1
 306 729 l 1
 239 414 l 1
EndSplineSet
EndChar

StartChar: Nacute
Encoding: 283 323 176
Width: 722
Flags: MW
HStem: 0 20 709 20<231 335 335 335 712 801 801 801>
LayerCount: 2
Fore
SplineSet
801 729 m 1
 646 0 l 1
 540 0 l 1
 291 591 l 1
 165 0 l 1
 76 0 l 1
 231 729 l 1
 335 729 l 1
 585 131 l 1
 712 729 l 1
 801 729 l 1
594 939 m 1
 706 939 l 1
 526 791 l 1
 466 791 l 1
 594 939 l 1
EndSplineSet
EndChar

StartChar: nacute
Encoding: 348 324 241
Width: 556
Flags: W
HStem: 0 20 467 72<400 424> 504 20<181 257 257 257> 720 20<468 580 580 580>
VStem: 486 88<407.5 409>
LayerCount: 2
Fore
SplineSet
181 524 m 1xa8
 257 524 l 1x28
 244 459 l 1
 296 512 362 539 438 539 c 0
 521 539 574 490 574 414 c 0
 574 401 573 389 570 376 c 2
 490 0 l 1
 406 0 l 1
 480 349 l 2
 484 365 486 380 486 386 c 0
 486 432 449 467 399 467 c 0xc8
 309 467 239 399 215 289 c 2
 154 0 l 1
 70 0 l 1
 181 524 l 1xa8
468 740 m 1x18
 580 740 l 1
 400 592 l 1
 340 592 l 1
 468 740 l 1x18
EndSplineSet
EndChar

StartChar: Ncommaaccent
Encoding: 316 325 209
Width: 722
Flags: MW
HStem: -158 98<282 316 261 382> 0 20 709 20<231 335 335 335 712 801 801 801>
LayerCount: 2
Fore
SplineSet
801 729 m 1
 646 0 l 1
 540 0 l 1
 291 591 l 1
 165 0 l 1
 76 0 l 1
 231 729 l 1
 335 729 l 1
 585 131 l 1
 712 729 l 1
 801 729 l 1
282 -60 m 1
 382 -60 l 1
 363 -153 l 1
 345 -235 297 -284 234 -284 c 1
 242 -246 l 1
 281 -246 305 -217 316 -158 c 1
 261 -158 l 1
 282 -60 l 1
EndSplineSet
EndChar

StartChar: ncommaaccent
Encoding: 379 326 272
Width: 556
Flags: W
HStem: -158 98<217 251 196 317> 0 20 467 72<400 424> 504 20<181 257 257 257>
VStem: 486 88<407.5 409>
LayerCount: 2
Fore
SplineSet
181 524 m 1x58
 257 524 l 1x18
 244 459 l 1
 296 512 362 539 438 539 c 0
 521 539 574 490 574 414 c 0
 574 401 573 389 570 376 c 2
 490 0 l 1
 406 0 l 1
 480 349 l 2
 484 365 486 380 486 386 c 0
 486 432 449 467 399 467 c 0x68
 309 467 239 399 215 289 c 2
 154 0 l 1
 70 0 l 1
 181 524 l 1x58
217 -60 m 1x88
 317 -60 l 1
 298 -153 l 1
 280 -235 232 -284 169 -284 c 1
 177 -246 l 1
 216 -246 240 -217 251 -158 c 1
 196 -158 l 1
 217 -60 l 1x88
EndSplineSet
EndChar

StartChar: Ncaron
Encoding: 284 327 177
Width: 722
Flags: MW
HStem: 0 20 709 20<231 335 335 335 712 801 801 801>
LayerCount: 2
Fore
SplineSet
801 729 m 1
 646 0 l 1
 540 0 l 1
 291 591 l 1
 165 0 l 1
 76 0 l 1
 231 729 l 1
 335 729 l 1
 585 131 l 1
 712 729 l 1
 801 729 l 1
570 791 m 1
 475 791 l 1
 411 939 l 1
 474 939 l 1
 530 841 l 1
 634 939 l 1
 698 939 l 1
 570 791 l 1
EndSplineSet
EndChar

StartChar: ncaron
Encoding: 349 328 242
Width: 556
Flags: W
HStem: 0 20 467 72<400 424> 504 20<181 257 257 257> 720 20<291 354 354 354 514 578 578 578>
VStem: 486 88<407.5 409>
LayerCount: 2
Fore
SplineSet
181 524 m 1xa8
 257 524 l 1x28
 244 459 l 1
 296 512 362 539 438 539 c 0
 521 539 574 490 574 414 c 0
 574 401 573 389 570 376 c 2
 490 0 l 1
 406 0 l 1
 480 349 l 2
 484 365 486 380 486 386 c 0
 486 432 449 467 399 467 c 0xc8
 309 467 239 399 215 289 c 2
 154 0 l 1
 70 0 l 1
 181 524 l 1xa8
450 592 m 1x18
 355 592 l 1
 291 740 l 1
 354 740 l 1
 410 642 l 1
 514 740 l 1
 578 740 l 1
 450 592 l 1x18
EndSplineSet
EndChar

StartChar: napostrophe
Encoding: 649 329 542
Width: 556
Flags: MW
HStem: 0 21G<70 154 70 70 406 490 406 406> 467 72<400 424> 557 38<193 201> 665 20G<220 268 220 220>
VStem: 486 88<407.5 409>
LayerCount: 2
Fore
SplineSet
242 788 m 1
 336 788 l 1
 315 688 l 2
 298 609 254 561 193 557 c 1
 201 595 l 1
 237 600 258 628 268 685 c 1
 220 685 l 1
 242 788 l 1
181 524 m 1
 257 524 l 1
 244 459 l 1
 296 512 362 539 438 539 c 0
 521 539 574 490 574 414 c 0
 574 401 573 389 570 376 c 2
 490 0 l 1
 406 0 l 1
 480 349 l 2
 484 365 486 380 486 386 c 0
 486 432 449 467 399 467 c 0
 309 467 239 399 215 289 c 2
 154 0 l 1
 70 0 l 1
 181 524 l 1
EndSplineSet
EndChar

StartChar: Eng
Encoding: 650 330 543
Width: 722
Flags: MW
HStem: -156 55<451 473 451 502.5> 0 21G<76 165 76 76 538 538 646 646> 709 20G<231 335 335 335 712 801 801 801>
LayerCount: 2
Fore
SplineSet
646 0 m 2
 628 -85 566 -156 439 -156 c 1
 451 -101 l 1
 495 -101 542 -60 542 -19 c 0
 542 -13 541 -6 538 0 c 2
 291 591 l 1
 165 0 l 1
 76 0 l 1
 231 729 l 1
 335 729 l 1
 585 131 l 1
 712 729 l 1
 801 729 l 1
 646 0 l 2
EndSplineSet
EndChar

StartChar: eng
Encoding: 651 331 544
Width: 556
Flags: MW
HStem: -126 55<325 350.5 325 376.5> 0 21G<70 154 70 70 406 406 490 490> 467 72<400 424>
VStem: 486 88<407.5 409>
LayerCount: 2
Fore
SplineSet
406 0 m 2
 480 349 l 2
 483 365 486 380 486 386 c 0
 486 432 449 467 399 467 c 0
 309 467 239 399 215 289 c 2
 154 0 l 1
 70 0 l 1
 181 524 l 1
 257 524 l 1
 244 459 l 1
 296 512 362 539 438 539 c 0
 521 539 574 490 574 414 c 0
 574 401 573 389 570 376 c 2
 490 0 l 2
 472 -85 440 -126 313 -126 c 1
 325 -71 l 1
 376 -71 396 -48 406 0 c 2
EndSplineSet
EndChar

StartChar: omacron
Encoding: 380 333 273
Width: 556
Flags: MW
HStem: -23 77<247.5 317> 462 77<338 408> 627 69<284 544 269 559>
VStem: 80 88<144 206.5> 488 88<308.5 373.5>
LayerCount: 2
Fore
SplineSet
384 539 m 0
 442 539 487 523 521 490 c 0
 556 456 576 405 576 352 c 0
 576 265 543 156 497 93 c 0
 441 16 365 -23 269 -23 c 0
 157 -23 80 53 80 164 c 0
 80 249 113 359 158 423 c 0
 209 497 291 539 384 539 c 0
371 462 m 0
 305 462 249 425 212 357 c 0
 185 307 168 241 168 184 c 0
 168 104 212 54 283 54 c 0
 352 54 406 90 444 159 c 0
 471 209 488 274 488 333 c 0
 488 414 445 462 371 462 c 0
559 696 m 1
 544 627 l 1
 269 627 l 1
 284 696 l 1
 559 696 l 1
EndSplineSet
EndChar

StartChar: Obreve
Encoding: 652 334 545
Width: 778
Flags: MW
HStem: -23 81<371.5 438> 660 81<480.5 559> 829 72<553.5 589.5>
VStem: 104 96<242 317 242 326.5> 438 58<898.5 951> 732 96<400.5 475.5>
LayerCount: 2
Fore
SplineSet
443 964 m 1
 496 964 l 1
 496 956 l 1
 496 951 l 2
 496 921 529 901 578 901 c 0
 637 901 678 924 688 964 c 1
 744 964 l 1
 733 920 722 899 698 878 c 0
 665 848 614 829 565 829 c 0
 490 829 438 869 438 928 c 0
 438 937 439 945 443 964 c 1
537 741 m 0
 628 741 707 713 756 664 c 0
 800 619 828 543 828 464 c 0
 828 306 752 144 635 54 c 0
 570 4 485 -23 391 -23 c 0
 306 -23 225 6 177 54 c 0
 131 100 104 177 104 263 c 0
 104 390 157 522 246 614 c 0
 327 699 424 741 537 741 c 0
525 660 m 0
 431 660 342 613 284 533 c 0
 231 460 200 363 200 271 c 0
 200 213 214 164 241 130 c 0
 276 86 339 58 404 58 c 0
 501 58 589 104 647 185 c 1
 700 257 732 355 732 446 c 0
 732 505 718 553 691 588 c 0
 657 632 593 660 525 660 c 0
EndSplineSet
EndChar

StartChar: obreve
Encoding: 653 335 546
Width: 556
Flags: MW
HStem: -23 77<247.5 317> 462 77<338 408> 624 72<394.5 430.5>
VStem: 80 88<144 206.5> 279 58<693.5 746> 488 88<308.5 373.5>
LayerCount: 2
Fore
SplineSet
284 759 m 1
 337 759 l 1
 337 751 l 1
 337 746 l 2
 337 716 370 696 419 696 c 0
 478 696 519 719 529 759 c 1
 585 759 l 1
 574 715 563 694 539 673 c 0
 506 643 455 624 406 624 c 0
 331 624 279 664 279 723 c 0
 279 732 280 740 284 759 c 1
384 539 m 0
 442 539 487 523 521 490 c 0
 556 456 576 405 576 352 c 0
 576 265 543 156 497 93 c 0
 441 16 365 -23 269 -23 c 0
 157 -23 80 53 80 164 c 0
 80 249 113 359 158 423 c 0
 209 497 291 539 384 539 c 0
371 462 m 0
 305 462 249 425 212 357 c 0
 185 307 168 241 168 184 c 0
 168 104 212 54 283 54 c 0
 352 54 406 90 444 159 c 0
 471 209 488 274 488 333 c 0
 488 414 445 462 371 462 c 0
EndSplineSet
EndChar

StartChar: ohungarumlaut
Encoding: 356 337 249
Width: 556
Flags: MW
HStem: -23 77<247.5 317> 462 77<338 408> 720 20<397 509 509 509 571 683 683 683>
VStem: 80 88<144 206.5> 488 88<308.5 373.5>
LayerCount: 2
Fore
SplineSet
384 539 m 0
 442 539 487 523 521 490 c 0
 556 456 576 405 576 352 c 0
 576 265 543 156 497 93 c 0
 441 16 365 -23 269 -23 c 0
 157 -23 80 53 80 164 c 0
 80 249 113 359 158 423 c 0
 209 497 291 539 384 539 c 0
371 462 m 0
 305 462 249 425 212 357 c 0
 185 307 168 241 168 184 c 0
 168 104 212 54 283 54 c 0
 352 54 406 90 444 159 c 0
 471 209 488 274 488 333 c 0
 488 414 445 462 371 462 c 0
397 740 m 1
 509 740 l 1
 329 590 l 1
 269 590 l 1
 397 740 l 1
571 740 m 1
 683 740 l 1
 503 590 l 1
 443 590 l 1
 571 740 l 1
EndSplineSet
EndChar

StartChar: OE
Encoding: 234 338 141
Width: 1000
Flags: W
HStem: -23 81<304 375.5> 0 82<634 957> 327 82<687 1031 704 1013> 647 82<755 1091 755 755> 660 81<450 524>
VStem: 101 96<171 270 171 289>
LayerCount: 2
Fore
SplineSet
687 327 m 1x34
 634 82 l 1
 974 82 l 1
 957 0 l 1
 523 0 l 1x64
 539 77 l 1
 482 7 419 -23 332 -23 c 0
 193 -23 101 73 101 219 c 0
 101 359 158 529 235 616 c 0
 304 693 404 741 496 741 c 0x8c
 579 741 631 714 662 653 c 1
 678 729 l 1
 1108 729 l 1
 1091 647 l 1
 755 647 l 1
 704 409 l 1
 1031 409 l 1
 1013 327 l 1
 687 327 l 1x34
562 182 m 1x8c
 638 539 l 1
 619 621 568 660 480 660 c 0
 393 660 320 613 269 523 c 0
 229 454 197 318 197 222 c 0
 197 120 256 58 352 58 c 0
 436 58 505 99 562 182 c 1x8c
EndSplineSet
EndChar

StartChar: oe
Encoding: 250 339 147
Width: 944
Flags: MW
HStem: -23 77<250.5 318 250.5 318.5 644 716> 234 72<581 875 581 949 563 875> 462 77<339 407 734 798.5>
VStem: 85 88<142 205.5> 878 88<354.5 376>
LayerCount: 2
Fore
SplineSet
838 159 m 1
 922 159 l 1
 890 50 788 -23 667 -23 c 0
 598 -23 550 1 508 55 c 0
 499 66 496 72 491 84 c 1
 441 17 362 -23 275 -23 c 0
 217 -23 171 -7 139 26 c 0
 105 61 85 112 85 165 c 0
 85 246 117 354 162 422 c 0
 212 497 292 539 386 539 c 0
 470 539 529 503 558 436 c 1
 601 495 693 539 775 539 c 0
 883 539 966 464 966 368 c 0
 966 341 961 299 952 251 c 2
 949 234 l 1
 563 234 l 1
 558 208 556 196 556 176 c 0
 556 102 605 54 683 54 c 0
 749 54 802 90 838 159 c 1
371 462 m 0
 261 462 173 338 173 181 c 0
 173 103 216 54 285 54 c 0
 351 54 408 92 445 159 c 0
 471 207 487 275 487 334 c 0
 487 414 443 462 371 462 c 0
581 306 m 1
 875 306 l 1
 877 320 878 328 878 338 c 0
 878 414 833 462 764 462 c 0
 682 462 607 398 581 306 c 1
EndSplineSet
EndChar

StartChar: Racute
Encoding: 292 340 185
Width: 722
Flags: W
HStem: 0 20 314 82<254 502 271 493> 647 82<325 555 325 325>
VStem: 562 101<39.5 82> 594 96<255 263.5> 674 96<544 570>
LayerCount: 2
Fore
SplineSet
254 314 m 1xe8
 187 0 l 1
 93 0 l 1
 248 729 l 1
 584 729 l 2
 712 729 770 681 770 575 c 0xe4
 770 513 743 446 703 409 c 0
 685 393 669 382 630 360 c 1
 677 329 690 308 690 264 c 0xe8
 690 246 682 194 669 126 c 0
 665 105 663 88 663 76 c 0
 663 54 671 35 684 23 c 1
 679 0 l 1
 566 0 l 1
 563 21 562 32 562 47 c 0xf0
 562 79 562 79 586 179 c 0
 591 201 594 222 594 239 c 0
 594 288 558 314 493 314 c 2
 254 314 l 1xe8
271 396 m 1
 502 396 l 2
 566 396 608 413 637 449 c 0
 659 477 674 521 674 558 c 0
 674 582 666 605 653 619 c 0
 634 640 608 647 555 647 c 2
 325 647 l 1
 271 396 l 1
577 939 m 1
 689 939 l 1
 509 791 l 1
 449 791 l 1
 577 939 l 1
EndSplineSet
EndChar

StartChar: racute
Encoding: 357 341 250
Width: 333
Flags: W
HStem: 0 20 504 20<180 256 256 256> 519 20<375 409.5> 720 20<386 498 498 498>
LayerCount: 2
Fore
SplineSet
180 524 m 1xc0
 256 524 l 1x40
 239 442 l 1
 301 513 346 539 404 539 c 0x20
 415 539 423 538 436 536 c 1
 418 451 l 1
 308 455 237 394 211 272 c 2
 153 0 l 1
 69 0 l 1
 180 524 l 1xc0
386 740 m 1x10
 498 740 l 1
 318 592 l 1
 258 592 l 1
 386 740 l 1x10
EndSplineSet
EndChar

StartChar: Rcommaaccent
Encoding: 318 342 211
Width: 722
Flags: W
HStem: -158 98<310 344 289 410> 0 20 314 82<254 502 271 493> 647 82<325 555 325 325>
VStem: 562 101<39.5 82> 594 96<255 263.5> 674 96<544 570>
LayerCount: 2
Fore
SplineSet
254 314 m 1xf4
 187 0 l 1
 93 0 l 1
 248 729 l 1
 584 729 l 2
 712 729 770 681 770 575 c 0xf2
 770 513 743 446 703 409 c 0
 685 393 669 382 630 360 c 1
 677 329 690 308 690 264 c 0xf4
 690 246 682 194 669 126 c 0
 665 105 663 88 663 76 c 0
 663 54 671 35 684 23 c 1
 679 0 l 1
 566 0 l 1
 563 21 562 32 562 47 c 0xf8
 562 79 562 79 586 179 c 0
 591 201 594 222 594 239 c 0
 594 288 558 314 493 314 c 2
 254 314 l 1xf4
271 396 m 1
 502 396 l 2
 566 396 608 413 637 449 c 0
 659 477 674 521 674 558 c 0
 674 582 666 605 653 619 c 0
 634 640 608 647 555 647 c 2
 325 647 l 1
 271 396 l 1
310 -60 m 1xf0
 410 -60 l 1
 391 -153 l 1
 373 -235 325 -284 262 -284 c 1
 270 -246 l 1
 309 -246 333 -217 344 -158 c 1
 289 -158 l 1
 310 -60 l 1xf0
EndSplineSet
EndChar

StartChar: rcommaaccent
Encoding: 381 343 274
Width: 333
Flags: W
HStem: -158 98<53 87 32 153> 504 20<181 256 256 256> 519 20<375 409.5>
LayerCount: 2
Fore
SplineSet
181 524 m 1xc0
 256 524 l 1xc0
 239 442 l 1
 302 513 346 539 404 539 c 0x20
 415 539 423 538 436 536 c 1
 418 451 l 1
 408 451 l 1
 305 452 235 388 211 272 c 2
 153 0 l 1
 69 0 l 1
 181 524 l 1xc0
53 -60 m 1
 153 -60 l 1
 134 -153 l 1
 116 -235 68 -284 5 -284 c 1
 13 -246 l 1
 52 -246 76 -217 87 -158 c 1
 32 -158 l 1
 53 -60 l 1
EndSplineSet
EndChar

StartChar: rcaron
Encoding: 384 345 277
Width: 333
Flags: W
HStem: 0 20 504 20<180 256 256 256> 519 20<375 409.5> 720 20<199 262 262 262 422 486 486 486>
LayerCount: 2
Fore
SplineSet
180 524 m 1xc0
 256 524 l 1x40
 239 442 l 1
 301 513 346 539 404 539 c 0x20
 415 539 423 538 436 536 c 1
 418 451 l 1
 308 455 237 394 211 272 c 2
 153 0 l 1
 69 0 l 1
 180 524 l 1xc0
358 592 m 1x10
 263 592 l 1
 199 740 l 1
 262 740 l 1
 318 642 l 1
 422 740 l 1
 486 740 l 1
 358 592 l 1x10
EndSplineSet
EndChar

StartChar: Scircumflex
Encoding: 654 348 547
Width: 667
Flags: W
HStem: -23 81<289.5 382.5> 660 81<437 498>
VStem: 89 92<145.5 179.5> 178 96<496 517.5> 573 96<209 233> 622 92<563.5 565.5>
LayerCount: 2
Fore
SplineSet
495 979 m 1xc0
 590 979 l 1
 654 829 l 1
 591 829 l 1
 535 928 l 1
 431 829 l 1
 367 829 l 1
 495 979 l 1xc0
706 515 m 1
 618 515 l 1
 621 535 622 542 622 551 c 0
 622 580 609 612 590 629 c 0
 568 649 526 660 470 660 c 0
 404 660 355 644 318 611 c 0
 289 584 274 553 274 518 c 0xd4
 274 474 298 454 375 432 c 2
 547 383 l 2
 594 370 623 350 645 315 c 0
 660 291 669 263 669 237 c 0
 669 181 633 108 582 61 c 0
 523 6 435 -23 330 -23 c 0
 179 -23 89 49 89 169 c 0
 89 190 91 206 98 232 c 1
 185 232 l 1
 182 213 181 204 181 191 c 0
 181 100 233 58 346 58 c 0
 426 58 485 77 526 114 c 0
 554 140 573 178 573 209 c 0xe8
 573 257 540 286 460 309 c 2
 289 357 l 2
 222 376 178 429 178 492 c 0
 178 543 209 614 250 656 c 0
 304 712 385 741 488 741 c 0
 566 741 619 725 660 689 c 0
 693 660 714 614 714 571 c 0xd4
 714 556 712 543 706 515 c 1
EndSplineSet
EndChar

StartChar: scircumflex
Encoding: 655 349 548
Width: 500
Flags: W
HStem: -23 77<227.5 283.5 227.5 321.5> 462 77<320.5 368.5>
VStem: 61 93<106 113> 123 88<354 368.5> 405 88<141 154.5> 431 89<414.5 419.5>
LayerCount: 2
Fore
SplineSet
362 774 m 1xc0
 457 774 l 1
 521 624 l 1
 458 624 l 1
 402 723 l 1
 298 624 l 1
 234 624 l 1
 362 774 l 1xc0
514 378 m 1
 430 378 l 1
 431 386 431 393 431 400 c 0
 431 439 398 462 339 462 c 0
 295 462 265 452 241 429 c 0
 223 412 211 387 211 367 c 0xd4
 211 341 240 321 296 307 c 2
 372 288 l 2
 460 266 493 234 493 173 c 0
 493 54 396 -23 247 -23 c 0
 131 -23 61 25 61 105 c 0
 61 121 62 133 67 156 c 1
 156 156 l 1
 155 146 154 137 154 131 c 0
 154 81 193 54 262 54 c 0
 305 54 348 67 373 88 c 0
 389 101 405 132 405 150 c 0xe8
 405 159 399 174 392 183 c 0
 383 194 368 200 335 209 c 2
 261 228 l 2
 158 255 123 284 123 345 c 0
 123 392 147 444 183 479 c 0
 224 518 285 539 356 539 c 0
 453 539 520 491 520 421 c 0xd4
 520 408 519 399 514 378 c 1
EndSplineSet
EndChar

StartChar: Scedilla
Encoding: 296 350 189
Width: 667
Flags: W
HStem: -214 43<253 285.5 253 305> -94 152<296.5 307> 660 81<437 498>
VStem: 89 92<145.5 179.5> 178 96<496 517.5> 330 78<-132 -110> 573 96<201 233> 622 92<563 565>
LayerCount: 2
Fore
SplineSet
338 -22 m 1xea
 320 -56 l 1
 333 -54 336 -54 341 -54 c 0
 378 -54 408 -77 408 -105 c 0
 408 -168 347 -214 263 -214 c 0
 225 -214 197 -206 145 -180 c 1
 173 -142 l 1
 213 -163 239 -171 267 -171 c 0
 304 -171 330 -148 330 -116 c 0
 330 -104 315 -94 299 -94 c 0
 294 -94 294 -94 279 -97 c 2
 272 -98 l 1
 259 -92 l 1
 296 -22 l 1
 227 -13 199 -4 169 15 c 0
 118 49 89 105 89 169 c 0
 89 190 91 206 98 232 c 1
 185 232 l 1
 182 213 181 204 181 191 c 0
 181 100 233 58 346 58 c 0
 426 58 485 77 526 114 c 0
 554 140 573 179 573 209 c 0xf6
 573 257 540 286 460 309 c 2
 289 357 l 2
 222 376 178 429 178 492 c 0
 178 543 209 614 250 656 c 0
 304 712 385 741 488 741 c 0
 566 741 619 725 660 689 c 0
 693 660 714 614 714 571 c 0
 714 555 712 543 706 515 c 1
 618 515 l 1
 621 535 622 543 622 551 c 0xe9
 622 579 609 612 590 629 c 0
 568 649 526 660 470 660 c 0
 404 660 355 644 318 611 c 0
 289 584 274 553 274 518 c 0
 274 474 298 454 375 432 c 2
 547 383 l 2
 594 370 623 350 645 315 c 0
 660 291 669 263 669 237 c 0
 669 165 616 78 545 32 c 0
 489 -4 422 -22 338 -22 c 1xea
EndSplineSet
EndChar

StartChar: scedilla
Encoding: 385 351 278
Width: 500
Flags: W
HStem: -214 43<170 202.5 170 222> -94 148<213.5 283.5> 462 77<321 369>
VStem: 61 93<106 113> 123 88<354 368.5> 247 78<-132 -110> 406 88<141 154.5>
LayerCount: 2
Fore
SplineSet
255 -23 m 1xea
 237 -56 l 1
 250 -54 253 -54 258 -54 c 0
 295 -54 325 -77 325 -105 c 0
 325 -168 264 -214 180 -214 c 0
 142 -214 113 -206 62 -180 c 1
 90 -142 l 1
 130 -163 156 -171 184 -171 c 0
 221 -171 247 -148 247 -116 c 0
 247 -104 233 -94 216 -94 c 0
 211 -94 211 -94 196 -97 c 2
 189 -98 l 1
 176 -92 l 1
 214 -22 l 1
 112 -9 61 33 61 105 c 0
 61 121 63 133 67 156 c 1
 156 156 l 1
 155 146 154 137 154 131 c 0xf4
 154 81 193 54 262 54 c 0
 305 54 349 67 374 88 c 0
 390 101 406 132 406 150 c 0
 406 159 400 174 393 183 c 0
 384 194 369 200 335 209 c 2
 261 228 l 2
 158 255 123 284 123 345 c 0
 123 392 147 444 183 479 c 0
 224 518 286 539 356 539 c 0
 454 539 521 491 521 421 c 0
 521 409 519 399 514 378 c 1
 431 378 l 1
 431 389 l 1
 431 394 l 1
 431 400 l 2
 431 440 398 462 340 462 c 0
 295 462 265 452 241 429 c 0
 223 412 211 387 211 367 c 0
 211 341 240 321 296 307 c 2
 372 288 l 2
 461 266 494 234 494 173 c 0
 494 109 461 49 409 17 c 0
 366 -9 323 -20 255 -23 c 1xea
EndSplineSet
EndChar

StartChar: Tcommaaccent
Encoding: 309 354 202
Width: 611
Flags: MW
HStem: -158 98<244 278 223 344> 0 20 647 82<175 399 158 748 493 731 493 493>
LayerCount: 2
Fore
SplineSet
493 647 m 1
 355 0 l 1
 261 0 l 1
 399 647 l 1
 158 647 l 1
 175 729 l 1
 748 729 l 1
 731 647 l 1
 493 647 l 1
244 -60 m 1
 344 -60 l 1
 325 -153 l 1
 307 -235 259 -284 196 -284 c 1
 204 -246 l 1
 243 -246 267 -217 278 -158 c 1
 223 -158 l 1
 244 -60 l 1
EndSplineSet
EndChar

StartChar: tcommaaccent
Encoding: 373 355 266
Width: 278
Flags: MW
HStem: -158 98<103 137 82 203> -23 72<158.5 224.5> 457 67<122 179 108 193 277 351>
VStem: 97 86<31.5 78>
LayerCount: 2
Fore
SplineSet
366 524 m 1
 351 457 l 1
 263 457 l 1
 185 90 l 2
 184 85 183 80 183 76 c 0
 183 60 197 49 218 49 c 0
 231 49 238 50 267 57 c 1
 251 -16 l 1
 236 -20 206 -23 186 -23 c 0
 131 -23 97 7 97 56 c 0
 97 68 98 77 100 87 c 2
 179 457 l 1
 108 457 l 1
 122 524 l 1
 193 524 l 1
 224 668 l 1
 308 668 l 1
 277 524 l 1
 366 524 l 1
103 -60 m 1
 203 -60 l 1
 184 -153 l 1
 166 -235 118 -284 55 -284 c 1
 63 -246 l 1
 102 -246 126 -217 137 -158 c 1
 82 -158 l 1
 103 -60 l 1
EndSplineSet
EndChar

StartChar: Tcaron
Encoding: 297 356 190
Width: 611
Flags: MW
HStem: 0 20 647 82<175 399 158 748 493 731 493 493>
LayerCount: 2
Fore
SplineSet
493 647 m 1
 355 0 l 1
 261 0 l 1
 399 647 l 1
 158 647 l 1
 175 729 l 1
 748 729 l 1
 731 647 l 1
 493 647 l 1
524 791 m 1
 429 791 l 1
 365 939 l 1
 428 939 l 1
 484 841 l 1
 588 939 l 1
 652 939 l 1
 524 791 l 1
EndSplineSet
EndChar

StartChar: tcaron
Encoding: 361 357 254
Width: 319
Flags: MW
HStem: -23 72<158.5 225> 457 67<122 179 108 193 277 352> 631 98
VStem: 97 86<31.5 77.5>
LayerCount: 2
Fore
SplineSet
366 524 m 1
 352 457 l 1
 263 457 l 1
 185 90 l 2
 184 84 183 79 183 76 c 0
 183 60 197 49 219 49 c 0
 231 49 236 50 267 57 c 1
 251 -16 l 1
 237 -20 206 -23 186 -23 c 0
 131 -23 97 7 97 56 c 0
 97 66 98 77 100 87 c 2
 179 457 l 1
 108 457 l 1
 122 524 l 1
 193 524 l 1
 224 668 l 1
 308 668 l 1
 277 524 l 1
 366 524 l 1
392 801 m 1
 492 801 l 1
 473 708 l 1
 455 626 407 577 344 577 c 1
 352 615 l 1
 391 615 415 644 426 703 c 1
 371 703 l 1
 392 801 l 1
EndSplineSet
EndChar

StartChar: Tbar
Encoding: 656 358 549
Width: 611
Flags: MW
HStem: 0 21G<261 355 261 261> 355 69<261 337 246 351 445 521> 647 82<175 399 158 748 493 493 493 731>
LayerCount: 2
Fore
SplineSet
351 424 m 1
 399 647 l 1
 158 647 l 1
 175 729 l 1
 748 729 l 1
 731 647 l 1
 493 647 l 1
 445 424 l 1
 536 424 l 1
 521 355 l 1
 431 355 l 1
 355 0 l 1
 261 0 l 1
 337 355 l 1
 246 355 l 1
 261 424 l 1
 351 424 l 1
EndSplineSet
EndChar

StartChar: tbar
Encoding: 657 359 550
Width: 278
Flags: MW
HStem: -23 72<158.5 225> 256 69<81 136 66 151 235 315> 457 67<122 179 108 193 277 352>
LayerCount: 2
Fore
SplineSet
151 325 m 1
 179 457 l 1
 108 457 l 1
 122 524 l 1
 193 524 l 1
 224 668 l 1
 308 668 l 1
 277 524 l 1
 366 524 l 1
 352 457 l 1
 263 457 l 1
 235 325 l 1
 330 325 l 1
 315 256 l 1
 220 256 l 1
 185 90 l 2
 184 84 183 79 183 76 c 0
 183 60 197 49 219 49 c 0
 231 49 236 50 267 57 c 1
 251 -16 l 1
 237 -20 206 -23 186 -23 c 0
 131 -23 97 7 97 56 c 0
 97 66 98 77 100 87 c 2
 136 256 l 1
 66 256 l 1
 81 325 l 1
 151 325 l 1
EndSplineSet
EndChar

StartChar: Utilde
Encoding: 658 360 551
Width: 722
Flags: W
HStem: -23 81<333 437.5 333 447> 709 20G<240 334 334 334 706 800 800 800> 830 70<617 632 617 637.5> 862 70<475.5 488>
VStem: 124 96<138.5 162.5>
LayerCount: 2
Fore
SplineSet
670 937 m 1xe8
 723 937 l 1
 702 872 660 830 615 830 c 0xe8
 593 830 576 834 512 856 c 0
 501 860 491 862 485 862 c 0
 466 862 454 856 442 838 c 0
 440 836 438 833 435 829 c 1
 382 829 l 1
 394 864 402 881 414 896 c 0
 430 917 461 932 486 932 c 0xd8
 503 932 520 928 559 915 c 0
 585 906 612 900 622 900 c 0
 642 900 652 908 670 937 c 1xe8
706 729 m 1
 800 729 l 1
 691 217 l 2
 660 71 531 -23 363 -23 c 0
 286 -23 220 -2 179 35 c 0
 147 64 124 114 124 155 c 0
 124 170 131 218 138 251 c 2
 240 729 l 1
 334 729 l 1
 225 217 l 2
 222 201 220 187 220 173 c 0
 220 104 285 58 381 58 c 0
 494 58 576 118 597 217 c 2
 706 729 l 1
EndSplineSet
EndChar

StartChar: utilde
Encoding: 659 361 552
Width: 556
Flags: W
HStem: -23 72<241 265> 504 20G<177 261 261 261 510 594 594 594> 625 70<483 498 483 503.5> 657 70<341.5 354>
VStem: 88 91<52 130>
LayerCount: 2
Fore
SplineSet
536 732 m 1xe8
 589 732 l 1
 568 667 526 625 481 625 c 0xe8
 459 625 442 629 378 651 c 0
 367 655 357 657 351 657 c 0
 332 657 320 651 308 633 c 0
 306 631 304 628 301 624 c 1
 248 624 l 1
 260 659 268 676 280 691 c 0
 296 712 327 727 352 727 c 0xd8
 369 727 386 723 425 710 c 0
 451 701 478 695 488 695 c 0
 508 695 518 703 536 732 c 1xe8
483 0 m 1
 407 0 l 1
 419 57 l 1
 361 1 304 -23 226 -23 c 0
 140 -23 88 18 88 86 c 0
 88 99 89 110 91 120 c 2
 177 524 l 1
 261 524 l 1
 182 153 l 2
 180 143 179 134 179 126 c 0
 179 79 214 49 268 49 c 0
 353 49 424 119 447 227 c 2
 510 524 l 1
 594 524 l 1
 483 0 l 1
EndSplineSet
EndChar

StartChar: Umacron
Encoding: 320 362 213
Width: 722
Flags: MW
HStem: -23 81<333 437.5 333 447> 826 69<418 677 403 692>
VStem: 124 96<139 163>
LayerCount: 2
Fore
SplineSet
706 729 m 1
 800 729 l 1
 691 217 l 2
 660 71 531 -23 363 -23 c 0
 286 -23 220 -2 179 35 c 0
 147 64 124 114 124 155 c 0
 124 171 131 217 138 251 c 2
 240 729 l 1
 334 729 l 1
 225 217 l 2
 222 202 220 187 220 174 c 0
 220 104 285 58 381 58 c 0
 494 58 576 118 597 217 c 2
 706 729 l 1
692 895 m 1
 677 826 l 1
 403 826 l 1
 418 895 l 1
 692 895 l 1
EndSplineSet
EndChar

StartChar: umacron
Encoding: 382 363 275
Width: 556
Flags: MW
HStem: -23 72<241 265> 504 20<177 261 261 261 510 594 594 594> 627 69<285 545 270 560>
VStem: 88 91<52 130>
LayerCount: 2
Fore
SplineSet
483 0 m 1
 407 0 l 1
 419 57 l 1
 361 1 304 -23 226 -23 c 0
 140 -23 88 18 88 86 c 0
 88 99 89 110 91 120 c 2
 177 524 l 1
 261 524 l 1
 182 153 l 2
 180 143 179 134 179 126 c 0
 179 79 214 49 268 49 c 0
 353 49 424 119 447 227 c 2
 510 524 l 1
 594 524 l 1
 483 0 l 1
560 696 m 1
 545 627 l 1
 270 627 l 1
 285 696 l 1
 560 696 l 1
EndSplineSet
EndChar

StartChar: Ubreve
Encoding: 660 364 553
Width: 722
Flags: MW
HStem: -23 81<333 437.5 333 447> 709 20G<240 334 334 334 706 800 800 800> 829 72<529.5 565.5>
VStem: 124 96<138.5 162.5> 414 58<898.5 951>
LayerCount: 2
Fore
SplineSet
419 964 m 1
 472 964 l 1
 472 956 l 1
 472 951 l 2
 472 921 505 901 554 901 c 0
 613 901 654 924 664 964 c 1
 720 964 l 1
 709 920 698 899 674 878 c 0
 641 848 590 829 541 829 c 0
 466 829 414 869 414 928 c 0
 414 937 415 945 419 964 c 1
706 729 m 1
 800 729 l 1
 691 217 l 2
 660 71 531 -23 363 -23 c 0
 286 -23 220 -2 179 35 c 0
 147 64 124 114 124 155 c 0
 124 170 131 218 138 251 c 2
 240 729 l 1
 334 729 l 1
 225 217 l 2
 222 201 220 187 220 173 c 0
 220 104 285 58 381 58 c 0
 494 58 576 118 597 217 c 2
 706 729 l 1
EndSplineSet
EndChar

StartChar: ubreve
Encoding: 661 365 554
Width: 556
Flags: MW
HStem: -23 72<241 265> 504 20G<177 261 261 261 510 594 594 594> 624 72<395.5 431.5>
VStem: 88 91<52 130> 280 58<693.5 746>
LayerCount: 2
Fore
SplineSet
285 759 m 1
 338 759 l 1
 338 751 l 1
 338 746 l 2
 338 716 371 696 420 696 c 0
 479 696 520 719 530 759 c 1
 586 759 l 1
 575 715 564 694 540 673 c 0
 507 643 456 624 407 624 c 0
 332 624 280 664 280 723 c 0
 280 732 281 740 285 759 c 1
483 0 m 1
 407 0 l 1
 419 57 l 1
 361 1 304 -23 226 -23 c 0
 140 -23 88 18 88 86 c 0
 88 99 89 110 91 120 c 2
 177 524 l 1
 261 524 l 1
 182 153 l 2
 180 143 179 134 179 126 c 0
 179 79 214 49 268 49 c 0
 353 49 424 119 447 227 c 2
 510 524 l 1
 594 524 l 1
 483 0 l 1
EndSplineSet
EndChar

StartChar: Uring
Encoding: 302 366 195
Width: 722
Flags: MW
HStem: -23 81<333 437.5 333 447> 778 44<530 553.5 530 558.5> 909 44<546 569.5>
VStem: 124 96<139 163> 459 46<846.5 870 846.5 874.5> 594 45<861 884>
LayerCount: 2
Fore
SplineSet
706 729 m 1
 800 729 l 1
 691 217 l 2
 660 71 531 -23 363 -23 c 0
 286 -23 220 -2 179 35 c 0
 147 64 124 114 124 155 c 0
 124 171 131 217 138 251 c 2
 240 729 l 1
 334 729 l 1
 225 217 l 2
 222 202 220 187 220 174 c 0
 220 104 285 58 381 58 c 0
 494 58 576 118 597 217 c 2
 706 729 l 1
567 953 m 0
 608 953 639 924 639 886 c 0
 639 830 587 778 530 778 c 0
 490 778 459 809 459 848 c 0
 459 901 513 953 567 953 c 0
560 909 m 0
 532 909 505 883 505 857 c 0
 505 836 520 822 540 822 c 0
 567 822 594 848 594 874 c 0
 594 894 579 909 560 909 c 0
EndSplineSet
EndChar

StartChar: uring
Encoding: 366 367 259
Width: 556
Flags: W
HStem: -23 72<241 265> 504 20<177 261 261 261 510 594 594 594> 579 44<395 418.5 395 423.5> 710 44<411 434.5>
VStem: 88 46 88 91<52 130> 223 45
LayerCount: 2
Fore
SplineSet
483 0 m 1xf4
 407 0 l 1
 419 57 l 1
 361 1 304 -23 226 -23 c 0
 140 -23 88 18 88 86 c 0
 88 99 89 110 91 120 c 2
 177 524 l 1
 261 524 l 1
 182 153 l 2
 180 143 179 134 179 126 c 0
 179 79 214 49 268 49 c 0
 353 49 424 119 447 227 c 2
 510 524 l 1
 594 524 l 1
 483 0 l 1xf4
432 754 m 0xfa
 473 754 504 725 504 687 c 0
 504 631 452 579 395 579 c 0
 355 579 324 610 324 649 c 0
 324 702 378 754 432 754 c 0xfa
425 710 m 0
 397 710 370 684 370 658 c 0
 370 637 385 623 405 623 c 0
 432 623 459 649 459 675 c 0
 459 695 444 710 425 710 c 0
EndSplineSet
EndChar

StartChar: Uhungarumlaut
Encoding: 303 368 196
Width: 722
Flags: MW
HStem: -23 81<333 437.5 333 447>
VStem: 124 96<139 163>
LayerCount: 2
Fore
SplineSet
706 729 m 1
 800 729 l 1
 691 217 l 2
 660 71 531 -23 363 -23 c 0
 286 -23 220 -2 179 35 c 0
 147 64 124 114 124 155 c 0
 124 171 131 217 138 251 c 2
 240 729 l 1
 334 729 l 1
 225 217 l 2
 222 202 220 187 220 174 c 0
 220 104 285 58 381 58 c 0
 494 58 576 118 597 217 c 2
 706 729 l 1
520 939 m 1
 632 939 l 1
 452 789 l 1
 392 789 l 1
 520 939 l 1
694 939 m 1
 806 939 l 1
 626 789 l 1
 566 789 l 1
 694 939 l 1
EndSplineSet
EndChar

StartChar: uhungarumlaut
Encoding: 367 369 260
Width: 556
Flags: MW
HStem: -23 72<241 265> 504 20<177 261 261 261 510 594 594 594> 720 20<397 509 509 509 571 683 683 683>
VStem: 88 91<52 130>
LayerCount: 2
Fore
SplineSet
483 0 m 1
 407 0 l 1
 419 57 l 1
 361 1 304 -23 226 -23 c 0
 140 -23 88 18 88 86 c 0
 88 99 89 110 91 120 c 2
 177 524 l 1
 261 524 l 1
 182 153 l 2
 180 143 179 134 179 126 c 0
 179 79 214 49 268 49 c 0
 353 49 424 119 447 227 c 2
 510 524 l 1
 594 524 l 1
 483 0 l 1
397 740 m 1
 509 740 l 1
 329 590 l 1
 269 590 l 1
 397 740 l 1
571 740 m 1
 683 740 l 1
 503 590 l 1
 443 590 l 1
 571 740 l 1
EndSplineSet
EndChar

StartChar: Uogonek
Encoding: 321 370 214
Width: 722
Flags: MW
HStem: -205 45<477 503> -23 81<333 381.5> 709 20<240 334 334 334 706 800 800 800>
VStem: 124 96<138.5 162.5> 356 75<-129 -105.5>
LayerCount: 2
Fore
SplineSet
568 -150 m 1
 559 -195 l 1
 537 -203 519 -205 487 -205 c 0
 403 -205 356 -177 356 -127 c 0
 356 -84 388 -46 453 -13 c 1
 415 -21 397 -23 366 -23 c 0
 285 -23 221 -3 179 35 c 0
 147 64 124 114 124 155 c 0
 124 170 131 218 138 251 c 2
 240 729 l 1
 334 729 l 1
 225 217 l 2
 222 201 220 187 220 173 c 0
 220 104 285 58 381 58 c 0
 494 58 576 118 597 217 c 2
 706 729 l 1
 800 729 l 1
 691 217 l 1
 668 121 624 65 514 -6 c 1
 463 -41 431 -84 431 -116 c 0
 431 -142 457 -160 497 -160 c 0
 524 -160 549 -156 568 -150 c 1
EndSplineSet
EndChar

StartChar: uogonek
Encoding: 383 371 276
Width: 556
Flags: MW
HStem: -205 45<418 432.5> -23 72<241 265> 504 20<177 261 261 261 510 594 594 594>
VStem: 88 91<52 130> 304 74<-127.5 -105 -127.5 -103>
LayerCount: 2
Fore
SplineSet
594 524 m 1
 483 0 l 1
 461 -12 447 -22 414 -53 c 1
 389 -75 378 -95 378 -115 c 0
 378 -140 403 -160 433 -160 c 0
 453 -160 478 -156 495 -150 c 1
 486 -195 l 1
 465 -202 446 -205 419 -205 c 0
 348 -205 304 -175 304 -127 c 0
 304 -79 348 -33 427 0 c 1
 407 0 l 1
 419 57 l 1
 361 1 304 -23 226 -23 c 0
 140 -23 88 18 88 86 c 0
 88 99 89 110 91 120 c 2
 177 524 l 1
 261 524 l 1
 182 153 l 2
 180 143 179 134 179 126 c 0
 179 79 214 49 268 49 c 0
 353 49 424 119 447 227 c 2
 510 524 l 1
 594 524 l 1
EndSplineSet
EndChar

StartChar: Wcircumflex
Encoding: 662 372 555
Width: 944
Flags: MW
HStem: 0 21G<209 311 209 209 642 744 642 642> 709 20G<177 277 277 277 580 676 676 676 980 1084 1084 1084>
VStem: 177 100<729 729>
LayerCount: 2
Fore
SplineSet
636 979 m 1
 731 979 l 1
 795 829 l 1
 732 829 l 1
 676 928 l 1
 572 829 l 1
 508 829 l 1
 636 979 l 1
744 0 m 1
 642 0 l 1
 601 592 l 1
 311 0 l 1
 209 0 l 1
 177 729 l 1
 277 729 l 1
 292 137 l 1
 580 729 l 1
 676 729 l 1
 717 137 l 1
 980 729 l 1
 1084 729 l 1
 744 0 l 1
EndSplineSet
EndChar

StartChar: wcircumflex
Encoding: 663 373 556
Width: 722
Flags: MW
HStem: 0 21G<158 254 158 158 461 556 461 461> 504 20G<118 209 209 209 417 522 522 522 729 820 820 820>
LayerCount: 2
Fore
SplineSet
475 774 m 1
 570 774 l 1
 634 624 l 1
 571 624 l 1
 515 723 l 1
 411 624 l 1
 347 624 l 1
 475 774 l 1
556 0 m 1
 461 0 l 1
 449 418 l 1
 254 0 l 1
 158 0 l 1
 118 524 l 1
 209 524 l 1
 228 116 l 1
 417 524 l 1
 522 524 l 1
 533 116 l 1
 729 524 l 1
 820 524 l 1
 556 0 l 1
EndSplineSet
EndChar

StartChar: Ycircumflex
Encoding: 664 374 557
Width: 667
Flags: MW
HStem: 0 21G<293 387 293 293> 709 20G<168 280 280 280 705 816 816 816>
LayerCount: 2
Fore
SplineSet
498 979 m 1
 593 979 l 1
 657 829 l 1
 594 829 l 1
 538 928 l 1
 434 829 l 1
 370 829 l 1
 498 979 l 1
448 286 m 1
 387 0 l 1
 293 0 l 1
 354 286 l 1
 168 729 l 1
 280 729 l 1
 416 372 l 1
 705 729 l 1
 816 729 l 1
 448 286 l 1
EndSplineSet
EndChar

StartChar: ycircumflex
Encoding: 665 375 558
Width: 500
Flags: MW
HStem: -218 81<63 86.5 63 92.5> 504 20G<132 222 222 222 501 590 590 590>
LayerCount: 2
Fore
SplineSet
367 774 m 1
 462 774 l 1
 526 624 l 1
 463 624 l 1
 407 723 l 1
 303 624 l 1
 239 624 l 1
 367 774 l 1
501 524 m 1
 590 524 l 1
 222 -110 l 2
 179 -184 128 -218 57 -218 c 0
 38 -218 26 -216 8 -208 c 1
 24 -133 l 1
 51 -136 58 -137 68 -137 c 0
 105 -137 121 -127 148 -85 c 2
 200 -4 l 1
 132 524 l 1
 222 524 l 1
 268 117 l 1
 501 524 l 1
EndSplineSet
EndChar

StartChar: Ydieresis
Encoding: 310 376 203
Width: 667
Flags: MW
HStem: 0 20 709 20<168 280 280 280 705 816 816 816> 811 103<400 482 378 504 400 539 561 643>
LayerCount: 2
Fore
SplineSet
448 286 m 1
 387 0 l 1
 293 0 l 1
 354 286 l 1
 168 729 l 1
 280 729 l 1
 416 372 l 1
 705 729 l 1
 816 729 l 1
 448 286 l 1
504 914 m 1
 482 811 l 1
 378 811 l 1
 400 914 l 1
 504 914 l 1
665 914 m 1
 643 811 l 1
 539 811 l 1
 561 914 l 1
 665 914 l 1
EndSplineSet
EndChar

StartChar: Zacute
Encoding: 305 377 198
Width: 611
Flags: MW
HStem: 0 82<163 584> 647 82<212 601 195 737>
LayerCount: 2
Fore
SplineSet
737 729 m 1
 719 645 l 1
 163 82 l 1
 601 82 l 1
 584 0 l 1
 28 0 l 1
 46 84 l 1
 601 647 l 1
 195 647 l 1
 212 729 l 1
 737 729 l 1
552 939 m 1
 664 939 l 1
 484 791 l 1
 424 791 l 1
 552 939 l 1
EndSplineSet
EndChar

StartChar: zacute
Encoding: 369 378 262
Width: 500
Flags: MW
HStem: 0 72<147 458> 452 72<165 444 150 557> 720 20<440 552 552 552>
LayerCount: 2
Fore
SplineSet
557 524 m 1
 539 449 l 1
 147 72 l 1
 473 72 l 1
 458 0 l 1
 31 0 l 1
 49 74 l 1
 444 452 l 1
 150 452 l 1
 165 524 l 1
 557 524 l 1
440 740 m 1
 552 740 l 1
 372 592 l 1
 312 592 l 1
 440 740 l 1
EndSplineSet
EndChar

StartChar: Zdotaccent
Encoding: 307 379 200
Width: 611
Flags: MW
HStem: 0 82<163 584> 647 82<212 601 195 737> 811 103<458 540 436 562>
LayerCount: 2
Fore
SplineSet
737 729 m 1
 719 645 l 1
 163 82 l 1
 601 82 l 1
 584 0 l 1
 28 0 l 1
 46 84 l 1
 601 647 l 1
 195 647 l 1
 212 729 l 1
 737 729 l 1
562 914 m 1
 540 811 l 1
 436 811 l 1
 458 914 l 1
 562 914 l 1
EndSplineSet
EndChar

StartChar: zdotaccent
Encoding: 371 380 264
Width: 500
Flags: MW
HStem: 0 72<147 458> 452 72<165 444 150 557> 612 103<346 428 324 450>
LayerCount: 2
Fore
SplineSet
557 524 m 1
 539 449 l 1
 147 72 l 1
 473 72 l 1
 458 0 l 1
 31 0 l 1
 49 74 l 1
 444 452 l 1
 150 452 l 1
 165 524 l 1
 557 524 l 1
450 715 m 1
 428 612 l 1
 324 612 l 1
 346 715 l 1
 450 715 l 1
EndSplineSet
EndChar

StartChar: Zcaron
Encoding: 306 381 199
Width: 611
Flags: MW
HStem: 0 82<163 584> 647 82<212 601 195 737>
LayerCount: 2
Fore
SplineSet
737 729 m 1
 719 645 l 1
 163 82 l 1
 601 82 l 1
 584 0 l 1
 28 0 l 1
 46 84 l 1
 601 647 l 1
 195 647 l 1
 212 729 l 1
 737 729 l 1
531 791 m 1
 436 791 l 1
 372 939 l 1
 435 939 l 1
 491 841 l 1
 595 939 l 1
 659 939 l 1
 531 791 l 1
EndSplineSet
EndChar

StartChar: zcaron
Encoding: 370 382 263
Width: 500
Flags: MW
HStem: 0 72<147 458> 452 72<165 444 150 557> 720 20<261 324 324 324 484 548 548 548>
LayerCount: 2
Fore
SplineSet
557 524 m 1
 539 449 l 1
 147 72 l 1
 473 72 l 1
 458 0 l 1
 31 0 l 1
 49 74 l 1
 444 452 l 1
 150 452 l 1
 165 524 l 1
 557 524 l 1
420 592 m 1
 325 592 l 1
 261 740 l 1
 324 740 l 1
 380 642 l 1
 484 740 l 1
 548 740 l 1
 420 592 l 1
EndSplineSet
EndChar

StartChar: longs
Encoding: 666 383 559
Width: 278
Flags: W
HStem: 0 21G<89 173 89 89> 457 67<130 186 116 200> 658 69<398 413> 660 72<349.5 374.5>
VStem: 89 324
LayerCount: 2
Fore
SplineSet
173 0 m 1xd8
 89 0 l 1
 186 457 l 1
 116 457 l 1
 130 524 l 1
 200 524 l 1
 219 613 l 2
 235 687 291 732 368 732 c 0xd8
 384 732 395 731 413 727 c 1
 398 658 l 1xe8
 384 660 378 660 371 660 c 0
 328 660 310 643 299 593 c 2
 173 0 l 1xd8
EndSplineSet
EndChar

StartChar: florin
Encoding: 166 402 100
Width: 556
Flags: MW
HStem: -212 77<43 76.5> 392 72<240 337 225 365 454 552 240 425> 661 77<578.5 610.5>
LayerCount: 2
Fore
SplineSet
567 464 m 1
 552 392 l 1
 425 392 l 1
 267 -5 l 2
 211 -146 133 -212 20 -212 c 0
 -2 -212 -15 -209 -32 -202 c 1
 3 -116 l 1
 20 -130 33 -135 53 -135 c 0
 103 -135 141 -99 172 -21 c 2
 337 392 l 1
 225 392 l 1
 240 464 l 1
 365 464 l 1
 408 567 l 2
 451 670 535 738 621 738 c 0
 647 738 671 732 696 719 c 1
 650 641 l 1
 631 656 619 661 602 661 c 0
 555 661 513 617 481 533 c 2
 454 464 l 1
 567 464 l 1
EndSplineSet
EndChar

StartChar: Scommaaccent
Encoding: 388 536 281
Width: 667
Flags: W
HStem: -158 98<276 310 255 376> -23 81<289.5 382.5> 660 81<437 498>
VStem: 89 92<145.5 179.5> 178 96<496 517.5> 573 96<209 233> 622 92<563.5 565.5>
LayerCount: 2
Fore
SplineSet
706 515 m 1xea
 618 515 l 1
 621 535 622 542 622 551 c 0
 622 580 609 612 590 629 c 0
 568 649 526 660 470 660 c 0
 404 660 355 644 318 611 c 0
 289 584 274 553 274 518 c 0xea
 274 474 298 454 375 432 c 2
 547 383 l 2
 594 370 623 350 645 315 c 0
 660 291 669 263 669 237 c 0
 669 181 633 108 582 61 c 0
 523 6 435 -23 330 -23 c 0
 179 -23 89 49 89 169 c 0
 89 190 91 206 98 232 c 1
 185 232 l 1
 182 213 181 204 181 191 c 0
 181 100 233 58 346 58 c 0
 426 58 485 77 526 114 c 0
 554 140 573 178 573 209 c 0xf4
 573 257 540 286 460 309 c 2
 289 357 l 2
 222 376 178 429 178 492 c 0
 178 543 209 614 250 656 c 0
 304 712 385 741 488 741 c 0
 566 741 619 725 660 689 c 0
 693 660 714 614 714 571 c 0
 714 556 712 543 706 515 c 1xea
276 -60 m 1xe0
 376 -60 l 1
 357 -153 l 1
 339 -235 291 -284 228 -284 c 1
 236 -246 l 1
 275 -246 299 -217 310 -158 c 1
 255 -158 l 1
 276 -60 l 1xe0
EndSplineSet
EndChar

StartChar: scommaaccent
Encoding: 360 537 253
Width: 500
Flags: W
HStem: -158 98<191 225 170 291> -23 77<227.5 283.5 227.5 321.5> 462 77<320.5 368.5>
VStem: 61 93<106 113> 123 88<354 368.5> 405 88<141 154.5> 431 89<414.5 419.5>
LayerCount: 2
Fore
SplineSet
514 378 m 1xea
 430 378 l 1
 431 386 431 393 431 400 c 0
 431 439 398 462 339 462 c 0
 295 462 265 452 241 429 c 0
 223 412 211 387 211 367 c 0xea
 211 341 240 321 296 307 c 2
 372 288 l 2
 460 266 493 234 493 173 c 0
 493 54 396 -23 247 -23 c 0
 131 -23 61 25 61 105 c 0
 61 121 62 133 67 156 c 1
 156 156 l 1
 155 146 154 137 154 131 c 0
 154 81 193 54 262 54 c 0
 305 54 348 67 373 88 c 0
 389 101 405 132 405 150 c 0xf4
 405 159 399 174 392 183 c 0
 383 194 368 200 335 209 c 2
 261 228 l 2
 158 255 123 284 123 345 c 0
 123 392 147 444 183 479 c 0
 224 518 285 539 356 539 c 0
 453 539 520 491 520 421 c 0
 520 408 519 399 514 378 c 1xea
191 -60 m 1xe0
 291 -60 l 1
 272 -153 l 1
 254 -235 206 -284 143 -284 c 1
 151 -246 l 1
 190 -246 214 -217 225 -158 c 1
 170 -158 l 1
 191 -60 l 1xe0
EndSplineSet
EndChar

StartChar: circumflex
Encoding: 195 710 125
Width: 333
Flags: MW
HStem: 721 20<274 369 369 369>
LayerCount: 2
Fore
SplineSet
274 741 m 1
 369 741 l 1
 433 591 l 1
 370 591 l 1
 314 690 l 1
 210 591 l 1
 146 591 l 1
 274 741 l 1
EndSplineSet
EndChar

StartChar: caron
Encoding: 207 711 135
Width: 333
Flags: MW
HStem: 720 20<176 239 239 239 399 463 463 463>
LayerCount: 2
Fore
SplineSet
335 592 m 1
 240 592 l 1
 176 740 l 1
 239 740 l 1
 295 642 l 1
 399 740 l 1
 463 740 l 1
 335 592 l 1
EndSplineSet
EndChar

StartChar: breve
Encoding: 198 728 128
Width: 333
Flags: MW
HStem: 594 72<280.5 316.5> 709 20<170 223 223 223 415 471 471 471>
LayerCount: 2
Fore
SplineSet
170 729 m 1
 223 729 l 1
 223 721 l 1
 223 716 l 2
 223 686 256 666 305 666 c 0
 364 666 405 689 415 729 c 1
 471 729 l 1
 460 685 449 664 425 643 c 0
 392 613 341 594 292 594 c 0
 217 594 165 634 165 693 c 0
 165 702 166 710 170 729 c 1
EndSplineSet
EndChar

StartChar: dotaccent
Encoding: 199 729 129
Width: 333
Flags: MW
HStem: 612 103<266 348 244 370>
LayerCount: 2
Fore
SplineSet
370 715 m 1
 348 612 l 1
 244 612 l 1
 266 715 l 1
 370 715 l 1
EndSplineSet
EndChar

StartChar: ring
Encoding: 202 730 131
Width: 333
Flags: MW
HStem: 579 44<287 310.5 287 315.5> 710 44<303 326.5>
VStem: 216 46<647.5 671 647.5 675.5> 351 45<662 685>
LayerCount: 2
Fore
SplineSet
324 754 m 0
 365 754 396 725 396 687 c 0
 396 631 344 579 287 579 c 0
 247 579 216 610 216 649 c 0
 216 702 270 754 324 754 c 0
317 710 m 0
 289 710 262 684 262 658 c 0
 262 637 277 623 297 623 c 0
 324 623 351 649 351 675 c 0
 351 695 336 710 317 710 c 0
EndSplineSet
EndChar

StartChar: ogonek
Encoding: 206 731 134
Width: 333
Flags: MW
HStem: -205 45<156.5 183>
VStem: 35 75<-129 -111.5>
LayerCount: 2
Fore
SplineSet
165 0 m 1
 234 0 l 1
 230 -3 222 -6 212 -11 c 0
 162 -36 147 -46 130 -66 c 0
 117 -81 110 -100 110 -116 c 0
 110 -142 137 -160 176 -160 c 0
 203 -160 228 -156 246 -150 c 1
 237 -195 l 1
 216 -202 197 -205 169 -205 c 0
 84 -205 35 -177 35 -130 c 0
 35 -93 56 -59 94 -34 c 0
 113 -22 130 -13 165 0 c 1
EndSplineSet
EndChar

StartChar: tilde
Encoding: 196 732 126
Width: 333
Flags: W
HStem: 612 70<365 380 365 385.5> 644 70<223.5 236>
LayerCount: 2
Fore
SplineSet
418 719 m 1x80
 471 719 l 1
 450 654 408 612 363 612 c 0x80
 341 612 324 616 260 638 c 0
 249 642 239 644 233 644 c 0
 214 644 202 638 190 620 c 0
 188 618 186 615 183 611 c 1
 130 611 l 1
 142 646 150 663 162 678 c 0
 178 699 209 714 234 714 c 0x40
 251 714 268 710 307 697 c 0
 333 688 360 682 370 682 c 0
 390 682 400 690 418 719 c 1x80
EndSplineSet
EndChar

StartChar: hungarumlaut
Encoding: 205 733 133
Width: 333
Flags: MW
HStem: 720 20<219 331 331 331 393 505 505 505>
LayerCount: 2
Fore
SplineSet
219 740 m 1
 331 740 l 1
 151 590 l 1
 91 590 l 1
 219 740 l 1
393 740 m 1
 505 740 l 1
 325 590 l 1
 265 590 l 1
 393 740 l 1
EndSplineSet
EndChar

StartChar: Delta
Encoding: 412 916 305
Width: 712
Flags: MW
HStem: 0 82<160 584 160 701> 709 20<459 559 559 559>
LayerCount: 2
Fore
SplineSet
10 0 m 1
 459 729 l 1
 559 729 l 1
 701 0 l 1
 10 0 l 1
160 82 m 1
 584 82 l 1
 485 616 l 1
 160 82 l 1
EndSplineSet
EndChar

StartChar: mu
Encoding: 421 956 314
Width: 556
Flags: MW
HStem: -220 20 -23 73<239.5 265.5> 504 20<176 260 260 260 509 593 593 593>
LayerCount: 2
Fore
SplineSet
554 49 m 1
 540 -14 l 1
 534 -15 529 -16 527 -17 c 0
 505 -22 499 -23 486 -23 c 0
 432 -23 411 -5 411 41 c 0
 411 45 412 52 414 60 c 1
 360 4 300 -23 231 -23 c 0
 194 -23 171 -15 150 6 c 1
 102 -220 l 1
 18 -220 l 1
 176 524 l 1
 260 524 l 1
 183 160 l 2
 181 150 180 141 180 130 c 0
 180 80 213 50 266 50 c 0
 352 50 423 120 446 227 c 2
 509 524 l 1
 593 524 l 1
 500 88 l 2
 499 85 499 81 499 77 c 0
 499 57 512 46 537 46 c 0
 543 46 546 47 554 49 c 1
EndSplineSet
EndChar

StartChar: afii10051
Encoding: 489 1026 382
Width: 686
Flags: MW
HStem: -140 82<388 453 411 453 453 471> 0 21G<144 237 144 144 635 635> 365 82<332 514 315 532> 647 82<98 281 81 590 374 374 374 573>
VStem: 603 93<300.5 318>
LayerCount: 2
Fore
SplineSet
388 -140 m 1
 411 -58 l 1
 453 -58 l 2
 518 -58 533 -28 542 10 c 2
 599 267 l 2
 602 278 603 288 603 298 c 0
 603 338 580 365 514 365 c 2
 315 365 l 1
 237 0 l 1
 144 0 l 1
 281 647 l 1
 81 647 l 1
 98 729 l 1
 590 729 l 1
 573 647 l 1
 374 647 l 1
 332 447 l 1
 532 447 l 2
 642 447 696 388 696 307 c 0
 696 294 695 279 691 264 c 2
 635 0 l 2
 618 -77 581 -140 471 -140 c 2
 388 -140 l 1
EndSplineSet
EndChar

StartChar: afii10052
Encoding: 490 1027 383
Width: 611
Flags: MW
HStem: 0 21G<90 183 90 90> 647 82<321 717 321 321>
LayerCount: 2
Fore
SplineSet
603 949 m 1
 715 949 l 1
 535 801 l 1
 475 801 l 1
 603 949 l 1
183 0 m 1
 90 0 l 1
 245 729 l 1
 734 729 l 1
 717 647 l 1
 321 647 l 1
 183 0 l 1
EndSplineSet
EndChar

StartChar: afii10053
Encoding: 491 1028 384
Width: 717
Flags: MW
HStem: -23 82<317.5 403.5 317.5 447> 304 82<215 564 200 581> 659 82<478.5 548>
VStem: 104 94<196 266.5 196 342.5> 668 96<452 452>
LayerCount: 2
Fore
SplineSet
215 386 m 1
 581 386 l 1
 564 304 l 1
 200 304 l 1
 198 289 198 274 198 259 c 0
 198 133 261 59 374 59 c 0
 433 59 492 77 528 105 c 0
 560 130 581 161 604 215 c 1
 699 215 l 1
 636 55 527 -23 367 -23 c 0
 189 -23 104 85 104 253 c 0
 104 432 184 571 285 656 c 0
 353 714 431 741 526 741 c 0
 687 741 767 662 767 505 c 0
 767 488 766 471 764 452 c 1
 668 452 l 1
 671 502 668 536 659 565 c 0
 642 625 587 659 509 659 c 0
 371 659 258 554 215 386 c 1
EndSplineSet
EndChar

StartChar: afii10054
Encoding: 492 1029 385
Width: 667
Flags: MW
HStem: -23 82<238.5 298.5> 663 78<342 449>
LayerCount: 2
Fore
SplineSet
629 515 m 1
 541 515 l 1
 560 610 507 663 391 663 c 0
 293 663 217 614 201 540 c 1
 190 484 216 456 299 432 c 2
 471 383 l 2
 564 356 606 290 587 200 c 0
 574 137 529 72 472 33 c 1
 417 -3 342 -23 255 -23 c 0
 144 -23 67 13 32 81 c 0
 11 121 8 165 21 232 c 1
 109 232 l 1
 98 187 103 152 123 120 c 0
 149 78 199 59 278 59 c 0
 337 59 386 70 419 90 c 0
 454 112 484 152 492 191 c 0
 504 248 470 285 383 309 c 2
 213 357 l 2
 122 382 87 438 106 527 c 0
 134 659 250 741 410 741 c 0
 578 741 659 658 629 515 c 1
EndSplineSet
EndChar

StartChar: afii10055
Encoding: 493 1030 386
Width: 278
Flags: MW
HStem: 0 21G<100 194 100 100> 709 20G<255 349 349 349>
VStem: 100 249
LayerCount: 2
Fore
SplineSet
349 729 m 1
 194 0 l 1
 100 0 l 1
 255 729 l 1
 349 729 l 1
EndSplineSet
EndChar

StartChar: afii10056
Encoding: 494 1031 387
Width: 278
Flags: MW
HStem: 0 21G<100 194 100 100> 709 20G<255 349 349 349> 804 103<202 284 180 306 202 341 363 445>
VStem: 100 367
LayerCount: 2
Fore
SplineSet
349 729 m 1
 194 0 l 1
 100 0 l 1
 255 729 l 1
 349 729 l 1
306 907 m 1
 284 804 l 1
 180 804 l 1
 202 907 l 1
 306 907 l 1
467 907 m 1
 445 804 l 1
 341 804 l 1
 363 907 l 1
 467 907 l 1
EndSplineSet
EndChar

StartChar: afii10057
Encoding: 495 1032 388
Width: 500
Flags: MW
HStem: -23 81<206 251.5 206 279> 709 20G<487 581 581 581>
VStem: 47 96<111.5 129>
LayerCount: 2
Fore
SplineSet
487 729 m 1
 581 729 l 1
 465 182 l 2
 437 51 345 -23 213 -23 c 0
 164 -23 130 -13 102 9 c 0
 68 37 47 79 47 122 c 0
 47 136 49 153 53 170 c 2
 67 234 l 1
 161 234 l 1
 147 168 l 2
 144 156 143 145 143 134 c 0
 143 89 179 58 233 58 c 0
 270 58 307 75 331 102 c 0
 353 127 366 160 378 216 c 2
 487 729 l 1
EndSplineSet
EndChar

StartChar: afii10058
Encoding: 496 1033 389
Width: 1087
Flags: W
HStem: 0 82<583 801> 0 94<26 67 26 87> 333 82<654 834 834 863 636 834> 647 82<348 610 348 348>
VStem: 971 91<212 250.5>
LayerCount: 2
Fore
SplineSet
271 729 m 1x78
 720 729 l 1
 654 415 l 1
 834 415 l 2
 992 415 1062 348 1062 234 c 0
 1062 152 1024 105 973 61 c 0
 925 19 870 0 801 0 c 2
 472 0 l 1xb8
 610 647 l 1
 348 647 l 1
 299 420 l 2
 254 214 168 0 6 0 c 1
 26 94 l 1
 108 94 164 234 204 418 c 2
 271 729 l 1x78
583 82 m 1
 810 82 l 2
 855 82 887 93 914 117 c 0
 948 146 971 185 971 239 c 0
 971 262 965 282 953 298 c 0
 936 322 908 333 863 333 c 2
 636 333 l 1
 583 82 l 1
EndSplineSet
EndChar

StartChar: afii10059
Encoding: 497 1034 390
Width: 1164
Flags: MW
HStem: 0 82<660 879> 332 82<264 620 247 638> 709 20G<237 330 330 330 704 797 797 797>
VStem: 1048 91<195 268>
LayerCount: 2
Fore
SplineSet
550 0 m 1
 620 332 l 1
 247 332 l 1
 177 0 l 1
 83 0 l 1
 237 729 l 1
 330 729 l 1
 264 414 l 1
 638 414 l 1
 704 729 l 1
 797 729 l 1
 731 415 l 1
 911 415 l 2
 1075 415 1139 349 1139 236 c 0
 1139 96 1014 0 879 0 c 2
 550 0 l 1
660 82 m 1
 887 82 l 2
 985 82 1048 153 1048 237 c 0
 1048 299 1012 333 940 333 c 2
 713 333 l 1
 660 82 l 1
EndSplineSet
EndChar

StartChar: afii10060
Encoding: 498 1035 391
Width: 646
Flags: MW
HStem: 0 21G<144 237 144 144 502 595 502 502> 365 82<332 474 315 492> 647 82<98 281 81 590 374 374 374 573>
VStem: 563 93<300.5 318>
LayerCount: 2
Fore
SplineSet
332 447 m 1
 492 447 l 2
 602 447 656 388 656 307 c 0
 656 294 655 279 651 264 c 2
 595 0 l 1
 502 0 l 1
 559 267 l 2
 562 278 563 288 563 298 c 0
 563 338 540 365 474 365 c 2
 315 365 l 1
 237 0 l 1
 144 0 l 1
 281 647 l 1
 81 647 l 1
 98 729 l 1
 590 729 l 1
 573 647 l 1
 374 647 l 1
 332 447 l 1
EndSplineSet
EndChar

StartChar: afii10061
Encoding: 499 1036 392
Width: 664
Flags: MW
HStem: 0 21G<79 172 79 79 548 548 548 667> 709 20G<234 327 327 327 690 810 810 810>
LayerCount: 2
Fore
SplineSet
636 949 m 1
 748 949 l 1
 568 801 l 1
 508 801 l 1
 636 949 l 1
172 0 m 1
 79 0 l 1
 234 729 l 1
 327 729 l 1
 260 414 l 1
 690 729 l 1
 810 729 l 1
 323 375 l 1
 667 0 l 1
 548 0 l 1
 241 324 l 1
 172 0 l 1
EndSplineSet
EndChar

StartChar: afii10062
Encoding: 501 1038 394
Width: 530
Flags: MW
HStem: 0 21G<22 135 22 22> 709 20G<64 177 177 177 546 657 657 657> 801 72<364.5 400.5>
VStem: 249 58<870.5 923>
LayerCount: 2
Fore
SplineSet
254 936 m 1
 307 936 l 1
 307 928 l 1
 307 923 l 2
 307 893 340 873 389 873 c 0
 448 873 489 896 499 936 c 1
 555 936 l 1
 544 892 533 871 509 850 c 0
 476 820 425 801 376 801 c 0
 301 801 249 841 249 900 c 0
 249 909 250 917 254 936 c 1
135 0 m 1
 22 0 l 1
 203 244 l 1
 64 729 l 1
 177 729 l 1
 281 350 l 1
 546 729 l 1
 657 729 l 1
 135 0 l 1
EndSplineSet
EndChar

StartChar: afii10145
Encoding: 502 1039 395
Width: 722
Flags: MW
HStem: 0 82<194 332 412 412 412 567 194 644> 709 20G<238 332 332 332 705 799 799 799>
LayerCount: 2
Fore
SplineSet
332 0 m 1
 83 0 l 1
 238 729 l 1
 332 729 l 1
 194 82 l 1
 567 82 l 1
 705 729 l 1
 799 729 l 1
 644 0 l 1
 412 0 l 1
 383 -135 l 1
 303 -135 l 1
 332 0 l 1
EndSplineSet
EndChar

StartChar: afii10017
Encoding: 422 1040 315
Width: 667
Flags: MW
HStem: 0 21G<17 116 17 17 551 551 551 653> 219 78<283 514 283 524 239 514> 709 20G<432 552 552 552>
LayerCount: 2
Fore
SplineSet
524 219 m 1
 239 219 l 1
 116 0 l 1
 17 0 l 1
 432 729 l 1
 552 729 l 1
 653 0 l 1
 551 0 l 1
 524 219 l 1
514 297 m 1
 474 630 l 1
 283 297 l 1
 514 297 l 1
EndSplineSet
EndChar

StartChar: afii10018
Encoding: 423 1041 316
Width: 639
Flags: MW
HStem: 0 82<189 408> 333 82<260 440 260 470 243 440> 647 82<310 706 310 310>
VStem: 578 90<211 249.5>
LayerCount: 2
Fore
SplineSet
580 61 m 0
 532 19 477 0 408 0 c 2
 79 0 l 1
 234 729 l 1
 723 729 l 1
 706 647 l 1
 310 647 l 1
 260 415 l 1
 440 415 l 1
 599 416 668 353 668 238 c 0
 668 153 627 102 580 61 c 0
189 82 m 1
 416 82 l 2
 461 82 494 93 521 117 c 0
 554 145 578 184 578 238 c 0
 578 261 571 282 559 298 c 0
 542 322 515 333 470 333 c 2
 243 333 l 1
 189 82 l 1
EndSplineSet
EndChar

StartChar: afii10019
Encoding: 424 1042 317
Width: 667
Flags: W
HStem: 0 82<190 409> 333 82<261 441 441 470 244 441> 647 82<311 491 311 311>
VStem: 576 96<225.5 271.5> 615 96<542.5 590.5>
LayerCount: 2
Fore
SplineSet
79 0 m 1xf0
 234 729 l 1
 530 729 l 2
 599 729 641 714 675 678 c 0
 700 651 711 622 711 584 c 0xe8
 711 495 662 423 575 384 c 1
 645 354 672 319 672 258 c 0
 672 193 650 134 607 87 c 0
 554 28 491 0 409 0 c 2
 79 0 l 1xf0
261 415 m 1
 441 415 l 2
 507 415 547 429 577 461 c 0
 601 487 615 524 615 561 c 0
 615 620 576 647 491 647 c 2
 311 647 l 1
 261 415 l 1
190 82 m 1
 417 82 l 2
 473 82 511 99 542 139 c 0
 564 169 576 204 576 242 c 0xf0
 576 301 539 333 470 333 c 2
 244 333 l 1
 190 82 l 1
EndSplineSet
EndChar

StartChar: afii10020
Encoding: 425 1043 318
Width: 611
Flags: MW
HStem: 0 21G<90 183 90 90> 647 82<321 717 321 321>
LayerCount: 2
Fore
SplineSet
183 0 m 1
 90 0 l 1
 245 729 l 1
 734 729 l 1
 717 647 l 1
 321 647 l 1
 183 0 l 1
EndSplineSet
EndChar

StartChar: afii10021
Encoding: 426 1044 319
Width: 816
Flags: MW
HStem: 0 82<305 636 305 724> 647 82<494 756 494 494>
LayerCount: 2
Fore
SplineSet
726 0 m 0
 726 0 l 0
305 82 m 1
 636 82 l 1
 756 647 l 1
 494 647 l 1
 444 408 l 1
 414 285 372 160 305 82 c 1
168 74 m 1
 255 111 306 242 348 411 c 1
 418 729 l 1
 868 729 l 1
 729 74 l 1
 820 74 l 1
 775 -135 l 1
 695 -135 l 1
 724 0 l 1
 140 0 l 1
 111 -135 l 1
 31 -135 l 1
 76 74 l 1
 168 74 l 1
EndSplineSet
EndChar

StartChar: afii10024
Encoding: 429 1046 322
Width: 897
Flags: MW
HStem: 0 21G<22 132 22 22 418 418 418 511 797 797 797 907> 709 20G<215 335 335 335 573 666 666 666 904 1024 1024 1024>
LayerCount: 2
Fore
SplineSet
487 324 m 1
 132 0 l 1
 22 0 l 1
 427 375 l 1
 215 729 l 1
 335 729 l 1
 508 421 l 1
 573 729 l 1
 666 729 l 1
 601 421 l 1
 904 729 l 1
 1024 729 l 1
 662 375 l 1
 907 0 l 1
 797 0 l 1
 580 324 l 1
 511 0 l 1
 418 0 l 1
 487 324 l 1
EndSplineSet
EndChar

StartChar: afii10025
Encoding: 430 1047 323
Width: 652
Flags: W
HStem: -23 82<282.5 397.5 282.5 411.5> 321 82<307 412 324 412 412 415> 663 78<404 505.5>
VStem: 71 90<144.5 172> 552 97<162.5 234.5> 602 93<526 595>
LayerCount: 2
Fore
SplineSet
307 321 m 1xf8
 324 403 l 1
 412 403 l 2
 504 403 602 485 602 565 c 0
 602 625 549 663 462 663 c 0
 346 663 270 610 249 515 c 1
 161 515 l 1
 192 658 308 741 476 741 c 0
 615 741 695 679 695 576 c 0xf4
 695 476 635 407 552 374 c 1
 616 348 649 302 649 240 c 0
 649 65 510 -23 313 -23 c 0
 174 -23 71 37 71 162 c 0
 71 182 74 205 79 232 c 1
 167 232 l 1
 163 216 161 202 161 188 c 0
 161 101 229 59 336 59 c 0
 459 59 552 117 552 208 c 0
 552 261 501 321 415 321 c 2
 307 321 l 1xf8
EndSplineSet
EndChar

StartChar: afii10026
Encoding: 431 1048 324
Width: 731
Flags: MW
HStem: 0 21G<83 188 83 83 565 653 565 565> 709 20G<238 326 326 326 707 808 808 808>
LayerCount: 2
Fore
SplineSet
238 729 m 1
 326 729 l 1
 199 133 l 1
 707 729 l 1
 808 729 l 1
 653 0 l 1
 565 0 l 1
 691 591 l 1
 188 0 l 1
 83 0 l 1
 238 729 l 1
EndSplineSet
EndChar

StartChar: afii10027
Encoding: 432 1049 325
Width: 731
Flags: MW
HStem: 0 21G<83 188 83 83 565 653 565 565> 709 20G<238 326 326 326 707 808 808 808> 793 72<526.5 562.5>
VStem: 411 58<862.5 915>
LayerCount: 2
Fore
SplineSet
416 928 m 1
 469 928 l 1
 469 920 l 1
 469 915 l 2
 469 885 502 865 551 865 c 0
 610 865 651 888 661 928 c 1
 717 928 l 1
 706 884 695 863 671 842 c 0
 638 812 587 793 538 793 c 0
 463 793 411 833 411 892 c 0
 411 901 412 909 416 928 c 1
238 729 m 1
 326 729 l 1
 199 133 l 1
 707 729 l 1
 808 729 l 1
 653 0 l 1
 565 0 l 1
 691 591 l 1
 188 0 l 1
 83 0 l 1
 238 729 l 1
EndSplineSet
EndChar

StartChar: afii10028
Encoding: 433 1050 326
Width: 664
Flags: MW
HStem: 0 21G<79 172 79 79 548 548 548 667> 709 20G<234 327 327 327 690 810 810 810>
LayerCount: 2
Fore
SplineSet
172 0 m 1
 79 0 l 1
 234 729 l 1
 327 729 l 1
 260 414 l 1
 690 729 l 1
 810 729 l 1
 323 375 l 1
 667 0 l 1
 548 0 l 1
 241 324 l 1
 172 0 l 1
EndSplineSet
EndChar

StartChar: afii10029
Encoding: 434 1051 327
Width: 646
Flags: MW
HStem: 0 94<26 67 26 87> 647 82<348 610 348 348>
LayerCount: 2
Fore
SplineSet
610 647 m 1
 348 647 l 1
 299 420 l 1
 249 215 168 0 6 0 c 1
 26 94 l 1
 108 94 160 235 204 418 c 1
 271 729 l 1
 721 729 l 1
 567 0 l 1
 473 0 l 1
 610 647 l 1
EndSplineSet
EndChar

StartChar: afii10030
Encoding: 435 1052 328
Width: 833
Flags: MW
HStem: 0 21G<75 164 75 75 370 467 370 370 672 672 672 761> 709 20G<230 359 359 359 785 916 916 916>
LayerCount: 2
Fore
SplineSet
467 0 m 1
 370 0 l 1
 293 605 l 1
 164 0 l 1
 75 0 l 1
 230 729 l 1
 359 729 l 1
 439 102 l 1
 785 729 l 1
 916 729 l 1
 761 0 l 1
 672 0 l 1
 801 605 l 1
 467 0 l 1
EndSplineSet
EndChar

StartChar: afii10031
Encoding: 436 1053 329
Width: 722
Flags: MW
HStem: 0 21G<83 177 83 83 550 550 550 644> 332 82<265 621 248 638> 709 20G<238 332 332 332 705 799 799 799>
LayerCount: 2
Fore
SplineSet
621 332 m 1
 248 332 l 1
 177 0 l 1
 83 0 l 1
 238 729 l 1
 332 729 l 1
 265 414 l 1
 638 414 l 1
 705 729 l 1
 799 729 l 1
 644 0 l 1
 550 0 l 1
 621 332 l 1
EndSplineSet
EndChar

StartChar: afii10032
Encoding: 437 1054 330
Width: 778
Flags: MW
HStem: -23 81<371.5 438> 660 81<480.5 559>
VStem: 104 96<242 317 242 326.5> 732 96<400.5 475.5>
LayerCount: 2
Fore
SplineSet
537 741 m 0
 628 741 707 713 756 664 c 0
 800 619 828 543 828 464 c 0
 828 306 752 144 635 54 c 0
 570 4 485 -23 391 -23 c 0
 306 -23 225 6 177 54 c 0
 131 100 104 177 104 263 c 0
 104 390 157 522 246 614 c 0
 327 699 424 741 537 741 c 0
525 660 m 0
 431 660 342 613 284 533 c 0
 231 460 200 363 200 271 c 0
 200 213 214 164 241 130 c 0
 276 86 339 58 404 58 c 0
 501 58 589 104 647 185 c 1
 700 257 732 355 732 446 c 0
 732 505 718 553 691 588 c 0
 657 632 593 660 525 660 c 0
EndSplineSet
EndChar

StartChar: afii10033
Encoding: 438 1055 331
Width: 722
Flags: MW
HStem: 0 21G<83 177 83 83 550 550 550 644> 647 82<315 688 315 315>
LayerCount: 2
Fore
SplineSet
688 647 m 1
 315 647 l 1
 177 0 l 1
 83 0 l 1
 238 729 l 1
 799 729 l 1
 644 0 l 1
 550 0 l 1
 688 647 l 1
EndSplineSet
EndChar

StartChar: afii10034
Encoding: 439 1056 332
Width: 667
Flags: MW
HStem: 0 21G<91 185 91 91> 309 82<251 462 268 462 462 479> 647 82<323 517 323 323>
VStem: 637 96<532.5 581.5>
LayerCount: 2
Fore
SplineSet
251 309 m 1
 185 0 l 1
 91 0 l 1
 246 729 l 1
 548 729 l 2
 670 729 733 674 733 568 c 0
 733 487 697 411 634 361 c 0
 589 325 542 309 479 309 c 2
 251 309 l 1
268 391 m 1
 462 391 l 2
 526 391 569 410 602 452 c 0
 625 482 637 515 637 550 c 0
 637 613 595 647 517 647 c 2
 323 647 l 1
 268 391 l 1
EndSplineSet
EndChar

StartChar: afii10035
Encoding: 440 1057 333
Width: 722
Flags: MW
HStem: -23 81<329 420> 660 81<473.5 565.5>
VStem: 112 96<207 304.5> 674 96<503 503>
LayerCount: 2
Fore
SplineSet
770 503 m 1
 674 503 l 1
 666 611 616 660 515 660 c 0
 423 660 350 617 289 527 c 0
 238 451 208 351 208 260 c 0
 208 139 277 58 381 58 c 0
 460 58 536 95 578 155 c 0
 596 179 612 209 637 266 c 1
 735 266 l 1
 701 185 674 129 635 86 c 0
 570 15 473 -23 367 -23 c 0
 278 -23 215 4 169 62 c 0
 132 109 112 172 112 242 c 0
 112 367 161 505 240 600 c 0
 318 694 415 741 532 741 c 0
 626 741 697 704 738 634 c 0
 757 600 767 562 770 503 c 1
EndSplineSet
EndChar

StartChar: afii10036
Encoding: 441 1058 334
Width: 611
Flags: MW
HStem: 0 21G<261 355 261 261> 647 82<175 399 158 748 493 731 493 493>
LayerCount: 2
Fore
SplineSet
493 647 m 1
 355 0 l 1
 261 0 l 1
 399 647 l 1
 158 647 l 1
 175 729 l 1
 748 729 l 1
 731 647 l 1
 493 647 l 1
EndSplineSet
EndChar

StartChar: afii10037
Encoding: 442 1059 335
Width: 530
Flags: MW
HStem: 0 21G<22 135 22 22> 709 20G<64 177 177 177 546 657 657 657>
LayerCount: 2
Fore
SplineSet
135 0 m 1
 22 0 l 1
 203 244 l 1
 64 729 l 1
 177 729 l 1
 281 350 l 1
 546 729 l 1
 657 729 l 1
 135 0 l 1
EndSplineSet
EndChar

StartChar: afii10038
Encoding: 443 1060 336
Width: 891
Flags: MW
HStem: 0 21G<380 474 380 380> 94 94<369 399 514 566> 541 94<435.5 494 609 635.5> 709 20G<535 629 629 629>
VStem: 99 103<249 416.5 249 416.5> 809 104
LayerCount: 2
Fore
SplineSet
399 94 m 1
 270 94 99 108 99 290 c 0
 99 543 272 635 514 635 c 1
 535 729 l 1
 629 729 l 1
 609 635 l 1
 729 635 912 633 913 455 c 0
 915 165 716 94 494 94 c 1
 474 0 l 1
 380 0 l 1
 399 94 l 1
419 188 m 1
 494 541 l 1
 377 541 202 518 202 315 c 0
 202 183 319 188 419 188 c 1
514 188 m 1
 618 188 810 198 809 418 c 0
 808 541 682 541 589 541 c 1
 514 188 l 1
EndSplineSet
EndChar

StartChar: afii10039
Encoding: 444 1061 337
Width: 667
Flags: MW
HStem: 0 21G<22 137 22 22 540 650 540 540> 709 20G<194 307 307 307 680 794 794 794>
LayerCount: 2
Fore
SplineSet
471 374 m 1
 650 0 l 1
 540 0 l 1
 400 301 l 1
 137 0 l 1
 22 0 l 1
 361 374 l 1
 194 729 l 1
 307 729 l 1
 430 448 l 1
 680 729 l 1
 794 729 l 1
 471 374 l 1
EndSplineSet
EndChar

StartChar: afii10040
Encoding: 445 1062 338
Width: 722
Flags: MW
HStem: 0 82<194 567 194 656> 709 20G<238 332 332 332 705 799 799 799>
LayerCount: 2
Fore
SplineSet
567 82 m 1
 705 729 l 1
 799 729 l 1
 660 74 l 1
 752 74 l 1
 707 -135 l 1
 627 -135 l 1
 656 0 l 1
 83 0 l 1
 238 729 l 1
 332 729 l 1
 194 82 l 1
 567 82 l 1
EndSplineSet
EndChar

StartChar: afii10042
Encoding: 447 1064 340
Width: 836
Flags: MW
HStem: 0 82<171 365 459 653> 709 20G<215 309 309 309 503 597 597 597 791 885 885 885>
LayerCount: 2
Fore
SplineSet
459 82 m 1
 653 82 l 1
 791 729 l 1
 885 729 l 1
 730 0 l 1
 60 0 l 1
 215 729 l 1
 309 729 l 1
 171 82 l 1
 365 82 l 1
 503 729 l 1
 597 729 l 1
 459 82 l 1
EndSplineSet
EndChar

StartChar: afii10043
Encoding: 448 1065 341
Width: 837
Flags: MW
HStem: 0 82<171 365 459 653> 709 20G<215 309 309 309 503 597 597 597 791 885 885 885>
LayerCount: 2
Fore
SplineSet
742 0 m 1
 60 0 l 1
 215 729 l 1
 309 729 l 1
 171 82 l 1
 365 82 l 1
 503 729 l 1
 597 729 l 1
 459 82 l 1
 653 82 l 1
 791 729 l 1
 885 729 l 1
 746 74 l 1
 838 74 l 1
 793 -135 l 1
 713 -135 l 1
 742 0 l 1
EndSplineSet
EndChar

StartChar: afii10044
Encoding: 449 1066 342
Width: 866
Flags: MW
HStem: 0 82<362 580> 333 82<433 613 613 642 415 613> 647 82<175 388 158 499>
VStem: 750 91<212 250.5>
LayerCount: 2
Fore
SplineSet
752 61 m 0
 704 19 649 0 580 0 c 2
 251 0 l 1
 388 647 l 1
 158 647 l 1
 175 729 l 1
 499 729 l 1
 433 415 l 1
 613 415 l 2
 774 415 841 354 841 235 c 0
 841 151 804 106 752 61 c 0
362 82 m 1
 589 82 l 2
 634 82 666 93 693 117 c 0
 727 146 750 185 750 239 c 0
 750 262 744 282 732 298 c 0
 715 322 687 333 642 333 c 2
 415 333 l 1
 362 82 l 1
EndSplineSet
EndChar

StartChar: afii10045
Encoding: 450 1067 343
Width: 886
Flags: MW
HStem: 0 82<193 412> 333 82<264 444 444 474 247 444> 709 20G<238 331 331 331 869 963 963 963>
VStem: 582 90<211 249.5>
LayerCount: 2
Fore
SplineSet
963 729 m 1
 808 0 l 1
 714 0 l 1
 869 729 l 1
 963 729 l 1
584 61 m 0
 536 19 481 0 412 0 c 2
 83 0 l 1
 238 729 l 1
 331 729 l 1
 264 415 l 1
 444 415 l 2
 602 415 672 349 672 236 c 0
 672 154 635 105 584 61 c 0
193 82 m 1
 420 82 l 2
 465 82 498 93 525 117 c 0
 558 145 582 184 582 238 c 0
 582 261 575 282 563 298 c 0
 546 322 519 333 474 333 c 2
 247 333 l 1
 193 82 l 1
EndSplineSet
EndChar

StartChar: afii10046
Encoding: 451 1068 344
Width: 698
Flags: MW
HStem: 0 82<194 412> 333 82<265 445 445 474 247 445> 709 20G<238 331 331 331>
VStem: 582 91<212 250.5>
LayerCount: 2
Fore
SplineSet
584 61 m 0
 536 19 481 0 412 0 c 2
 83 0 l 1
 238 729 l 1
 331 729 l 1
 265 415 l 1
 445 415 l 2
 603 415 673 348 673 234 c 0
 673 152 635 105 584 61 c 0
194 82 m 1
 421 82 l 2
 466 82 498 93 525 117 c 0
 559 146 582 185 582 239 c 0
 582 262 576 282 564 298 c 0
 547 322 519 333 474 333 c 2
 247 333 l 1
 194 82 l 1
EndSplineSet
EndChar

StartChar: afii10048
Encoding: 453 1070 346
Width: 1049
Flags: MW
HStem: -23 82<607.5 699> 332 82<241 379 224 399> 659 82<720.5 864.5>
VStem: 373 94<207.5 269> 1004 95<368.5 511>
LayerCount: 2
Fore
SplineSet
379 332 m 1
 224 332 l 1
 154 0 l 1
 60 0 l 1
 215 729 l 1
 308 729 l 1
 241 414 l 1
 399 414 l 1
 462 611 625 741 816 741 c 0
 995 741 1099 634 1099 461 c 0
 1099 276 1011 135 897 54 c 0
 828 4 743 -23 655 -23 c 0
 478 -23 373 86 373 257 c 0
 373 281 375 306 379 332 c 1
799 659 m 0
 622 659 467 484 467 273 c 0
 467 142 543 59 672 59 c 0
 851 59 1004 234 1004 445 c 0
 1004 577 930 659 799 659 c 0
EndSplineSet
EndChar

StartChar: afii10049
Encoding: 454 1071 347
Width: 691
Flags: MW
HStem: 0 21G<22 132 22 22 520 520 520 613> 314 82<476 476 476 587> 647 82<408.5 768 439 658>
VStem: 179 90<479.5 518 479.5 533.5>
LayerCount: 2
Fore
SplineSet
476 314 m 1
 132 0 l 1
 22 0 l 1
 362 315 l 1
 232 321 179 388 179 491 c 0
 179 576 220 627 267 668 c 0
 315 710 370 729 439 729 c 2
 768 729 l 1
 613 0 l 1
 520 0 l 1
 587 314 l 1
 476 314 l 1
658 647 m 1
 431 647 l 2
 386 647 353 636 326 612 c 0
 293 584 269 545 269 491 c 0
 269 468 276 447 288 431 c 0
 305 407 332 396 377 396 c 2
 604 396 l 1
 658 647 l 1
EndSplineSet
EndChar

StartChar: afii10066
Encoding: 456 1073 349
Width: 556
Flags: MW
HStem: -23 77<239 330 239 349> 462 77<357.5 400>
VStem: 72 89<145 182.5> 477 89<257 371.5>
LayerCount: 2
Fore
SplineSet
263 514 m 1
 298 530 337 539 378 539 c 0
 500 539 566 471 566 349 c 0
 566 153 438 -23 260 -23 c 0
 138 -23 72 47 72 169 c 0
 72 196 75 226 82 258 c 0
 121 442 195 664 330 690 c 0
 368 697 429 704 484 716 c 0
 514 723 546 748 552 775 c 1
 626 776 l 1
 614 716 602 666 486 640 c 0
 436 629 405 626 360 611 c 0
 310 594 292 558 263 514 c 1
363 462 m 0
 251 462 161 330 161 187 c 0
 161 103 202 54 276 54 c 0
 384 54 477 185 477 329 c 0
 477 414 437 462 363 462 c 0
EndSplineSet
EndChar

StartChar: afii10067
Encoding: 457 1074 350
Width: 538
Flags: W
HStem: 0 76<170 322 322 333> 231 76<219 337 337 355 203 337> 449 76<250 368 250 250>
VStem: 435 89<165.5 189> 459 89<389.5 401.5>
LayerCount: 2
Fore
SplineSet
70 0 m 1xf0
 182 525 l 1
 421 525 l 2
 500 525 548 489 548 423 c 0xe8
 548 356 506 294 451 277 c 1
 500 264 524 227 524 184 c 0
 524 122 494 77 457 44 c 0
 422 14 383 0 333 0 c 2
 70 0 l 1xf0
219 307 m 1
 337 307 l 2
 374 307 397 312 417 325 c 0
 441 341 459 361 459 393 c 0
 459 410 452 418 440 430 c 0
 425 444 405 449 368 449 c 2
 250 449 l 1
 219 307 l 1
170 76 m 1
 322 76 l 2
 354 76 377 84 397 102 c 0
 422 123 435 147 435 184 c 0xf0
 435 194 431 203 420 211 c 0
 403 224 387 231 355 231 c 2
 203 231 l 1
 170 76 l 1
EndSplineSet
EndChar

StartChar: afii10068
Encoding: 458 1075 351
Width: 430
Flags: MW
HStem: 0 21G<70 154 70 70> 448 76<249 460 249 249>
VStem: 70 406
LayerCount: 2
Fore
SplineSet
181 524 m 1
 476 524 l 1
 460 448 l 1
 249 448 l 1
 154 0 l 1
 70 0 l 1
 181 524 l 1
EndSplineSet
EndChar

StartChar: afii10072
Encoding: 462 1078 355
Width: 818
Flags: MW
HStem: 0 21G<17 120 17 17 378 378 378 461 719 719 719 822> 504 20G<160 267 267 267 489 572 572 572 794 901 901 901>
LayerCount: 2
Fore
SplineSet
424 216 m 1
 120 0 l 1
 17 0 l 1
 377 264 l 1
 160 524 l 1
 267 524 l 1
 442 302 l 1
 489 524 l 1
 572 524 l 1
 525 302 l 1
 794 524 l 1
 901 524 l 1
 574 264 l 1
 822 0 l 1
 719 0 l 1
 507 216 l 1
 461 0 l 1
 378 0 l 1
 424 216 l 1
EndSplineSet
EndChar

StartChar: afii10073
Encoding: 463 1079 356
Width: 495
Flags: W
HStem: -23 77<236.5 295.5 236.5 311> 221 76<237 315 253 311> 462 77<302.5 366>
VStem: 60 93<65.5 156> 396 95<120.5 165.5> 432 88<380 409.5>
LayerCount: 2
Fore
SplineSet
237 221 m 1xf8
 253 297 l 1
 315 297 l 2
 387 297 432 344 432 390 c 0
 432 429 396 462 336 462 c 0
 269 462 227 433 213 378 c 1
 125 378 l 1
 148 481 228 539 349 539 c 0
 456 539 520 491 520 413 c 0xf4
 520 347 483 295 427 267 c 1
 470 246 491 210 491 169 c 0
 491 49 386 -23 236 -23 c 0
 118 -23 60 22 60 109 c 0
 60 123 62 139 65 156 c 1
 153 156 l 1
 150 119 153 104 163 89 c 0
 179 67 214 54 259 54 c 0
 332 54 396 93 396 148 c 0
 396 183 364 221 311 221 c 2
 237 221 l 1xf8
EndSplineSet
EndChar

StartChar: afii10074
Encoding: 464 1080 357
Width: 560
Flags: MW
HStem: 0 21G<70 169 70 70 404 487 404 404> 504 20G<181 265 265 265 500 598 598 598>
LayerCount: 2
Fore
SplineSet
181 524 m 1
 265 524 l 1
 177 111 l 1
 500 524 l 1
 598 524 l 1
 487 0 l 1
 404 0 l 1
 491 413 l 1
 169 0 l 1
 70 0 l 1
 181 524 l 1
EndSplineSet
EndChar

StartChar: afii10075
Encoding: 465 1081 358
Width: 560
Flags: MW
HStem: 0 21G<70 169 70 70 404 487 404 404> 504 20G<181 265 265 265 500 598 598 598> 594 72<404.5 440.5> 709 20G<294 347 347 347 539 595 595 595>
VStem: 289 58<663.5 716>
LayerCount: 2
Fore
SplineSet
294 729 m 1
 347 729 l 1
 347 721 l 1
 347 716 l 2
 347 686 380 666 429 666 c 0
 488 666 529 689 539 729 c 1
 595 729 l 1
 584 685 573 664 549 643 c 0
 516 613 465 594 416 594 c 0
 341 594 289 634 289 693 c 0
 289 702 290 710 294 729 c 1
181 524 m 1
 265 524 l 1
 177 111 l 1
 500 524 l 1
 598 524 l 1
 487 0 l 1
 404 0 l 1
 491 413 l 1
 169 0 l 1
 70 0 l 1
 181 524 l 1
EndSplineSet
EndChar

StartChar: afii10077
Encoding: 467 1083 360
Width: 556
Flags: MW
HStem: 0 80<31 56 31 72.5> 448 76<271 443 271 271>
LayerCount: 2
Fore
SplineSet
204 524 m 1
 543 524 l 1
 431 0 l 1
 347 0 l 1
 443 448 l 1
 271 448 l 1
 233 284 l 1
 194 144 131 0 14 0 c 1
 31 80 l 1
 81 80 117 163 149 282 c 1
 204 524 l 1
EndSplineSet
EndChar

StartChar: afii10078
Encoding: 468 1084 361
Width: 621
Flags: MW
HStem: 0 21G<70 154 70 70 464 548 464 464> 504 20G<181 265 265 265 575 659 659 659>
LayerCount: 2
Fore
SplineSet
181 524 m 1
 265 524 l 1
 354 213 l 1
 575 524 l 1
 659 524 l 1
 548 0 l 1
 464 0 l 1
 538 348 l 1
 352 86 l 1
 302 86 l 1
 228 348 l 1
 154 0 l 1
 70 0 l 1
 181 524 l 1
EndSplineSet
EndChar

StartChar: afii10079
Encoding: 469 1085 362
Width: 561
Flags: MW
HStem: 0 21G<70 154 70 70 404 488 404 404> 233 76<219 453 203 469> 504 20G<181 265 265 265 515 599 599 599>
LayerCount: 2
Fore
SplineSet
181 524 m 1
 265 524 l 1
 219 309 l 1
 469 309 l 1
 515 524 l 1
 599 524 l 1
 488 0 l 1
 404 0 l 1
 453 233 l 1
 203 233 l 1
 154 0 l 1
 70 0 l 1
 181 524 l 1
EndSplineSet
EndChar

StartChar: afii10081
Encoding: 471 1087 364
Width: 560
Flags: MW
HStem: 0 21G<70 154 70 70 403 487 403 403> 448 76<249 498 249 249>
LayerCount: 2
Fore
SplineSet
181 524 m 1
 598 524 l 1
 487 0 l 1
 403 0 l 1
 498 448 l 1
 249 448 l 1
 154 0 l 1
 70 0 l 1
 181 524 l 1
EndSplineSet
EndChar

StartChar: afii10082
Encoding: 472 1088 365
Width: 556
Flags: MW
HStem: -23 77<265.5 333> 462 77<390 416.5>
VStem: 498 88<297 367>
LayerCount: 2
Fore
SplineSet
7 -213 m 1
 164 524 l 1
 245 524 l 1
 227 440 l 1
 240 467 252 480 284 500 c 0
 324 526 368 539 412 539 c 0
 519 539 586 464 586 344 c 0
 586 246 552 142 498 76 c 0
 447 13 372 -23 294 -23 c 0
 223 -23 182 3 151 68 c 1
 91 -213 l 1
 7 -213 l 1
379 462 m 0
 317 462 267 428 230 361 c 1
 200 309 183 244 183 184 c 0
 183 104 229 54 302 54 c 0
 367 54 417 87 454 155 c 0
 481 205 498 270 498 324 c 0
 498 410 454 462 379 462 c 0
EndSplineSet
EndChar

StartChar: afii10084
Encoding: 474 1090 367
Width: 400
Flags: MW
HStem: 0 21G<149 233 149 149> 448 76<116 244 100 488 328 472 328 328>
VStem: 100 388<448 524>
LayerCount: 2
Fore
SplineSet
116 524 m 1
 488 524 l 1
 472 448 l 1
 328 448 l 1
 233 0 l 1
 149 0 l 1
 244 448 l 1
 100 448 l 1
 116 524 l 1
EndSplineSet
EndChar

StartChar: afii10085
Encoding: 475 1091 368
Width: 500
Flags: MW
HStem: -218 81<63 86.5 63 92.5> 504 20G<132 222 222 222 501 590 590 590>
LayerCount: 2
Fore
SplineSet
501 524 m 1
 590 524 l 1
 222 -110 l 2
 179 -184 128 -218 57 -218 c 0
 38 -218 26 -216 8 -208 c 1
 24 -133 l 1
 51 -136 58 -137 68 -137 c 0
 105 -137 121 -127 148 -85 c 2
 200 -4 l 1
 132 524 l 1
 222 524 l 1
 268 117 l 1
 501 524 l 1
EndSplineSet
EndChar

StartChar: afii10086
Encoding: 476 1092 369
Width: 916
Flags: MW
HStem: -23 78<242 283.5 619 709.5> 461 78<311.5 401.5 735.5 778>
VStem: 71 91<150.5 263 150.5 268.5> 476 67<256.5 260.5 148 369> 857 89<252 366>
LayerCount: 2
Fore
SplineSet
591 445 m 1
 633 506 700 539 771 539 c 0
 883 539 946 467 946 347 c 0
 946 154 817 -23 653 -23 c 0
 585 -23 541 1 508 55 c 1
 450 -218 l 1
 367 -218 l 1
 426 60 l 1
 375 3 320 -23 247 -23 c 0
 134 -23 71 48 71 165 c 0
 71 372 208 539 370 539 c 0
 439 539 490 502 508 445 c 1
 557 674 l 1
 640 674 l 1
 591 445 l 1
741 461 m 0
 636 461 543 331 543 190 c 0
 543 106 584 55 654 55 c 0
 765 55 857 181 857 323 c 0
 857 409 815 461 741 461 c 0
366 461 m 0
 257 461 162 333 162 193 c 0
 162 108 205 55 279 55 c 0
 381 55 476 186 476 327 c 0
 476 411 437 461 366 461 c 0
EndSplineSet
EndChar

StartChar: afii10087
Encoding: 477 1093 370
Width: 500
Flags: MW
HStem: 0 21G<17 115 17 17 379 473 379 379> 504 20G<138 231 231 231 486 583 583 583>
LayerCount: 2
Fore
SplineSet
350 267 m 1
 473 0 l 1
 379 0 l 1
 289 200 l 1
 115 0 l 1
 17 0 l 1
 256 267 l 1
 138 524 l 1
 231 524 l 1
 319 332 l 1
 486 524 l 1
 583 524 l 1
 350 267 l 1
EndSplineSet
EndChar

StartChar: afii10088
Encoding: 478 1094 371
Width: 560
Flags: MW
HStem: 0 76<170 419 170 498> 504 20G<181 265 265 265 514 598 598 598>
LayerCount: 2
Fore
SplineSet
70 0 m 1
 181 524 l 1
 265 524 l 1
 170 76 l 1
 419 76 l 1
 514 524 l 1
 598 524 l 1
 501 64 l 1
 581 64 l 1
 542 -120 l 1
 472 -120 l 1
 498 0 l 1
 70 0 l 1
EndSplineSet
EndChar

StartChar: afii10089
Encoding: 479 1095 372
Width: 497
Flags: MW
HStem: 0 21G<340 424 340 340> 208 76<217.5 400 273 384> 504 20G<172 256 256 256 451 535 535 535>
VStem: 133 85<320 326>
LayerCount: 2
Fore
SplineSet
172 524 m 1
 256 524 l 1
 221 359 l 2
 219 350 218 342 218 333 c 0
 218 307 230 284 273 284 c 2
 400 284 l 1
 451 524 l 1
 535 524 l 1
 424 0 l 1
 340 0 l 1
 384 208 l 1
 267 208 l 2
 168 208 133 253 133 318 c 0
 133 334 136 351 139 369 c 2
 172 524 l 1
EndSplineSet
EndChar

StartChar: afii10090
Encoding: 480 1096 373
Width: 695
Flags: MW
HStem: 0 76<170 320 404 554> 504 20G<181 265 265 265 415 499 499 499 649 733 733 733>
LayerCount: 2
Fore
SplineSet
404 76 m 1
 554 76 l 1
 649 524 l 1
 733 524 l 1
 622 0 l 1
 70 0 l 1
 181 524 l 1
 265 524 l 1
 170 76 l 1
 320 76 l 1
 415 524 l 1
 499 524 l 1
 404 76 l 1
EndSplineSet
EndChar

StartChar: afii10091
Encoding: 481 1097 374
Width: 695
Flags: MW
HStem: 0 76<170 320 404 554> 504 20G<181 265 265 265 415 499 499 499 649 733 733 733>
LayerCount: 2
Fore
SplineSet
632 0 m 1
 70 0 l 1
 181 524 l 1
 265 524 l 1
 170 76 l 1
 320 76 l 1
 415 524 l 1
 499 524 l 1
 404 76 l 1
 554 76 l 1
 649 524 l 1
 733 524 l 1
 635 64 l 1
 715 64 l 1
 676 -120 l 1
 606 -120 l 1
 632 0 l 1
EndSplineSet
EndChar

StartChar: afii10092
Encoding: 482 1098 375
Width: 640
Flags: MW
HStem: 0 76<287 439 439 450> 231 76<336 454 454 472 320 454> 448 76<115 115 115 282 99 115>
VStem: 551 89<152.5 200>
LayerCount: 2
Fore
SplineSet
115 524 m 1
 382 525 l 1
 336 307 l 1
 454 307 l 2
 581 307 640 269 640 185 c 0
 640 120 611 77 573 44 c 0
 539 14 500 0 450 0 c 2
 187 0 l 1
 282 448 l 1
 99 448 l 1
 115 524 l 1
287 76 m 1
 439 76 l 2
 506 76 551 120 551 184 c 0
 551 216 511 231 472 231 c 2
 320 231 l 1
 287 76 l 1
EndSplineSet
EndChar

StartChar: afii10094
Encoding: 484 1100 377
Width: 523
Flags: MW
HStem: 0 76<170 322 322 333> 231 76<219 337 337 355 203 337> 505 20G<181 265 265 265>
VStem: 434 89<155 200>
LayerCount: 2
Fore
SplineSet
265 525 m 1
 219 307 l 1
 337 307 l 2
 470 307 523 270 523 187 c 0
 523 121 495 78 456 44 c 0
 422 14 383 0 333 0 c 2
 70 0 l 1
 181 525 l 1
 265 525 l 1
170 76 m 1
 322 76 l 2
 390 76 434 126 434 184 c 0
 434 216 394 231 355 231 c 2
 203 231 l 1
 170 76 l 1
EndSplineSet
EndChar

StartChar: afii10095
Encoding: 485 1101 378
Width: 534
Flags: MW
HStem: -23 77<234.5 311.5 234.5 324> 232 77<227 466> 462 77<335.5 392>
VStem: 80 87<129.5 145.5> 467 87<327.5 372.5>
LayerCount: 2
Fore
SplineSet
227 232 m 1
 242 309 l 1
 466 309 l 1
 467 316 467 324 467 331 c 0
 467 414 428 462 356 462 c 0
 286 462 234 421 208 348 c 1
 124 348 l 1
 139 399 157 432 183 461 c 1
 230 510 299 539 372 539 c 0
 487 539 554 464 554 341 c 0
 554 314 551 285 544 253 c 0
 508 84 395 -23 253 -23 c 0
 142 -23 80 36 80 139 c 0
 80 152 81 166 83 180 c 1
 167 180 l 1
 167 167 l 2
 167 92 201 54 268 54 c 0
 355 54 423 121 453 233 c 1
 227 232 l 1
EndSplineSet
EndChar

StartChar: afii10096
Encoding: 486 1102 379
Width: 768
Flags: MW
HStem: -23 77<479 571 479 598.5> 233 76<221 318 205 336> 462 77<546 639>
VStem: 311 90<145 180> 717 89<256 372>
LayerCount: 2
Fore
SplineSet
336 309 m 1
 346 357 423 539 618 539 c 0
 740 539 806 471 806 349 c 0
 806 140 698 -23 499 -23 c 0
 347 -23 311 82 311 168 c 0
 311 192 314 215 318 233 c 1
 205 233 l 1
 154 0 l 1
 70 0 l 1
 182 524 l 1
 266 524 l 1
 221 309 l 1
 336 309 l 1
602 462 m 0
 490 462 401 336 401 187 c 0
 401 103 442 54 516 54 c 0
 626 54 717 182 717 330 c 0
 717 414 676 462 602 462 c 0
EndSplineSet
EndChar

StartChar: afii10097
Encoding: 487 1103 380
Width: 564
Flags: MW
HStem: 0 21G<16 119 16 16 406 490 406 406> 219 75<313 469> 449 76<339 350 350 502>
VStem: 149 89<336 369.5 336 394>
LayerCount: 2
Fore
SplineSet
313 219 m 1
 200 223 149 261 149 338 c 0
 149 450 236 525 339 525 c 2
 602 525 l 1
 490 0 l 1
 406 0 l 1
 453 218 l 1
 425 218 l 1
 119 0 l 1
 16 0 l 1
 313 219 l 1
502 449 m 1
 350 449 l 2
 282 449 238 398 238 341 c 0
 238 331 241 322 252 314 c 0
 269 301 285 294 317 294 c 2
 469 294 l 1
 502 449 l 1
EndSplineSet
EndChar

StartChar: uni0450
Encoding: 503 1104 396
Width: 556
Flags: MW
HStem: -23 77<256.5 329.5 256.5 342> 234 72<195 489 195 563 177 489> 462 77<345.5 411.5> 727 20G<250 356 356 356>
VStem: 84 88<146 198.5 145.5 213.5> 492 88<354.5 376.5>
LayerCount: 2
Fore
SplineSet
356 747 m 1
 428 599 l 1
 375 599 l 1
 250 747 l 1
 356 747 l 1
563 234 m 1
 177 234 l 1
 173 219 172 209 172 188 c 0
 172 103 217 54 296 54 c 0
 363 54 416 90 452 159 c 1
 536 159 l 1
 505 51 402 -23 282 -23 c 0
 225 -23 181 -7 146 27 c 0
 107 64 84 119 84 173 c 0
 84 254 121 368 168 431 c 0
 218 498 302 539 389 539 c 0
 497 539 580 464 580 368 c 0
 580 341 575 299 566 251 c 2
 563 234 l 1
195 306 m 1
 489 306 l 1
 491 322 492 329 492 339 c 0
 492 414 447 462 376 462 c 0
 295 462 221 398 195 306 c 1
EndSplineSet
EndChar

StartChar: afii10099
Encoding: 504 1106 397
Width: 556
Flags: MW
HStem: -126 55<325 350.5 325 376.5> 0 21G<70 154 70 70 406 406 490 490> 447 72<397.5 421.5> 612 69<134 200 119 215 299 444> 709 20G<225 309 309 309>
VStem: 481 89<387 387.5>
LayerCount: 2
Fore
SplineSet
313 -126 m 1
 325 -71 l 1
 376 -71 396 -48 406 0 c 2
 475 323 l 2
 481 350 481 350 481 362 c 0
 481 413 447 447 396 447 c 0
 305 447 235 379 211 269 c 2
 154 0 l 1
 70 0 l 1
 200 612 l 1
 119 612 l 1
 134 681 l 1
 215 681 l 1
 225 729 l 1
 309 729 l 1
 299 681 l 1
 459 681 l 1
 444 612 l 1
 284 612 l 1
 248 439 l 1
 311 498 360 519 435 519 c 0
 519 519 570 472 570 393 c 0
 570 381 569 369 566 356 c 2
 490 0 l 2
 472 -85 440 -126 313 -126 c 1
EndSplineSet
EndChar

StartChar: afii10100
Encoding: 505 1107 398
Width: 430
Flags: MW
HStem: 0 21G<70 154 70 70> 448 76<249 460 249 249> 727 20G<443 555 555 555>
VStem: 70 485
LayerCount: 2
Fore
SplineSet
443 747 m 1
 555 747 l 1
 375 599 l 1
 315 599 l 1
 443 747 l 1
181 524 m 1
 476 524 l 1
 460 448 l 1
 249 448 l 1
 154 0 l 1
 70 0 l 1
 181 524 l 1
EndSplineSet
EndChar

StartChar: afii10101
Encoding: 506 1108 399
Width: 534
Flags: MW
HStem: -23 77<242 298.5> 207 77<168 407> 462 77<322.5 399.5>
VStem: 80 87<143.5 188.5 143.5 188.5> 467 87<336 428.5 370.5 386.5>
LayerCount: 2
Fore
SplineSet
407 284 m 1
 392 207 l 1
 168 207 l 1
 167 200 167 192 167 185 c 0
 167 102 206 54 278 54 c 0
 348 54 400 95 426 168 c 1
 510 168 l 1
 495 117 477 84 451 55 c 1
 404 6 335 -23 262 -23 c 0
 147 -23 80 52 80 175 c 0
 80 202 83 231 90 263 c 0
 126 432 239 539 381 539 c 0
 492 539 554 480 554 377 c 0
 554 364 553 350 551 336 c 1
 467 336 l 1
 467 349 l 2
 467 424 433 462 366 462 c 0
 279 462 211 395 181 283 c 1
 407 284 l 1
EndSplineSet
EndChar

StartChar: afii10102
Encoding: 507 1109 400
Width: 500
Flags: MW
HStem: -23 77<184.5 243.5 184.5 249> 462 77<254 321.5>
VStem: 12 452<156 378>
LayerCount: 2
Fore
SplineSet
464 378 m 1
 376 378 l 1
 385 433 355 462 288 462 c 0
 220 462 171 431 161 383 c 0
 153 346 177 324 242 308 c 2
 318 289 l 2
 416 264 451 221 435 143 c 0
 413 42 315 -23 183 -23 c 0
 46 -23 -9 35 12 156 c 1
 100 156 l 1
 97 119 100 104 110 89 c 0
 126 67 162 54 207 54 c 0
 280 54 336 87 346 136 c 0
 354 174 336 195 281 209 c 2
 207 228 l 2
 89 258 55 297 73 379 c 1
 93 476 186 539 308 539 c 0
 429 539 484 481 464 378 c 1
EndSplineSet
EndChar

StartChar: afii10103
Encoding: 508 1110 401
Width: 222
Flags: MW
HStem: 0 21G<66 150 66 66> 504 20G<177 261 261 261> 626 103<221 283 199 305>
VStem: 66 239
LayerCount: 2
Fore
SplineSet
261 524 m 1
 150 0 l 1
 66 0 l 1
 177 524 l 1
 261 524 l 1
305 729 m 1
 283 626 l 1
 199 626 l 1
 221 729 l 1
 305 729 l 1
EndSplineSet
EndChar

StartChar: afii10104
Encoding: 509 1111 402
Width: 278
Flags: MW
HStem: 0 21G<94 178 94 94> 507 20G<206 290 290 290> 605 103<154 236 132 258 154 293 315 397>
VStem: 94 325
LayerCount: 2
Fore
SplineSet
290 527 m 1
 178 0 l 1
 94 0 l 1
 206 527 l 1
 290 527 l 1
258 708 m 1
 236 605 l 1
 132 605 l 1
 154 708 l 1
 258 708 l 1
419 708 m 1
 397 605 l 1
 293 605 l 1
 315 708 l 1
 419 708 l 1
EndSplineSet
EndChar

StartChar: afii10105
Encoding: 510 1112 403
Width: 222
Flags: MW
HStem: -218 72<-27.5 0.5 -27.5 11.5> 504 20G<180 264 264 264> 626 103<224 286 202 308>
VStem: -65 373
LayerCount: 2
Fore
SplineSet
180 524 m 1
 264 524 l 1
 130 -109 l 2
 112 -191 69 -218 -46 -218 c 0
 -55 -218 -58 -217 -65 -215 c 1
 -50 -144 l 1
 -32 -146 -30 -146 -25 -146 c 0
 26 -146 41 -132 53 -76 c 2
 180 524 l 1
308 729 m 1
 286 626 l 1
 202 626 l 1
 224 729 l 1
 308 729 l 1
EndSplineSet
EndChar

StartChar: afii10106
Encoding: 511 1113 404
Width: 786
Flags: W
HStem: 0 76<447 599 599 610> 0 80<31 56 31 72.5> 231 76<496 614 614 632 480 614> 448 77
VStem: 711 89<155 200>
LayerCount: 2
Fore
SplineSet
204 524 m 1x78
 542 525 l 1
 496 307 l 1
 614 307 l 2
 747 307 800 270 800 187 c 0
 800 121 772 78 733 44 c 0
 699 14 660 0 610 0 c 2
 347 0 l 1xb8
 443 448 l 1
 271 448 l 1
 233 284 l 2
 200 142 131 0 14 0 c 1
 31 80 l 1
 81 80 122 162 149 282 c 2
 204 524 l 1x78
447 76 m 1
 599 76 l 2
 667 76 711 126 711 184 c 0
 711 216 671 231 632 231 c 2
 480 231 l 1
 447 76 l 1
EndSplineSet
EndChar

StartChar: afii10107
Encoding: 512 1114 405
Width: 796
Flags: MW
HStem: 0 76<448 600 600 611> 233 76<164 398 148 414> 504 20G<126 210 210 210 460 460>
VStem: 712 89<155 200>
LayerCount: 2
Fore
SplineSet
348 0 m 1
 398 233 l 1
 148 233 l 1
 98 0 l 1
 14 0 l 1
 126 524 l 1
 210 524 l 1
 164 309 l 1
 414 309 l 1
 460 524 l 1
 543 525 l 1
 497 307 l 1
 615 307 l 2
 748 307 801 270 801 187 c 0
 801 121 773 78 734 44 c 0
 700 14 661 0 611 0 c 2
 348 0 l 1
448 76 m 1
 600 76 l 2
 668 76 712 126 712 184 c 0
 712 216 672 231 633 231 c 2
 481 231 l 1
 448 76 l 1
EndSplineSet
EndChar

StartChar: afii10108
Encoding: 513 1115 406
Width: 556
Flags: MW
HStem: 0 21G<70 154 70 70 406 490 406 406> 447 72<401.5 425.5> 612 69<134 200 119 215 299 444> 709 20G<225 309 309 309>
VStem: 485 89<387 387.5>
LayerCount: 2
Fore
SplineSet
215 681 m 1
 225 729 l 1
 309 729 l 1
 299 681 l 1
 459 681 l 1
 444 612 l 1
 284 612 l 1
 252 439 l 1
 315 498 364 519 439 519 c 0
 523 519 574 472 574 393 c 0
 574 381 573 369 570 356 c 2
 490 0 l 1
 406 0 l 1
 479 323 l 2
 485 350 485 350 485 362 c 0
 485 413 451 447 400 447 c 0
 309 447 239 379 215 269 c 2
 154 0 l 1
 70 0 l 1
 200 612 l 1
 119 612 l 1
 134 681 l 1
 215 681 l 1
EndSplineSet
EndChar

StartChar: afii10109
Encoding: 514 1116 407
Width: 510
Flags: MW
HStem: 0 21G<70 153 70 70 411 514 411 411> 504 20G<181 264 264 264 486 593 593 593> 727 20G<501 613 613 613>
LayerCount: 2
Fore
SplineSet
501 747 m 1
 613 747 l 1
 433 599 l 1
 373 599 l 1
 501 747 l 1
264 524 m 1
 217 302 l 1
 486 524 l 1
 593 524 l 1
 266 264 l 1
 514 0 l 1
 411 0 l 1
 199 216 l 1
 153 0 l 1
 70 0 l 1
 181 524 l 1
 264 524 l 1
EndSplineSet
EndChar

StartChar: uni045D
Encoding: 515 1117 408
Width: 560
Flags: MW
HStem: 0 21G<70 169 70 70 404 487 404 404> 504 20G<181 265 265 265 500 598 598 598> 727 20G<254 360 360 360>
LayerCount: 2
Fore
SplineSet
360 747 m 1
 432 599 l 1
 379 599 l 1
 254 747 l 1
 360 747 l 1
181 524 m 1
 265 524 l 1
 177 111 l 1
 500 524 l 1
 598 524 l 1
 487 0 l 1
 404 0 l 1
 491 413 l 1
 169 0 l 1
 70 0 l 1
 181 524 l 1
EndSplineSet
EndChar

StartChar: afii10110
Encoding: 516 1118 409
Width: 500
Flags: MW
HStem: -218 81<63 86.5 63 92.5> 504 20G<132 222 222 222 501 590 590 590> 599 72<365.5 401.5> 714 20G<255 308 308 308 500 556 556 556>
VStem: 250 58<668.5 721>
LayerCount: 2
Fore
SplineSet
255 734 m 1
 308 734 l 1
 308 726 l 1
 308 721 l 2
 308 691 341 671 390 671 c 0
 449 671 490 694 500 734 c 1
 556 734 l 1
 545 690 534 669 510 648 c 0
 477 618 426 599 377 599 c 0
 302 599 250 639 250 698 c 0
 250 707 251 715 255 734 c 1
501 524 m 1
 590 524 l 1
 222 -110 l 2
 179 -184 128 -218 57 -218 c 0
 38 -218 26 -216 8 -208 c 1
 24 -133 l 1
 51 -136 58 -137 68 -137 c 0
 105 -137 121 -127 148 -85 c 2
 200 -4 l 1
 132 524 l 1
 222 524 l 1
 268 117 l 1
 501 524 l 1
EndSplineSet
EndChar

StartChar: afii10193
Encoding: 517 1119 410
Width: 560
Flags: MW
HStem: 0 76<170 254 323 323 323 419 170 487> 504 20G<181 265 265 265 514 598 598 598>
LayerCount: 2
Fore
SplineSet
254 0 m 1
 70 0 l 1
 181 524 l 1
 265 524 l 1
 170 76 l 1
 419 76 l 1
 514 524 l 1
 598 524 l 1
 487 0 l 1
 323 0 l 1
 298 -120 l 1
 228 -120 l 1
 254 0 l 1
EndSplineSet
EndChar

StartChar: uni048C
Encoding: 518 1164 411
Width: 698
Flags: MW
HStem: 0 82<194 412> 333 82<265 445 265 474 247 445> 541 69<125 198 110 213 306 385> 709 20G<238 331 331 331>
LayerCount: 2
Fore
SplineSet
194 82 m 1
 421 82 l 2
 466 82 498 93 525 117 c 0
 552 140 571 172 578 207 c 0
 586 243 581 275 564 298 c 0
 547 322 519 333 474 333 c 2
 247 333 l 1
 194 82 l 1
306 610 m 1
 400 610 l 1
 385 541 l 1
 291 541 l 1
 265 415 l 1
 445 415 l 1
 623 416 683 338 672 208 c 1
 660 151 628 99 584 61 c 0
 536 19 481 0 412 0 c 2
 83 0 l 1
 198 541 l 1
 110 541 l 1
 125 610 l 1
 213 610 l 1
 238 729 l 1
 331 729 l 1
 306 610 l 1
EndSplineSet
EndChar

StartChar: uni048D
Encoding: 519 1165 412
Width: 523
Flags: MW
HStem: 0 76<170 322 322 333> 231 76<219 337 219 355 203 337> 380 69<71 150 56 165 249 331> 505 20G<181 265 265 265>
VStem: 56 464
LayerCount: 2
Fore
SplineSet
170 76 m 1
 322 76 l 2
 354 76 377 84 396 102 c 1
 416 118 424 130 430 155 c 1
 435 181 439 196 420 211 c 0
 403 224 387 231 355 231 c 2
 203 231 l 1
 170 76 l 1
165 449 m 1
 181 525 l 1
 265 525 l 1
 249 449 l 1
 346 449 l 1
 331 380 l 1
 234 380 l 1
 219 307 l 1
 337 307 l 1
 487 308 537 259 520 150 c 1
 511 109 488 72 456 44 c 0
 422 14 383 0 333 0 c 2
 70 0 l 1
 150 380 l 1
 56 380 l 1
 71 449 l 1
 165 449 l 1
EndSplineSet
EndChar

StartChar: uni048E
Encoding: 520 1166 413
Width: 667
Flags: MW
HStem: 0 21G<91 184 91 91> 309 82<267 461 461 474 267 479 250 461> 647 82<322 516 322 322>
LayerCount: 2
Fore
SplineSet
590 441 m 1
 610 462 623 488 630 519 c 0
 647 599 605 647 516 647 c 2
 322 647 l 1
 267 391 l 1
 461 391 l 2
 487 391 510 395 531 403 c 1
 472 462 l 1
 532 500 l 1
 590 441 l 1
652 379 m 1
 726 305 l 1
 667 267 l 1
 596 338 l 1
 560 319 522 309 479 309 c 2
 250 309 l 1
 184 0 l 1
 91 0 l 1
 246 729 l 1
 547 729 l 2
 691 729 756 652 726 515 c 0
 714 458 691 415 652 379 c 1
EndSplineSet
EndChar

StartChar: uni048F
Encoding: 521 1167 414
Width: 556
Flags: MW
HStem: -23 78<259 315> 461 78<376.5 427>
LayerCount: 2
Fore
SplineSet
449 151 m 1
 467 181 481 216 490 255 c 0
 516 380 473 461 381 461 c 0
 293 461 218 381 192 258 c 0
 166 135 207 55 295 55 c 0
 335 55 373 71 404 98 c 1
 332 171 l 1
 391 209 l 1
 449 151 l 1
507 93 m 1
 586 14 l 1
 526 -24 l 1
 461 42 l 1
 413 0 355 -23 293 -23 c 0
 225 -23 182 1 149 55 c 1
 91 -218 l 1
 7 -218 l 1
 165 524 l 1
 242 524 l 1
 225 445 l 1
 277 507 341 539 412 539 c 0
 551 539 614 429 576 253 c 0
 563 191 539 136 507 93 c 1
EndSplineSet
EndChar

StartChar: afii10050
Encoding: 522 1168 415
Width: 611
Flags: MW
HStem: 0 21G<2 95 2 2> 647 81<553 553 553 629>
LayerCount: 2
Fore
SplineSet
95 0 m 1
 2 0 l 1
 157 729 l 1
 553 728 l 1
 574 825 l 1
 667 825 l 1
 629 647 l 1
 233 647 l 1
 95 0 l 1
EndSplineSet
EndChar

StartChar: afii10098
Encoding: 523 1169 416
Width: 430
Flags: MW
HStem: 0 21G<3 87 3 3> 448 76<182 326 115 393 182 182>
VStem: 3 429
LayerCount: 2
Fore
SplineSet
115 524 m 1
 326 524 l 1
 348 629 l 1
 432 629 l 1
 393 448 l 1
 182 448 l 1
 87 0 l 1
 3 0 l 1
 115 524 l 1
EndSplineSet
EndChar

StartChar: uni0492
Encoding: 524 1170 417
Width: 611
Flags: MW
HStem: 0 21G<90 183 90 90> 435 69<107 182 92 197 290 367> 647 82<321 717 321 321>
LayerCount: 2
Fore
SplineSet
290 504 m 1
 382 504 l 1
 367 435 l 1
 276 435 l 1
 183 0 l 1
 90 0 l 1
 182 435 l 1
 92 435 l 1
 107 504 l 1
 197 504 l 1
 245 729 l 1
 734 729 l 1
 717 647 l 1
 321 647 l 1
 290 504 l 1
EndSplineSet
EndChar

StartChar: uni0493
Encoding: 525 1171 418
Width: 430
Flags: MW
HStem: 0 21G<70 154 70 70> 292 69<59 132 44 146 231 319> 448 76<249 460 249 249>
VStem: 44 432<292 524>
LayerCount: 2
Fore
SplineSet
146 361 m 1
 181 524 l 1
 476 524 l 1
 460 448 l 1
 249 448 l 1
 231 361 l 1
 334 361 l 1
 319 292 l 1
 216 292 l 1
 154 0 l 1
 70 0 l 1
 132 292 l 1
 44 292 l 1
 59 361 l 1
 146 361 l 1
EndSplineSet
EndChar
